<svg xmlns="http://www.w3.org/2000/svg" width="1200" height="820" viewBox="0 0 1200 820">
<rect width="100%" height="100%" fill="#ffffff"/>
<text x="92.0" y="42" font-family="Arial, sans-serif" font-size="24" font-weight="700" fill="#17212B">397M cross-project loss comparison</text>
<text x="92.0" y="70" font-family="Arial, sans-serif" font-size="14" fill="#52606D">Metric: total_loss; trailing smoothing window: 5; x-axis: cumulative training tokens</text>
<text x="18" y="312.0" transform="rotate(-90 18 312.0)" font-family="Arial, sans-serif" font-size="13" fill="#3E4C59">total_loss</text>
<line x1="92.0" y1="512.00" x2="1168.0" y2="512.00" stroke="#E4E7EB" stroke-width="1"/>
<text x="82.0" y="516.00" text-anchor="end" font-family="Arial, sans-serif" font-size="11" fill="#66788A">6.569</text>
<line x1="92.0" y1="432.00" x2="1168.0" y2="432.00" stroke="#E4E7EB" stroke-width="1"/>
<text x="82.0" y="436.00" text-anchor="end" font-family="Arial, sans-serif" font-size="11" fill="#66788A">7.746</text>
<line x1="92.0" y1="352.00" x2="1168.0" y2="352.00" stroke="#E4E7EB" stroke-width="1"/>
<text x="82.0" y="356.00" text-anchor="end" font-family="Arial, sans-serif" font-size="11" fill="#66788A">8.924</text>
<line x1="92.0" y1="272.00" x2="1168.0" y2="272.00" stroke="#E4E7EB" stroke-width="1"/>
<text x="82.0" y="276.00" text-anchor="end" font-family="Arial, sans-serif" font-size="11" fill="#66788A">10.1</text>
<line x1="92.0" y1="192.00" x2="1168.0" y2="192.00" stroke="#E4E7EB" stroke-width="1"/>
<text x="82.0" y="196.00" text-anchor="end" font-family="Arial, sans-serif" font-size="11" fill="#66788A">11.28</text>
<line x1="92.0" y1="112.00" x2="1168.0" y2="112.00" stroke="#E4E7EB" stroke-width="1"/>
<text x="82.0" y="116.00" text-anchor="end" font-family="Arial, sans-serif" font-size="11" fill="#66788A">12.46</text>
<rect x="92.0" y="112.0" width="1076.0" height="400.0" fill="none" stroke="#9AA5B1" stroke-width="1"/>
<text x="18" y="675.0" transform="rotate(-90 18 675.0)" font-family="Arial, sans-serif" font-size="13" fill="#3E4C59">absolute difference</text>
<line x1="92.0" y1="750.00" x2="1168.0" y2="750.00" stroke="#E4E7EB" stroke-width="1"/>
<text x="82.0" y="754.00" text-anchor="end" font-family="Arial, sans-serif" font-size="11" fill="#66788A">0</text>
<line x1="92.0" y1="720.00" x2="1168.0" y2="720.00" stroke="#E4E7EB" stroke-width="1"/>
<text x="82.0" y="724.00" text-anchor="end" font-family="Arial, sans-serif" font-size="11" fill="#66788A">0.000161</text>
<line x1="92.0" y1="690.00" x2="1168.0" y2="690.00" stroke="#E4E7EB" stroke-width="1"/>
<text x="82.0" y="694.00" text-anchor="end" font-family="Arial, sans-serif" font-size="11" fill="#66788A">0.000322</text>
<line x1="92.0" y1="660.00" x2="1168.0" y2="660.00" stroke="#E4E7EB" stroke-width="1"/>
<text x="82.0" y="664.00" text-anchor="end" font-family="Arial, sans-serif" font-size="11" fill="#66788A">0.000483</text>
<line x1="92.0" y1="630.00" x2="1168.0" y2="630.00" stroke="#E4E7EB" stroke-width="1"/>
<text x="82.0" y="634.00" text-anchor="end" font-family="Arial, sans-serif" font-size="11" fill="#66788A">0.000644</text>
<line x1="92.0" y1="600.00" x2="1168.0" y2="600.00" stroke="#E4E7EB" stroke-width="1"/>
<text x="82.0" y="604.00" text-anchor="end" font-family="Arial, sans-serif" font-size="11" fill="#66788A">0.000805</text>
<rect x="92.0" y="600.0" width="1076.0" height="150.0" fill="none" stroke="#9AA5B1" stroke-width="1"/>
<line x1="92.00" y1="600.0" x2="92.00" y2="750.0" stroke="#E4E7EB" stroke-width="1"/>
<text x="92.00" y="774.0" text-anchor="middle" font-family="Arial, sans-serif" font-size="11" fill="#66788A">0.000262B</text>
<line x1="307.20" y1="600.0" x2="307.20" y2="750.0" stroke="#E4E7EB" stroke-width="1"/>
<text x="307.20" y="774.0" text-anchor="middle" font-family="Arial, sans-serif" font-size="11" fill="#66788A">0.0159B</text>
<line x1="522.40" y1="600.0" x2="522.40" y2="750.0" stroke="#E4E7EB" stroke-width="1"/>
<text x="522.40" y="774.0" text-anchor="middle" font-family="Arial, sans-serif" font-size="11" fill="#66788A">0.0316B</text>
<line x1="737.60" y1="600.0" x2="737.60" y2="750.0" stroke="#E4E7EB" stroke-width="1"/>
<text x="737.60" y="774.0" text-anchor="middle" font-family="Arial, sans-serif" font-size="11" fill="#66788A">0.0473B</text>
<line x1="952.80" y1="600.0" x2="952.80" y2="750.0" stroke="#E4E7EB" stroke-width="1"/>
<text x="952.80" y="774.0" text-anchor="middle" font-family="Arial, sans-serif" font-size="11" fill="#66788A">0.063B</text>
<line x1="1168.00" y1="600.0" x2="1168.00" y2="750.0" stroke="#E4E7EB" stroke-width="1"/>
<text x="1168.00" y="774.0" text-anchor="middle" font-family="Arial, sans-serif" font-size="11" fill="#66788A">0.0786B</text>
<path d="M92.00,139.76 L95.60,139.61 L99.20,139.76 L102.80,139.89 L106.39,139.91 L109.99,139.97 L113.59,140.17 L117.19,140.35 L120.79,140.61 L124.39,140.94 L127.99,141.35 L131.59,141.78 L135.18,142.10 L138.78,142.31 L142.38,142.72 L145.98,143.08 L149.58,143.51 L153.18,144.14 L156.78,144.96 L160.37,145.67 L163.97,146.44 L167.57,147.06 L171.17,148.21 L174.77,149.09 L178.37,150.12 L181.97,151.26 L185.57,152.65 L189.16,153.49 L192.76,154.88 L196.36,156.48 L199.96,157.78 L203.56,158.74 L207.16,160.08 L210.76,160.79 L214.35,161.63 L217.95,162.68 L221.55,164.58 L225.15,165.91 L228.75,167.91 L232.35,169.56 L235.95,171.45 L239.55,172.90 L243.14,175.35 L246.74,177.52 L250.34,179.91 L253.94,181.86 L257.54,184.19 L261.14,186.39 L264.74,187.40 L268.33,189.39 L271.93,192.13 L275.53,194.32 L279.13,196.34 L282.73,199.59 L286.33,201.71 L289.93,203.77 L293.53,206.41 L297.12,208.44 L300.72,210.35 L304.32,212.64 L307.92,215.30 L311.52,218.09 L315.12,220.68 L318.72,224.26 L322.31,227.51 L325.91,229.82 L329.51,231.40 L333.11,233.76 L336.71,235.82 L340.31,237.84 L343.91,239.80 L347.51,242.85 L351.10,245.55 L354.70,247.72 L358.30,250.36 L361.90,254.03 L365.50,256.49 L369.10,259.18 L372.70,261.25 L376.29,263.42 L379.89,264.96 L383.49,266.70 L387.09,269.23 L390.69,271.55 L394.29,273.24 L397.89,275.97 L401.48,279.17 L405.08,281.05 L408.68,283.59 L412.28,287.73 L415.88,290.74 L419.48,293.10 L423.08,295.77 L426.68,298.72 L430.27,299.78 L433.87,301.33 L437.47,304.53 L441.07,306.89 L444.67,308.56 L448.27,311.43 L451.87,313.20 L455.46,313.96 L459.06,316.15 L462.66,318.15 L466.26,318.77 L469.86,320.28 L473.46,321.85 L477.06,321.45 L480.66,324.30 L484.25,327.38 L487.85,329.00 L491.45,331.91 L495.05,335.16 L498.65,336.67 L502.25,338.40 L505.85,342.17 L509.44,343.59 L513.04,346.44 L516.64,348.50 L520.24,352.35 L523.84,354.32 L527.44,354.84 L531.04,358.04 L534.64,359.93 L538.23,359.37 L541.83,359.79 L545.43,362.78 L549.03,363.06 L552.63,365.47 L556.23,367.57 L559.83,370.14 L563.42,372.77 L567.02,372.65 L570.62,372.85 L574.22,373.99 L577.82,375.92 L581.42,376.33 L585.02,380.85 L588.62,382.70 L592.21,383.34 L595.81,382.84 L599.41,385.54 L603.01,384.73 L606.61,386.32 L610.21,388.16 L613.81,391.02 L617.40,390.89 L621.00,393.94 L624.60,396.16 L628.20,397.17 L631.80,396.74 L635.40,397.44 L639.00,397.00 L642.60,396.47 L646.19,397.13 L649.79,399.01 L653.39,401.48 L656.99,403.77 L660.59,405.16 L664.19,407.66 L667.79,409.74 L671.38,409.30 L674.98,408.73 L678.58,408.73 L682.18,411.57 L685.78,412.13 L689.38,413.98 L692.98,417.76 L696.58,419.73 L700.17,418.74 L703.77,417.89 L707.37,418.56 L710.97,417.27 L714.57,417.19 L718.17,417.47 L721.77,418.06 L725.36,417.47 L728.96,419.44 L732.56,419.87 L736.16,422.50 L739.76,423.72 L743.36,426.32 L746.96,427.10 L750.56,429.36 L754.15,429.11 L757.75,431.39 L761.35,434.32 L764.95,430.58 L768.55,430.63 L772.15,431.87 L775.75,431.81 L779.34,428.98 L782.94,432.13 L786.54,432.04 L790.14,432.38 L793.74,432.08 L797.34,431.74 L800.94,431.96 L804.54,433.66 L808.13,434.89 L811.73,436.42 L815.33,442.17 L818.93,442.96 L822.53,443.32 L826.13,443.46 L829.73,444.25 L833.32,441.37 L836.92,442.68 L840.52,444.79 L844.12,444.43 L847.72,445.96 L851.32,446.54 L854.92,448.66 L858.52,449.13 L862.11,450.24 L865.71,449.08 L869.31,447.85 L872.91,447.01 L876.51,447.71 L880.11,448.30 L883.71,449.54 L887.30,450.94 L890.90,452.58 L894.50,449.61 L898.10,450.27 L901.70,447.64 L905.30,448.33 L908.90,447.54 L912.49,452.34 L916.09,454.56 L919.69,459.42 L923.29,459.14 L926.89,459.50 L930.49,459.71 L934.09,459.11 L937.69,460.36 L941.28,462.58 L944.88,452.92 L948.48,450.98 L952.08,448.91 L955.68,445.92 L959.28,443.10 L962.88,454.67 L966.47,454.80 L970.07,455.33 L973.67,455.92 L977.27,458.27 L980.87,456.58 L984.47,458.81 L988.07,459.75 L991.67,459.96 L995.26,463.35 L998.86,464.10 L1002.46,461.84 L1006.06,461.65 L1009.66,464.97 L1013.26,464.67 L1016.86,466.22 L1020.45,465.87 L1024.05,468.77 L1027.65,466.94 L1031.25,466.82 L1034.85,467.48 L1038.45,471.85 L1042.05,468.77 L1045.65,466.78 L1049.24,463.46 L1052.84,464.73 L1056.44,464.70 L1060.04,466.55 L1063.64,468.59 L1067.24,470.68 L1070.84,469.31 L1074.43,466.66 L1078.03,467.74 L1081.63,469.86 L1085.23,470.32 L1088.83,470.40 L1092.43,471.03 L1096.03,470.09 L1099.63,469.07 L1103.22,471.25 L1106.82,470.44 L1110.42,471.80 L1114.02,473.92 L1117.62,475.38 L1121.22,476.78 L1124.82,478.85 L1128.41,481.65 L1132.01,480.56 L1135.61,481.40 L1139.21,482.57 L1142.81,482.76 L1146.41,481.20 L1150.01,483.09 L1153.61,484.41 L1157.20,480.36 L1160.80,479.66 L1164.40,477.70 L1168.00,475.31" fill="none" stroke="#146C94" stroke-width="2.2"/>
<path d="M92.00,139.75 L95.60,139.61 L99.20,139.76 L102.80,139.89 L106.39,139.91 L109.99,139.97 L113.59,140.17 L117.19,140.35 L120.79,140.61 L124.39,140.94 L127.99,141.35 L131.59,141.78 L135.18,142.10 L138.78,142.30 L142.38,142.71 L145.98,143.07 L149.58,143.50 L153.18,144.12 L156.78,144.95 L160.37,145.66 L163.97,146.43 L167.57,147.05 L171.17,148.20 L174.77,149.09 L178.37,150.12 L181.97,151.26 L185.57,152.65 L189.16,153.48 L192.76,154.88 L196.36,156.47 L199.96,157.77 L203.56,158.73 L207.16,160.07 L210.76,160.79 L214.35,161.63 L217.95,162.67 L221.55,164.57 L225.15,165.91 L228.75,167.90 L232.35,169.55 L235.95,171.45 L239.55,172.90 L243.14,175.35 L246.74,177.52 L250.34,179.90 L253.94,181.85 L257.54,184.18 L261.14,186.38 L264.74,187.39 L268.33,189.39 L271.93,192.12 L275.53,194.31 L279.13,196.33 L282.73,199.58 L286.33,201.70 L289.93,203.77 L293.53,206.41 L297.12,208.44 L300.72,210.35 L304.32,212.63 L307.92,215.30 L311.52,218.08 L315.12,220.68 L318.72,224.25 L322.31,227.50 L325.91,229.82 L329.51,231.40 L333.11,233.76 L336.71,235.82 L340.31,237.84 L343.91,239.79 L347.51,242.84 L351.10,245.55 L354.70,247.72 L358.30,250.35 L361.90,254.03 L365.50,256.49 L369.10,259.18 L372.70,261.24 L376.29,263.42 L379.89,264.96 L383.49,266.70 L387.09,269.22 L390.69,271.55 L394.29,273.24 L397.89,275.97 L401.48,279.17 L405.08,281.05 L408.68,283.58 L412.28,287.73 L415.88,290.73 L419.48,293.10 L423.08,295.76 L426.68,298.71 L430.27,299.78 L433.87,301.33 L437.47,304.52 L441.07,306.89 L444.67,308.55 L448.27,311.42 L451.87,313.20 L455.46,313.95 L459.06,316.14 L462.66,318.14 L466.26,318.76 L469.86,320.27 L473.46,321.85 L477.06,321.44 L480.66,324.29 L484.25,327.37 L487.85,329.00 L491.45,331.91 L495.05,335.16 L498.65,336.67 L502.25,338.40 L505.85,342.16 L509.44,343.58 L513.04,346.44 L516.64,348.50 L520.24,352.35 L523.84,354.31 L527.44,354.84 L531.04,358.03 L534.64,359.92 L538.23,359.36 L541.83,359.78 L545.43,362.77 L549.03,363.05 L552.63,365.46 L556.23,367.56 L559.83,370.13 L563.42,372.76 L567.02,372.63 L570.62,372.83 L574.22,373.98 L577.82,375.92 L581.42,376.33 L585.02,380.84 L588.62,382.70 L592.21,383.34 L595.81,382.84 L599.41,385.53 L603.01,384.72 L606.61,386.30 L610.21,388.15 L613.81,391.00 L617.40,390.87 L621.00,393.93 L624.60,396.16 L628.20,397.16 L631.80,396.73 L635.40,397.45 L639.00,397.00 L642.60,396.48 L646.19,397.13 L649.79,399.01 L653.39,401.48 L656.99,403.77 L660.59,405.16 L664.19,407.65 L667.79,409.74 L671.38,409.30 L674.98,408.72 L678.58,408.73 L682.18,411.58 L685.78,412.14 L689.38,413.99 L692.98,417.76 L696.58,419.73 L700.17,418.74 L703.77,417.89 L707.37,418.54 L710.97,417.26 L714.57,417.19 L718.17,417.46 L721.77,418.07 L725.36,417.48 L728.96,419.45 L732.56,419.88 L736.16,422.51 L739.76,423.73 L743.36,426.33 L746.96,427.11 L750.56,429.37 L754.15,429.12 L757.75,431.39 L761.35,434.32 L764.95,430.58 L768.55,430.63 L772.15,431.87 L775.75,431.82 L779.34,428.99 L782.94,432.13 L786.54,432.04 L790.14,432.38 L793.74,432.08 L797.34,431.75 L800.94,431.97 L804.54,433.67 L808.13,434.90 L811.73,436.43 L815.33,442.17 L818.93,442.96 L822.53,443.31 L826.13,443.46 L829.73,444.25 L833.32,441.37 L836.92,442.68 L840.52,444.80 L844.12,444.43 L847.72,445.96 L851.32,446.55 L854.92,448.66 L858.52,449.13 L862.11,450.25 L865.71,449.08 L869.31,447.85 L872.91,447.01 L876.51,447.71 L880.11,448.30 L883.71,449.54 L887.30,450.94 L890.90,452.58 L894.50,449.62 L898.10,450.27 L901.70,447.64 L905.30,448.32 L908.90,447.54 L912.49,452.32 L916.09,454.56 L919.69,459.41 L923.29,459.14 L926.89,459.50 L930.49,459.72 L934.09,459.11 L937.69,460.36 L941.28,462.57 L944.88,452.92 L948.48,450.98 L952.08,448.92 L955.68,445.94 L959.28,443.12 L962.88,454.69 L966.47,454.82 L970.07,455.34 L973.67,455.93 L977.27,458.28 L980.87,456.59 L984.47,458.82 L988.07,459.76 L991.67,459.97 L995.26,463.35 L998.86,464.10 L1002.46,461.84 L1006.06,461.65 L1009.66,464.97 L1013.26,464.68 L1016.86,466.22 L1020.45,465.88 L1024.05,468.77 L1027.65,466.95 L1031.25,466.83 L1034.85,467.49 L1038.45,471.87 L1042.05,468.78 L1045.65,466.80 L1049.24,463.47 L1052.84,464.74 L1056.44,464.70 L1060.04,466.56 L1063.64,468.59 L1067.24,470.69 L1070.84,469.31 L1074.43,466.67 L1078.03,467.74 L1081.63,469.85 L1085.23,470.30 L1088.83,470.39 L1092.43,471.01 L1096.03,470.08 L1099.63,469.07 L1103.22,471.25 L1106.82,470.42 L1110.42,471.78 L1114.02,473.91 L1117.62,475.37 L1121.22,476.76 L1124.82,478.85 L1128.41,481.66 L1132.01,480.55 L1135.61,481.40 L1139.21,482.57 L1142.81,482.76 L1146.41,481.19 L1150.01,483.08 L1153.61,484.40 L1157.20,480.34 L1160.80,479.64 L1164.40,477.69 L1168.00,475.30" fill="none" stroke="#146C94" stroke-width="2.0" stroke-dasharray="7 5" opacity="0.85"/>
<path d="M92.00,725.83 L95.60,731.48 L99.20,733.53 L102.80,736.07 L106.39,732.80 L109.99,733.03 L113.59,733.10 L117.19,732.87 L120.79,727.22 L124.39,730.79 L127.99,731.25 L131.59,725.85 L135.18,721.53 L138.78,722.19 L142.38,719.99 L145.98,712.68 L149.58,719.45 L153.18,710.16 L156.78,713.59 L160.37,715.53 L163.97,726.24 L167.57,714.55 L171.17,721.32 L174.77,723.49 L178.37,723.29 L181.97,718.33 L185.57,729.78 L189.16,735.29 L192.76,733.92 L196.36,734.82 L199.96,733.37 L203.56,733.49 L207.16,736.23 L210.76,737.70 L214.35,731.66 L217.95,737.35 L221.55,737.17 L225.15,730.83 L228.75,728.48 L232.35,731.24 L235.95,730.15 L239.55,728.68 L243.14,734.52 L246.74,733.69 L250.34,729.97 L253.94,727.24 L257.54,729.39 L261.14,729.71 L264.74,730.97 L268.33,739.60 L271.93,739.76 L275.53,735.68 L279.13,728.66 L282.73,728.69 L286.33,724.80 L289.93,728.14 L293.53,732.92 L297.12,738.27 L300.72,739.87 L304.32,737.69 L307.92,736.10 L311.52,732.28 L315.12,730.49 L318.72,731.20 L322.31,735.32 L325.91,738.24 L329.51,740.87 L333.11,743.37 L336.71,739.98 L340.31,740.72 L343.91,738.65 L347.51,734.01 L351.10,733.40 L354.70,735.07 L358.30,732.37 L361.90,732.03 L365.50,736.37 L369.10,737.31 L372.70,730.81 L376.29,734.74 L379.89,732.02 L383.49,733.01 L387.09,730.17 L390.69,737.92 L394.29,736.48 L397.89,741.22 L401.48,739.91 L405.08,744.38 L408.68,739.71 L412.28,739.11 L415.88,734.75 L419.48,732.16 L423.08,729.33 L426.68,732.76 L430.27,734.10 L433.87,737.88 L437.47,733.39 L441.07,734.82 L444.67,734.75 L448.27,732.16 L451.87,727.70 L455.46,728.66 L459.06,718.89 L462.66,717.82 L466.26,715.97 L469.86,719.44 L473.46,725.48 L477.06,735.16 L480.66,728.29 L484.25,733.15 L487.85,731.84 L491.45,727.79 L495.05,727.50 L498.65,735.13 L502.25,729.32 L505.85,732.46 L509.44,736.14 L513.04,729.96 L516.64,722.35 L520.24,727.04 L523.84,722.95 L527.44,718.73 L531.04,711.67 L534.64,719.42 L538.23,717.93 L541.83,716.61 L545.43,718.14 L549.03,730.84 L552.63,721.62 L556.23,712.38 L559.83,715.21 L563.42,714.85 L567.02,710.16 L570.62,717.62 L574.22,726.24 L577.82,727.56 L581.42,723.10 L585.02,721.78 L588.62,723.88 L592.21,719.45 L595.81,712.22 L599.41,715.15 L603.01,722.63 L606.61,705.42 L610.21,702.70 L613.81,708.22 L617.40,708.86 L621.00,705.22 L624.60,716.15 L628.20,723.59 L631.80,721.80 L635.40,722.71 L639.00,724.13 L642.60,731.89 L646.19,733.24 L649.79,734.29 L653.39,738.72 L656.99,737.63 L660.59,734.91 L664.19,735.00 L667.79,728.80 L671.38,725.41 L674.98,726.26 L678.58,727.65 L682.18,718.68 L685.78,727.28 L689.38,723.91 L692.98,722.36 L696.58,705.24 L700.17,713.05 L703.77,714.45 L707.37,705.48 L710.97,708.59 L714.57,726.76 L718.17,717.77 L721.77,708.38 L725.36,724.11 L728.96,723.07 L732.56,719.81 L736.16,725.66 L739.76,731.23 L743.36,730.96 L746.96,728.39 L750.56,717.76 L754.15,718.89 L757.75,722.30 L761.35,716.84 L764.95,713.64 L768.55,727.93 L772.15,724.16 L775.75,720.06 L779.34,718.81 L782.94,723.90 L786.54,722.44 L790.14,729.37 L793.74,732.27 L797.34,728.58 L800.94,718.24 L804.54,711.95 L808.13,712.62 L811.73,710.83 L815.33,721.57 L818.93,732.99 L822.53,732.67 L826.13,729.44 L829.73,725.74 L833.32,726.49 L836.92,727.46 L840.52,733.55 L844.12,729.49 L847.72,713.18 L851.32,712.46 L854.92,707.06 L858.52,700.88 L862.11,705.29 L865.71,728.98 L869.31,725.52 L872.91,730.71 L876.51,733.46 L880.11,736.81 L883.71,722.62 L887.30,726.35 L890.90,720.08 L894.50,721.42 L898.10,708.04 L901.70,712.25 L905.30,705.56 L908.90,709.54 L912.49,696.24 L916.09,706.95 L919.69,708.33 L923.29,705.95 L926.89,706.30 L930.49,723.10 L934.09,717.97 L937.69,710.57 L941.28,719.13 L944.88,715.92 L948.48,713.26 L952.08,697.67 L955.68,713.79 L959.28,711.32 L962.88,712.90 L966.47,704.67 L970.07,722.11 L973.67,717.82 L977.27,711.21 L980.87,716.66 L984.47,724.50 L988.07,724.25 L991.67,723.93 L995.26,727.64 L998.86,725.28 L1002.46,725.65 L1006.06,722.41 L1009.66,727.01 L1013.26,726.19 L1016.86,728.61 L1020.45,723.43 L1024.05,731.12 L1027.65,721.12 L1031.25,711.00 L1034.85,704.66 L1038.45,701.44 L1042.05,699.82 L1045.65,697.77 L1049.24,706.37 L1052.84,704.80 L1056.44,703.96 L1060.04,701.95 L1063.64,710.59 L1067.24,705.91 L1070.84,693.78 L1074.43,702.00 L1078.03,705.44 L1081.63,689.64 L1085.23,698.02 L1088.83,711.89 L1092.43,706.91 L1096.03,705.58 L1099.63,712.01 L1103.22,693.79 L1106.82,654.69 L1110.42,656.38 L1114.02,641.22 L1117.62,638.31 L1121.22,637.14 L1124.82,676.73 L1128.41,683.92 L1132.01,693.62 L1135.61,701.70 L1139.21,725.52 L1142.81,731.00 L1146.41,691.44 L1150.01,697.66 L1153.61,698.30 L1157.20,677.13 L1160.80,666.51 L1164.40,697.31 L1168.00,671.53" fill="none" stroke="#146C94" stroke-width="1.8"/>
<line x1="92.0" y1="92.0" x2="114.0" y2="92.0" stroke="#146C94" stroke-width="2.2"/>
<text x="120.0" y="96.0" font-family="Arial, sans-serif" font-size="12" fill="#323F4B">A TorchForge</text>
<line x1="237.0" y1="92.0" x2="259.0" y2="92.0" stroke="#146C94" stroke-width="2" stroke-dasharray="7 5"/>
<text x="265.0" y="96.0" font-family="Arial, sans-serif" font-size="12" fill="#323F4B">A peer</text>
<path d="M92.00,139.76 L95.60,139.60 L99.20,139.72 L102.80,139.81 L106.39,139.78 L109.99,139.73 L113.59,139.80 L117.19,139.84 L120.79,139.89 L124.39,139.99 L127.99,140.14 L131.59,140.26 L135.18,140.25 L138.78,140.13 L142.38,140.13 L145.98,140.09 L149.58,140.04 L153.18,140.19 L156.78,140.51 L160.37,140.57 L163.97,140.74 L167.57,140.85 L171.17,141.04 L174.77,141.16 L178.37,141.35 L181.97,141.55 L185.57,141.82 L189.16,141.85 L192.76,142.08 L196.36,142.46 L199.96,142.61 L203.56,142.76 L207.16,143.07 L210.76,143.14 L214.35,143.20 L217.95,143.49 L221.55,143.67 L225.15,143.77 L228.75,143.95 L232.35,144.07 L235.95,144.19 L239.55,144.59 L243.14,144.94 L246.74,145.20 L250.34,145.60 L253.94,145.86 L257.54,146.15 L261.14,146.42 L264.74,146.57 L268.33,146.76 L271.93,147.24 L275.53,147.37 L279.13,147.67 L282.73,148.22 L286.33,148.63 L289.93,148.90 L293.53,149.35 L297.12,149.58 L300.72,149.71 L304.32,150.13 L307.92,150.47 L311.52,150.81 L315.12,151.55 L318.72,152.26 L322.31,152.61 L325.91,153.06 L329.51,153.46 L333.11,153.67 L336.71,153.96 L340.31,154.39 L343.91,154.79 L347.51,155.30 L351.10,155.86 L354.70,156.46 L358.30,157.09 L361.90,157.75 L365.50,158.41 L369.10,158.99 L372.70,159.39 L376.29,159.84 L379.89,160.39 L383.49,160.77 L387.09,161.42 L390.69,161.73 L394.29,162.25 L397.89,162.88 L401.48,163.78 L405.08,164.37 L408.68,165.41 L412.28,166.27 L415.88,167.04 L419.48,167.73 L423.08,168.38 L426.68,169.16 L430.27,169.87 L433.87,170.55 L437.47,171.50 L441.07,172.49 L444.67,173.07 L448.27,174.04 L451.87,174.65 L455.46,174.99 L459.06,175.79 L462.66,176.70 L466.26,177.18 L469.86,178.04 L473.46,179.15 L477.06,179.40 L480.66,180.66 L484.25,181.85 L487.85,182.77 L491.45,183.89 L495.05,185.35 L498.65,186.16 L502.25,187.20 L505.85,188.75 L509.44,189.63 L513.04,191.07 L516.64,192.41 L520.24,194.16 L523.84,195.37 L527.44,196.23 L531.04,198.05 L534.64,199.18 L538.23,199.88 L541.83,200.88 L545.43,202.61 L549.03,203.48 L552.63,205.01 L556.23,206.44 L559.83,208.25 L563.42,210.39 L567.02,211.21 L570.62,212.47 L574.22,213.98 L577.82,215.53 L581.42,216.53 L585.02,218.89 L588.62,220.42 L592.21,221.34 L595.81,222.07 L599.41,224.26 L603.01,225.03 L606.61,226.88 L610.21,229.01 L613.81,231.19 L617.40,231.93 L621.00,234.54 L624.60,236.74 L628.20,238.46 L631.80,239.79 L635.40,241.40 L639.00,242.70 L642.60,243.78 L646.19,245.22 L649.79,247.56 L653.39,250.18 L656.99,252.07 L660.59,253.78 L664.19,256.43 L667.79,258.78 L671.38,260.25 L674.98,261.51 L678.58,263.42 L682.18,266.31 L685.78,267.92 L689.38,270.22 L692.98,274.07 L696.58,276.43 L700.17,277.60 L703.77,278.98 L707.37,280.93 L710.97,281.91 L714.57,283.38 L718.17,285.04 L721.77,286.98 L725.36,287.93 L728.96,290.27 L732.56,292.24 L736.16,295.16 L739.76,296.98 L743.36,299.99 L746.96,302.31 L750.56,305.43 L754.15,307.16 L757.75,310.14 L761.35,313.58 L764.95,313.32 L768.55,315.05 L772.15,317.68 L775.75,319.50 L779.34,320.17 L782.94,323.57 L786.54,324.60 L790.14,326.12 L793.74,327.61 L797.34,328.53 L800.94,330.46 L804.54,333.12 L808.13,335.63 L811.73,338.45 L815.33,343.38 L818.93,345.31 L822.53,347.60 L826.13,349.45 L829.73,351.26 L833.32,351.61 L836.92,354.13 L840.52,357.02 L844.12,358.18 L847.72,361.03 L851.32,362.74 L854.92,364.67 L858.52,366.56 L862.11,368.66 L865.71,368.83 L869.31,369.28 L872.91,370.92 L876.51,372.13 L880.11,373.76 L883.71,375.86 L887.30,377.76 L890.90,379.71 L894.50,378.64 L898.10,380.34 L901.70,379.40 L905.30,381.00 L908.90,381.31 L912.49,385.76 L916.09,387.88 L919.69,392.14 L923.29,392.50 L926.89,393.77 L930.49,395.06 L934.09,395.67 L937.69,397.14 L941.28,399.11 L944.88,392.06 L948.48,390.86 L952.08,389.64 L955.68,387.92 L959.28,386.67 L962.88,396.24 L966.47,397.04 L970.07,397.70 L973.67,398.72 L977.27,400.91 L980.87,399.72 L984.47,401.71 L988.07,402.96 L991.67,403.08 L995.26,405.92 L998.86,406.61 L1002.46,404.75 L1006.06,404.58 L1009.66,407.57 L1013.26,407.13 L1016.86,408.41 L1020.45,408.41 L1024.05,411.28 L1027.65,409.93 L1031.25,410.41 L1034.85,411.91 L1038.45,416.03 L1042.05,413.51 L1045.65,412.39 L1049.24,409.96 L1052.84,410.88 L1056.44,410.79 L1060.04,412.53 L1063.64,414.40 L1067.24,416.13 L1070.84,415.19 L1074.43,413.54 L1078.03,414.62 L1081.63,416.76 L1085.23,417.61 L1088.83,417.87 L1092.43,418.65 L1096.03,418.54 L1099.63,417.92 L1103.22,419.78 L1106.82,419.44 L1110.42,420.34 L1114.02,422.18 L1117.62,423.34 L1121.22,424.98 L1124.82,427.32 L1128.41,430.41 L1132.01,429.50 L1135.61,430.68 L1139.21,432.23 L1142.81,432.47 L1146.41,431.33 L1150.01,433.57 L1153.61,435.29 L1157.20,431.78 L1160.80,431.50 L1164.40,430.04 L1168.00,428.08" fill="none" stroke="#C44536" stroke-width="2.2"/>
<path d="M92.00,139.75 L95.60,139.59 L99.20,139.71 L102.80,139.80 L106.39,139.78 L109.99,139.73 L113.59,139.80 L117.19,139.84 L120.79,139.90 L124.39,139.98 L127.99,140.14 L131.59,140.25 L135.18,140.24 L138.78,140.12 L142.38,140.13 L145.98,140.08 L149.58,140.03 L153.18,140.18 L156.78,140.49 L160.37,140.57 L163.97,140.74 L167.57,140.84 L171.17,141.03 L174.77,141.15 L178.37,141.34 L181.97,141.54 L185.57,141.82 L189.16,141.84 L192.76,142.07 L196.36,142.46 L199.96,142.60 L203.56,142.75 L207.16,143.06 L210.76,143.14 L214.35,143.19 L217.95,143.49 L221.55,143.68 L225.15,143.77 L228.75,143.94 L232.35,144.06 L235.95,144.19 L239.55,144.58 L243.14,144.93 L246.74,145.20 L250.34,145.60 L253.94,145.85 L257.54,146.14 L261.14,146.42 L264.74,146.56 L268.33,146.76 L271.93,147.24 L275.53,147.37 L279.13,147.67 L282.73,148.22 L286.33,148.63 L289.93,148.89 L293.53,149.35 L297.12,149.58 L300.72,149.71 L304.32,150.13 L307.92,150.47 L311.52,150.81 L315.12,151.54 L318.72,152.25 L322.31,152.60 L325.91,153.06 L329.51,153.45 L333.11,153.66 L336.71,153.95 L340.31,154.38 L343.91,154.78 L347.51,155.29 L351.10,155.85 L354.70,156.45 L358.30,157.07 L361.90,157.74 L365.50,158.40 L369.10,158.99 L372.70,159.38 L376.29,159.84 L379.89,160.39 L383.49,160.77 L387.09,161.42 L390.69,161.74 L394.29,162.25 L397.89,162.88 L401.48,163.78 L405.08,164.37 L408.68,165.40 L412.28,166.26 L415.88,167.02 L419.48,167.71 L423.08,168.37 L426.68,169.15 L430.27,169.85 L433.87,170.55 L437.47,171.49 L441.07,172.48 L444.67,173.07 L448.27,174.04 L451.87,174.64 L455.46,174.98 L459.06,175.78 L462.66,176.69 L466.26,177.17 L469.86,178.04 L473.46,179.15 L477.06,179.40 L480.66,180.66 L484.25,181.85 L487.85,182.77 L491.45,183.89 L495.05,185.34 L498.65,186.15 L502.25,187.19 L505.85,188.74 L509.44,189.63 L513.04,191.07 L516.64,192.40 L520.24,194.15 L523.84,195.36 L527.44,196.22 L531.04,198.04 L534.64,199.17 L538.23,199.87 L541.83,200.87 L545.43,202.61 L549.03,203.47 L552.63,205.01 L556.23,206.44 L559.83,208.25 L563.42,210.39 L567.02,211.21 L570.62,212.48 L574.22,213.98 L577.82,215.53 L581.42,216.53 L585.02,218.89 L588.62,220.42 L592.21,221.34 L595.81,222.06 L599.41,224.26 L603.01,225.03 L606.61,226.87 L610.21,229.00 L613.81,231.18 L617.40,231.92 L621.00,234.53 L624.60,236.73 L628.20,238.44 L631.80,239.78 L635.40,241.38 L639.00,242.68 L642.60,243.76 L646.19,245.20 L649.79,247.54 L653.39,250.16 L656.99,252.05 L660.59,253.76 L664.19,256.40 L667.79,258.76 L671.38,260.22 L674.98,261.48 L678.58,263.39 L682.18,266.28 L685.78,267.89 L689.38,270.19 L692.98,274.04 L696.58,276.40 L700.17,277.57 L703.77,278.95 L707.37,280.90 L710.97,281.87 L714.57,283.35 L718.17,285.00 L721.77,286.94 L725.36,287.89 L728.96,290.23 L732.56,292.20 L736.16,295.12 L739.76,296.94 L743.36,299.95 L746.96,302.27 L750.56,305.39 L754.15,307.11 L757.75,310.09 L761.35,313.53 L764.95,313.27 L768.55,315.01 L772.15,317.64 L775.75,319.46 L779.34,320.13 L782.94,323.53 L786.54,324.56 L790.14,326.08 L793.74,327.58 L797.34,328.50 L800.94,330.43 L804.54,333.09 L808.13,335.60 L811.73,338.42 L815.33,343.35 L818.93,345.28 L822.53,347.56 L826.13,349.41 L829.73,351.22 L833.32,351.57 L836.92,354.09 L840.52,356.99 L844.12,358.15 L847.72,361.00 L851.32,362.70 L854.92,364.63 L858.52,366.52 L862.11,368.62 L865.71,368.79 L869.31,369.24 L872.91,370.89 L876.51,372.10 L880.11,373.73 L883.71,375.84 L887.30,377.74 L890.90,379.68 L894.50,378.61 L898.10,380.31 L901.70,379.37 L905.30,380.97 L908.90,381.28 L912.49,385.73 L916.09,387.86 L919.69,392.11 L923.29,392.48 L926.89,393.75 L930.49,395.05 L934.09,395.66 L937.69,397.13 L941.28,399.10 L944.88,392.04 L948.48,390.85 L952.08,389.63 L955.68,387.91 L959.28,386.66 L962.88,396.23 L966.47,397.03 L970.07,397.69 L973.67,398.71 L977.27,400.91 L980.87,399.71 L984.47,401.70 L988.07,402.95 L991.67,403.07 L995.26,405.91 L998.86,406.60 L1002.46,404.74 L1006.06,404.57 L1009.66,407.56 L1013.26,407.12 L1016.86,408.39 L1020.45,408.39 L1024.05,411.26 L1027.65,409.91 L1031.25,410.39 L1034.85,411.89 L1038.45,416.02 L1042.05,413.50 L1045.65,412.38 L1049.24,409.95 L1052.84,410.87 L1056.44,410.78 L1060.04,412.51 L1063.64,414.39 L1067.24,416.12 L1070.84,415.18 L1074.43,413.53 L1078.03,414.61 L1081.63,416.74 L1085.23,417.60 L1088.83,417.86 L1092.43,418.64 L1096.03,418.53 L1099.63,417.91 L1103.22,419.77 L1106.82,419.43 L1110.42,420.34 L1114.02,422.18 L1117.62,423.34 L1121.22,424.98 L1124.82,427.31 L1128.41,430.40 L1132.01,429.49 L1135.61,430.67 L1139.21,432.23 L1142.81,432.47 L1146.41,431.33 L1150.01,433.57 L1153.61,435.29 L1157.20,431.78 L1160.80,431.49 L1164.40,430.04 L1168.00,428.08" fill="none" stroke="#C44536" stroke-width="2.0" stroke-dasharray="7 5" opacity="0.85"/>
<path d="M92.00,725.83 L95.60,734.76 L99.20,736.38 L102.80,735.30 L106.39,730.33 L109.99,729.85 L113.59,724.75 L117.19,722.63 L120.79,721.76 L124.39,725.48 L127.99,727.25 L131.59,730.19 L135.18,732.35 L138.78,735.00 L142.38,731.80 L145.98,725.67 L149.58,726.28 L153.18,714.39 L156.78,710.07 L160.37,710.96 L163.97,716.33 L167.57,704.94 L171.17,714.48 L174.77,714.02 L178.37,708.37 L181.97,701.12 L185.57,705.61 L189.16,704.85 L192.76,705.49 L196.36,715.99 L199.96,717.16 L203.56,717.96 L207.16,712.65 L210.76,718.49 L214.35,715.97 L217.95,725.16 L221.55,727.56 L225.15,733.69 L228.75,722.69 L232.35,720.86 L235.95,714.66 L239.55,711.56 L243.14,710.36 L246.74,720.79 L250.34,718.74 L253.94,723.40 L257.54,732.03 L261.14,730.42 L264.74,730.76 L268.33,735.84 L271.93,731.91 L275.53,730.22 L279.13,722.97 L282.73,722.83 L286.33,723.33 L289.93,729.16 L293.53,724.64 L297.12,736.00 L300.72,731.91 L304.32,734.15 L307.92,723.29 L311.52,724.73 L315.12,723.75 L318.72,725.94 L322.31,721.71 L325.91,727.01 L329.51,722.21 L333.11,726.19 L336.71,722.99 L340.31,723.70 L343.91,723.31 L347.51,723.90 L351.10,711.99 L354.70,714.73 L358.30,710.76 L361.90,716.34 L365.50,725.53 L369.10,732.66 L372.70,728.23 L376.29,725.07 L379.89,725.00 L383.49,719.65 L387.09,719.65 L390.69,724.20 L394.29,734.65 L397.89,733.33 L401.48,739.41 L405.08,730.31 L408.68,730.70 L412.28,723.33 L415.88,713.06 L419.48,706.32 L423.08,713.80 L426.68,711.46 L430.27,714.00 L433.87,723.45 L437.47,726.33 L441.07,725.96 L444.67,727.72 L448.27,721.21 L451.87,719.21 L455.46,722.85 L459.06,722.85 L462.66,719.93 L466.26,720.84 L469.86,718.01 L473.46,718.00 L477.06,720.09 L480.66,718.05 L484.25,727.95 L487.85,724.48 L491.45,716.49 L495.05,715.28 L498.65,722.12 L502.25,715.70 L505.85,725.69 L509.44,726.49 L513.04,729.23 L516.64,722.01 L520.24,720.31 L523.84,716.70 L527.44,710.80 L531.04,712.84 L534.64,717.98 L538.23,726.99 L541.83,730.31 L545.43,735.73 L549.03,729.85 L552.63,731.66 L556.23,725.64 L559.83,725.58 L563.42,730.68 L567.02,736.81 L570.62,733.49 L574.22,737.93 L577.82,737.74 L581.42,738.72 L585.02,734.61 L588.62,737.81 L592.21,731.43 L595.81,731.77 L599.41,733.08 L603.01,728.62 L606.61,724.11 L610.21,727.02 L613.81,718.65 L617.40,707.85 L621.00,707.00 L624.60,708.01 L628.20,700.25 L631.80,700.53 L635.40,697.33 L639.00,693.07 L642.60,688.62 L646.19,697.10 L649.79,698.57 L653.39,703.80 L656.99,698.54 L660.59,696.46 L664.19,687.26 L667.79,679.45 L671.38,674.25 L674.98,670.94 L678.58,669.22 L682.18,667.80 L685.78,670.09 L689.38,666.22 L692.98,668.21 L696.58,665.10 L700.17,665.56 L703.77,668.14 L707.37,660.80 L710.97,653.49 L714.57,654.49 L718.17,643.13 L721.77,638.35 L725.36,644.54 L728.96,648.75 L732.56,649.58 L736.16,654.01 L739.76,652.46 L743.36,648.18 L746.96,644.70 L750.56,634.39 L754.15,629.47 L757.75,616.20 L761.35,613.64 L764.95,620.58 L768.55,623.91 L772.15,629.36 L775.75,638.28 L779.34,648.54 L782.94,647.95 L786.54,655.86 L790.14,659.32 L793.74,662.84 L797.34,660.64 L800.94,668.21 L804.54,666.80 L808.13,666.25 L811.73,662.77 L815.33,662.54 L818.93,656.55 L822.53,651.49 L826.13,643.12 L829.73,649.10 L833.32,651.89 L836.92,659.66 L840.52,656.39 L844.12,664.35 L847.72,660.71 L851.32,651.18 L854.92,641.94 L858.52,644.56 L862.11,649.89 L865.71,646.55 L869.31,659.98 L872.91,664.78 L876.51,670.34 L880.11,663.50 L883.71,670.69 L887.30,670.02 L890.90,668.03 L894.50,668.62 L898.10,668.79 L901.70,671.35 L905.30,666.75 L908.90,672.83 L912.49,672.28 L916.09,676.61 L919.69,675.47 L923.29,690.88 L926.89,692.36 L930.49,697.44 L934.09,706.02 L937.69,715.97 L941.28,709.56 L944.88,709.63 L948.48,716.15 L952.08,722.63 L955.68,721.48 L959.28,721.27 L962.88,726.14 L966.47,723.81 L970.07,722.81 L973.67,720.29 L977.27,726.47 L980.87,725.35 L984.47,724.94 L988.07,725.86 L991.67,728.76 L995.26,715.91 L998.86,717.44 L1002.46,716.69 L1006.06,713.45 L1009.66,705.17 L1013.26,709.55 L1016.86,702.87 L1020.45,697.94 L1024.05,692.44 L1027.65,696.59 L1031.25,698.85 L1034.85,704.58 L1038.45,712.03 L1042.05,721.20 L1045.65,721.05 L1049.24,723.44 L1052.84,725.55 L1056.44,720.72 L1060.04,713.21 L1063.64,719.85 L1067.24,719.84 L1070.84,714.88 L1074.43,717.84 L1078.03,705.57 L1081.63,701.81 L1085.23,707.44 L1088.83,707.63 L1092.43,706.68 L1096.03,722.98 L1099.63,723.19 L1103.22,718.73 L1106.82,724.58 L1110.42,726.87 L1114.02,725.59 L1117.62,726.57 L1121.22,728.02 L1124.82,723.51 L1128.41,728.17 L1132.01,729.87 L1135.61,734.11 L1139.21,736.71 L1142.81,741.26 L1146.41,740.02 L1150.01,738.08 L1153.61,738.37 L1157.20,729.76 L1160.80,726.31 L1164.40,717.93 L1168.00,720.95" fill="none" stroke="#C44536" stroke-width="1.8"/>
<line x1="357.0" y1="92.0" x2="379.0" y2="92.0" stroke="#C44536" stroke-width="2.2"/>
<text x="385.0" y="96.0" font-family="Arial, sans-serif" font-size="12" fill="#323F4B">B TorchForge</text>
<line x1="502.0" y1="92.0" x2="524.0" y2="92.0" stroke="#C44536" stroke-width="2" stroke-dasharray="7 5"/>
<text x="530.0" y="96.0" font-family="Arial, sans-serif" font-size="12" fill="#323F4B">B peer</text>
<path d="M92.00,139.76 L95.60,139.60 L99.20,139.72 L102.80,139.81 L106.39,139.78 L109.99,139.73 L113.59,139.80 L117.19,139.84 L120.79,139.89 L124.39,139.99 L127.99,140.14 L131.59,140.26 L135.18,140.25 L138.78,140.13 L142.38,140.13 L145.98,140.09 L149.58,140.04 L153.18,140.19 L156.78,140.51 L160.37,140.57 L163.97,140.74 L167.57,140.86 L171.17,141.04 L174.77,141.16 L178.37,141.35 L181.97,141.55 L185.57,141.82 L189.16,141.85 L192.76,142.08 L196.36,142.46 L199.96,142.61 L203.56,142.76 L207.16,143.06 L210.76,143.14 L214.35,143.20 L217.95,143.49 L221.55,143.67 L225.15,143.77 L228.75,143.95 L232.35,144.06 L235.95,144.19 L239.55,144.59 L243.14,144.94 L246.74,145.20 L250.34,145.60 L253.94,145.85 L257.54,146.14 L261.14,146.42 L264.74,146.57 L268.33,146.75 L271.93,147.23 L275.53,147.36 L279.13,147.66 L282.73,148.22 L286.33,148.62 L289.93,148.89 L293.53,149.35 L297.12,149.57 L300.72,149.70 L304.32,150.12 L307.92,150.46 L311.52,150.81 L315.12,151.54 L318.72,152.25 L322.31,152.60 L325.91,153.05 L329.51,153.45 L333.11,153.65 L336.71,153.94 L340.31,154.38 L343.91,154.78 L347.51,155.29 L351.10,155.85 L354.70,156.45 L358.30,157.07 L361.90,157.73 L365.50,158.39 L369.10,158.97 L372.70,159.37 L376.29,159.82 L379.89,160.37 L383.49,160.75 L387.09,161.40 L390.69,161.71 L394.29,162.23 L397.89,162.86 L401.48,163.76 L405.08,164.35 L408.68,165.39 L412.28,166.25 L415.88,167.01 L419.48,167.70 L423.08,168.36 L426.68,169.13 L430.27,169.84 L433.87,170.52 L437.47,171.47 L441.07,172.46 L444.67,173.04 L448.27,174.01 L451.87,174.62 L455.46,174.96 L459.06,175.75 L462.66,176.67 L466.26,177.15 L469.86,178.01 L473.46,179.12 L477.06,179.37 L480.66,180.62 L484.25,181.81 L487.85,182.73 L491.45,183.85 L495.05,185.30 L498.65,186.11 L502.25,187.15 L505.85,188.70 L509.44,189.59 L513.04,191.03 L516.64,192.36 L520.24,194.11 L523.84,195.32 L527.44,196.18 L531.04,197.99 L534.64,199.12 L538.23,199.81 L541.83,200.81 L545.43,202.54 L549.03,203.40 L552.63,204.94 L556.23,206.37 L559.83,208.18 L563.42,210.32 L567.02,211.14 L570.62,212.40 L574.22,213.90 L577.82,215.45 L581.42,216.46 L585.02,218.82 L588.62,220.34 L592.21,221.26 L595.81,221.98 L599.41,224.17 L603.01,224.95 L606.61,226.79 L610.21,228.91 L613.81,231.10 L617.40,231.84 L621.00,234.45 L624.60,236.64 L628.20,238.35 L631.80,239.68 L635.40,241.28 L639.00,242.58 L642.60,243.66 L646.19,245.10 L649.79,247.44 L653.39,250.06 L656.99,251.95 L660.59,253.67 L664.19,256.30 L667.79,258.66 L671.38,260.12 L674.98,261.37 L678.58,263.28 L682.18,266.16 L685.78,267.77 L689.38,270.07 L692.98,273.91 L696.58,276.27 L700.17,277.44 L703.77,278.82 L707.37,280.77 L710.97,281.74 L714.57,283.22 L718.17,284.87 L721.77,286.81 L725.36,287.76 L728.96,290.08 L732.56,292.05 L736.16,294.97 L739.76,296.78 L743.36,299.79 L746.96,302.11 L750.56,305.23 L754.15,306.95 L757.75,309.93 L761.35,313.38 L764.95,313.11 L768.55,314.84 L772.15,317.47 L775.75,319.28 L779.34,319.95 L782.94,323.35 L786.54,324.38 L790.14,325.90 L793.74,327.39 L797.34,328.32 L800.94,330.25 L804.54,332.91 L808.13,335.41 L811.73,338.23 L815.33,343.15 L818.93,345.08 L822.53,347.37 L826.13,349.22 L829.73,351.03 L833.32,351.38 L836.92,353.90 L840.52,356.80 L844.12,357.95 L847.72,360.80 L851.32,362.50 L854.92,364.43 L858.52,366.31 L862.11,368.41 L865.71,368.58 L869.31,369.03 L872.91,370.68 L876.51,371.89 L880.11,373.52 L883.71,375.63 L887.30,377.54 L890.90,379.48 L894.50,378.41 L898.10,380.11 L901.70,379.17 L905.30,380.77 L908.90,381.09 L912.49,385.53 L916.09,387.66 L919.69,391.91 L923.29,392.27 L926.89,393.54 L930.49,394.84 L934.09,395.45 L937.69,396.92 L941.28,398.89 L944.88,391.83 L948.48,390.63 L952.08,389.41 L955.68,387.69 L959.28,386.45 L962.88,396.02 L966.47,396.82 L970.07,397.48 L973.67,398.49 L977.27,400.69 L980.87,399.50 L984.47,401.48 L988.07,402.73 L991.67,402.85 L995.26,405.68 L998.86,406.37 L1002.46,404.50 L1006.06,404.33 L1009.66,407.31 L1013.26,406.87 L1016.86,408.14 L1020.45,408.13 L1024.05,411.00 L1027.65,409.64 L1031.25,410.13 L1034.85,411.62 L1038.45,415.74 L1042.05,413.21 L1045.65,412.09 L1049.24,409.65 L1052.84,410.58 L1056.44,410.48 L1060.04,412.21 L1063.64,414.07 L1067.24,415.80 L1070.84,414.86 L1074.43,413.21 L1078.03,414.28 L1081.63,416.42 L1085.23,417.26 L1088.83,417.52 L1092.43,418.30 L1096.03,418.19 L1099.63,417.55 L1103.22,419.41 L1106.82,419.06 L1110.42,419.96 L1114.02,421.79 L1117.62,422.94 L1121.22,424.58 L1124.82,426.90 L1128.41,429.99 L1132.01,429.07 L1135.61,430.25 L1139.21,431.80 L1142.81,432.03 L1146.41,430.89 L1150.01,433.13 L1153.61,434.85 L1157.20,431.34 L1160.80,431.06 L1164.40,429.59 L1168.00,427.63" fill="none" stroke="#2A9D55" stroke-width="2.2"/>
<path d="M92.00,139.75 L95.60,139.59 L99.20,139.71 L102.80,139.80 L106.39,139.77 L109.99,139.73 L113.59,139.80 L117.19,139.84 L120.79,139.90 L124.39,139.99 L127.99,140.14 L131.59,140.25 L135.18,140.24 L138.78,140.12 L142.38,140.12 L145.98,140.08 L149.58,140.03 L153.18,140.17 L156.78,140.50 L160.37,140.57 L163.97,140.74 L167.57,140.84 L171.17,141.03 L174.77,141.15 L178.37,141.34 L181.97,141.54 L185.57,141.81 L189.16,141.84 L192.76,142.07 L196.36,142.45 L199.96,142.60 L203.56,142.75 L207.16,143.06 L210.76,143.13 L214.35,143.19 L217.95,143.49 L221.55,143.68 L225.15,143.77 L228.75,143.94 L232.35,144.06 L235.95,144.19 L239.55,144.57 L243.14,144.93 L246.74,145.19 L250.34,145.59 L253.94,145.84 L257.54,146.13 L261.14,146.41 L264.74,146.56 L268.33,146.75 L271.93,147.23 L275.53,147.36 L279.13,147.66 L282.73,148.22 L286.33,148.62 L289.93,148.89 L293.53,149.34 L297.12,149.57 L300.72,149.70 L304.32,150.12 L307.92,150.46 L311.52,150.80 L315.12,151.53 L318.72,152.24 L322.31,152.60 L325.91,153.05 L329.51,153.44 L333.11,153.65 L336.71,153.94 L340.31,154.37 L343.91,154.77 L347.51,155.28 L351.10,155.84 L354.70,156.44 L358.30,157.07 L361.90,157.73 L365.50,158.39 L369.10,158.97 L372.70,159.37 L376.29,159.83 L379.89,160.37 L383.49,160.75 L387.09,161.40 L390.69,161.72 L394.29,162.23 L397.89,162.86 L401.48,163.76 L405.08,164.35 L408.68,165.38 L412.28,166.24 L415.88,167.00 L419.48,167.69 L423.08,168.35 L426.68,169.12 L430.27,169.82 L433.87,170.52 L437.47,171.46 L441.07,172.45 L444.67,173.04 L448.27,174.00 L451.87,174.61 L455.46,174.95 L459.06,175.74 L462.66,176.66 L466.26,177.14 L469.86,178.00 L473.46,179.11 L477.06,179.36 L480.66,180.63 L484.25,181.81 L487.85,182.73 L491.45,183.85 L495.05,185.29 L498.65,186.10 L502.25,187.14 L505.85,188.69 L509.44,189.58 L513.04,191.02 L516.64,192.35 L520.24,194.10 L523.84,195.31 L527.44,196.16 L531.04,197.98 L534.64,199.11 L538.23,199.80 L541.83,200.80 L545.43,202.53 L549.03,203.39 L552.63,204.93 L556.23,206.36 L559.83,208.17 L563.42,210.31 L567.02,211.13 L570.62,212.40 L574.22,213.90 L577.82,215.44 L581.42,216.45 L585.02,218.80 L588.62,220.33 L592.21,221.24 L595.81,221.96 L599.41,224.15 L603.01,224.93 L606.61,226.77 L610.21,228.89 L613.81,231.07 L617.40,231.81 L621.00,234.41 L624.60,236.61 L628.20,238.32 L631.80,239.65 L635.40,241.26 L639.00,242.55 L642.60,243.64 L646.19,245.08 L649.79,247.42 L653.39,250.03 L656.99,251.92 L660.59,253.63 L664.19,256.27 L667.79,258.62 L671.38,260.08 L674.98,261.34 L678.58,263.25 L682.18,266.14 L685.78,267.75 L689.38,270.05 L692.98,273.89 L696.58,276.24 L700.17,277.41 L703.77,278.79 L707.37,280.74 L710.97,281.70 L714.57,283.19 L718.17,284.83 L721.77,286.77 L725.36,287.72 L728.96,290.05 L732.56,292.02 L736.16,294.94 L739.76,296.75 L743.36,299.76 L746.96,302.07 L750.56,305.20 L754.15,306.92 L757.75,309.90 L761.35,313.34 L764.95,313.07 L768.55,314.80 L772.15,317.43 L775.75,319.25 L779.34,319.92 L782.94,323.32 L786.54,324.35 L790.14,325.87 L793.74,327.36 L797.34,328.28 L800.94,330.22 L804.54,332.88 L808.13,335.38 L811.73,338.20 L815.33,343.13 L818.93,345.05 L822.53,347.33 L826.13,349.18 L829.73,350.98 L833.32,351.33 L836.92,353.85 L840.52,356.75 L844.12,357.91 L847.72,360.76 L851.32,362.47 L854.92,364.40 L858.52,366.29 L862.11,368.39 L865.71,368.55 L869.31,369.01 L872.91,370.65 L876.51,371.86 L880.11,373.49 L883.71,375.60 L887.30,377.50 L890.90,379.45 L894.50,378.38 L898.10,380.08 L901.70,379.14 L905.30,380.74 L908.90,381.06 L912.49,385.50 L916.09,387.63 L919.69,391.88 L923.29,392.25 L926.89,393.51 L930.49,394.81 L934.09,395.43 L937.69,396.90 L941.28,398.86 L944.88,391.81 L948.48,390.62 L952.08,389.40 L955.68,387.68 L959.28,386.44 L962.88,396.00 L966.47,396.81 L970.07,397.46 L973.67,398.48 L977.27,400.68 L980.87,399.49 L984.47,401.47 L988.07,402.72 L991.67,402.84 L995.26,405.67 L998.86,406.36 L1002.46,404.49 L1006.06,404.32 L1009.66,407.30 L1013.26,406.85 L1016.86,408.12 L1020.45,408.11 L1024.05,410.98 L1027.65,409.63 L1031.25,410.11 L1034.85,411.60 L1038.45,415.73 L1042.05,413.20 L1045.65,412.08 L1049.24,409.64 L1052.84,410.56 L1056.44,410.47 L1060.04,412.19 L1063.64,414.06 L1067.24,415.78 L1070.84,414.84 L1074.43,413.19 L1078.03,414.26 L1081.63,416.40 L1085.23,417.25 L1088.83,417.50 L1092.43,418.28 L1096.03,418.17 L1099.63,417.54 L1103.22,419.40 L1106.82,419.06 L1110.42,419.96 L1114.02,421.79 L1117.62,422.94 L1121.22,424.57 L1124.82,426.90 L1128.41,429.98 L1132.01,429.07 L1135.61,430.25 L1139.21,431.80 L1142.81,432.03 L1146.41,430.89 L1150.01,433.13 L1153.61,434.85 L1157.20,431.34 L1160.80,431.05 L1164.40,429.59 L1168.00,427.63" fill="none" stroke="#2A9D55" stroke-width="2.0" stroke-dasharray="7 5" opacity="0.85"/>
<path d="M92.00,725.83 L95.60,722.06 L99.20,725.63 L102.80,731.52 L106.39,730.03 L109.99,729.78 L113.59,733.15 L117.19,732.03 L120.79,721.68 L124.39,719.31 L127.99,717.82 L131.59,716.95 L135.18,716.18 L138.78,720.15 L142.38,721.25 L145.98,719.79 L149.58,721.80 L153.18,710.32 L156.78,712.17 L160.37,713.45 L163.97,713.68 L167.57,698.47 L171.17,715.12 L174.77,716.31 L178.37,712.72 L181.97,707.10 L185.57,717.89 L189.16,715.44 L192.76,714.76 L196.36,722.46 L199.96,724.91 L203.56,724.98 L207.16,718.25 L210.76,718.85 L214.35,719.42 L217.95,725.92 L221.55,727.49 L225.15,727.31 L228.75,718.32 L232.35,714.55 L235.95,715.79 L239.55,711.80 L243.14,717.04 L246.74,726.69 L250.34,717.91 L253.94,716.66 L257.54,724.41 L261.14,721.85 L264.74,724.18 L268.33,734.75 L271.93,733.03 L275.53,730.29 L279.13,724.22 L282.73,722.97 L286.33,724.54 L289.93,730.22 L293.53,728.80 L297.12,741.20 L300.72,738.66 L304.32,736.19 L307.92,726.92 L311.52,729.74 L315.12,726.63 L318.72,722.90 L322.31,722.92 L325.91,727.31 L329.51,713.27 L333.11,714.32 L336.71,717.18 L340.31,718.23 L343.91,718.09 L347.51,731.18 L351.10,725.16 L354.70,727.31 L358.30,725.00 L361.90,730.08 L365.50,728.37 L369.10,734.56 L372.70,732.89 L376.29,728.64 L379.89,727.40 L383.49,727.63 L387.09,720.86 L390.69,720.38 L394.29,727.86 L397.89,726.90 L401.48,727.75 L405.08,728.85 L408.68,733.44 L412.28,726.08 L415.88,717.02 L419.48,717.96 L423.08,721.00 L426.68,715.83 L430.27,720.09 L433.87,728.52 L437.47,726.03 L441.07,723.67 L444.67,726.88 L448.27,718.48 L451.87,717.91 L455.46,717.18 L459.06,722.69 L462.66,723.93 L466.26,724.94 L469.86,720.56 L473.46,722.62 L477.06,720.86 L480.66,711.23 L484.25,717.62 L487.85,721.36 L491.45,716.74 L495.05,709.31 L498.65,720.02 L502.25,713.38 L505.85,709.61 L509.44,713.48 L513.04,712.20 L516.64,711.64 L520.24,718.00 L523.84,719.93 L527.44,711.72 L531.04,721.27 L534.64,720.36 L538.23,723.01 L541.83,722.81 L545.43,725.09 L549.03,714.14 L552.63,709.40 L556.23,711.48 L559.83,717.69 L563.42,725.35 L567.02,729.25 L570.62,733.56 L574.22,726.46 L577.82,718.96 L581.42,708.01 L585.02,714.69 L588.62,703.35 L592.21,697.40 L595.81,697.67 L599.41,704.23 L603.01,693.37 L606.61,695.59 L610.21,698.34 L613.81,687.08 L617.40,668.24 L621.00,664.30 L624.60,667.42 L628.20,665.68 L631.80,673.88 L635.40,681.75 L639.00,684.06 L642.60,682.30 L646.19,676.33 L649.79,675.76 L653.39,675.24 L656.99,663.94 L660.59,658.02 L664.19,657.35 L667.79,649.57 L671.38,658.84 L674.98,667.37 L678.58,668.99 L682.18,680.13 L685.78,685.67 L689.38,675.26 L692.98,686.49 L696.58,687.98 L700.17,681.05 L703.77,674.39 L707.37,665.72 L710.97,644.80 L714.57,646.72 L718.17,635.65 L721.77,639.67 L725.36,653.51 L728.96,663.48 L732.56,663.02 L736.16,666.16 L739.76,671.55 L743.36,666.27 L746.96,660.83 L750.56,656.27 L754.15,666.18 L757.75,649.83 L761.35,647.43 L764.95,652.09 L768.55,644.38 L772.15,641.14 L775.75,644.48 L779.34,655.29 L782.94,649.64 L786.54,656.94 L790.14,651.98 L793.74,654.86 L797.34,641.78 L800.94,655.20 L804.54,659.06 L808.13,664.65 L811.73,667.64 L815.33,681.34 L818.93,668.60 L822.53,655.39 L826.13,637.23 L829.73,631.69 L833.32,622.56 L836.92,622.91 L840.52,621.83 L844.12,635.83 L847.72,644.06 L851.32,652.69 L854.92,662.43 L858.52,678.09 L862.11,687.74 L865.71,680.20 L869.31,675.08 L872.91,667.71 L876.51,656.66 L880.11,643.90 L883.71,642.73 L887.30,646.15 L890.90,651.08 L894.50,661.19 L898.10,663.96 L901.70,675.67 L905.30,671.48 L908.90,674.78 L912.49,671.42 L916.09,667.16 L919.69,667.69 L923.29,678.80 L926.89,676.42 L930.49,684.75 L934.09,697.83 L937.69,699.04 L941.28,692.98 L944.88,697.40 L948.48,700.72 L952.08,709.89 L955.68,708.93 L959.28,710.91 L962.88,712.99 L966.47,715.31 L970.07,715.30 L973.67,720.31 L977.27,719.69 L980.87,720.66 L984.47,721.09 L988.07,721.60 L991.67,725.95 L995.26,725.29 L998.86,729.61 L1002.46,722.25 L1006.06,715.17 L1009.66,703.61 L1013.26,706.33 L1016.86,696.26 L1020.45,694.80 L1024.05,699.37 L1027.65,705.03 L1031.25,708.53 L1034.85,717.79 L1038.45,714.36 L1042.05,712.79 L1045.65,713.52 L1049.24,716.42 L1052.84,716.33 L1056.44,724.07 L1060.04,715.93 L1063.64,717.77 L1067.24,710.27 L1070.84,704.14 L1074.43,703.59 L1078.03,700.50 L1081.63,695.40 L1085.23,703.21 L1088.83,697.62 L1092.43,699.84 L1096.03,714.04 L1099.63,722.46 L1103.22,718.05 L1106.82,731.80 L1110.42,733.79 L1114.02,735.35 L1117.62,734.32 L1121.22,740.45 L1124.82,734.07 L1128.41,733.67 L1132.01,729.84 L1135.61,721.22 L1139.21,718.17 L1142.81,723.44 L1146.41,725.09 L1150.01,729.89 L1153.61,735.70 L1157.20,726.86 L1160.80,729.38 L1164.40,724.95 L1168.00,724.15" fill="none" stroke="#2A9D55" stroke-width="1.8"/>
<line x1="622.0" y1="92.0" x2="644.0" y2="92.0" stroke="#2A9D55" stroke-width="2.2"/>
<text x="650.0" y="96.0" font-family="Arial, sans-serif" font-size="12" fill="#323F4B">C TorchForge</text>
<line x1="767.0" y1="92.0" x2="789.0" y2="92.0" stroke="#2A9D55" stroke-width="2" stroke-dasharray="7 5"/>
<text x="795.0" y="96.0" font-family="Arial, sans-serif" font-size="12" fill="#323F4B">C peer</text>
<text x="630.0" y="802" text-anchor="middle" font-family="Arial, sans-serif" font-size="13" fill="#3E4C59">Cumulative tokens (billions)</text>
</svg>