<svg xmlns="http://www.w3.org/2000/svg" width="1200" height="918" viewBox="0 0 1200 918">
<rect width="100%" height="100%" fill="#ffffff"/>
<text x="92.0" y="42" font-family="Arial, sans-serif" font-size="24" font-weight="700" fill="#17212B">397M cross-project loss comparison</text>
<text x="92.0" y="70" font-family="Arial, sans-serif" font-size="14" fill="#52606D">Metric: total_loss; trailing smoothing window: 5; each panel compares one TorchForge/peer pair</text>
<line x1="92.00" y1="112.0" x2="92.00" y2="332.0" stroke="#EEF1F4" stroke-width="1"/>
<line x1="307.20" y1="112.0" x2="307.20" y2="332.0" stroke="#EEF1F4" stroke-width="1"/>
<line x1="522.40" y1="112.0" x2="522.40" y2="332.0" stroke="#EEF1F4" stroke-width="1"/>
<line x1="737.60" y1="112.0" x2="737.60" y2="332.0" stroke="#EEF1F4" stroke-width="1"/>
<line x1="952.80" y1="112.0" x2="952.80" y2="332.0" stroke="#EEF1F4" stroke-width="1"/>
<line x1="1168.00" y1="112.0" x2="1168.00" y2="332.0" stroke="#EEF1F4" stroke-width="1"/>
<line x1="92.00" y1="370.0" x2="92.00" y2="590.0" stroke="#EEF1F4" stroke-width="1"/>
<line x1="307.20" y1="370.0" x2="307.20" y2="590.0" stroke="#EEF1F4" stroke-width="1"/>
<line x1="522.40" y1="370.0" x2="522.40" y2="590.0" stroke="#EEF1F4" stroke-width="1"/>
<line x1="737.60" y1="370.0" x2="737.60" y2="590.0" stroke="#EEF1F4" stroke-width="1"/>
<line x1="952.80" y1="370.0" x2="952.80" y2="590.0" stroke="#EEF1F4" stroke-width="1"/>
<line x1="1168.00" y1="370.0" x2="1168.00" y2="590.0" stroke="#EEF1F4" stroke-width="1"/>
<line x1="92.00" y1="628.0" x2="92.00" y2="848.0" stroke="#EEF1F4" stroke-width="1"/>
<line x1="307.20" y1="628.0" x2="307.20" y2="848.0" stroke="#EEF1F4" stroke-width="1"/>
<line x1="522.40" y1="628.0" x2="522.40" y2="848.0" stroke="#EEF1F4" stroke-width="1"/>
<line x1="737.60" y1="628.0" x2="737.60" y2="848.0" stroke="#EEF1F4" stroke-width="1"/>
<line x1="952.80" y1="628.0" x2="952.80" y2="848.0" stroke="#EEF1F4" stroke-width="1"/>
<line x1="1168.00" y1="628.0" x2="1168.00" y2="848.0" stroke="#EEF1F4" stroke-width="1"/>
<text x="18" y="222.0" transform="rotate(-90 18 222.0)" font-family="Arial, sans-serif" font-size="13" fill="#3E4C59">total_loss</text>
<line x1="92.0" y1="332.00" x2="1168.0" y2="332.00" stroke="#E4E7EB" stroke-width="1"/>
<text x="82.0" y="336.00" text-anchor="end" font-family="Arial, sans-serif" font-size="11" fill="#66788A">6.569</text>
<line x1="92.0" y1="288.00" x2="1168.0" y2="288.00" stroke="#E4E7EB" stroke-width="1"/>
<text x="82.0" y="292.00" text-anchor="end" font-family="Arial, sans-serif" font-size="11" fill="#66788A">7.746</text>
<line x1="92.0" y1="244.00" x2="1168.0" y2="244.00" stroke="#E4E7EB" stroke-width="1"/>
<text x="82.0" y="248.00" text-anchor="end" font-family="Arial, sans-serif" font-size="11" fill="#66788A">8.924</text>
<line x1="92.0" y1="200.00" x2="1168.0" y2="200.00" stroke="#E4E7EB" stroke-width="1"/>
<text x="82.0" y="204.00" text-anchor="end" font-family="Arial, sans-serif" font-size="11" fill="#66788A">10.1</text>
<line x1="92.0" y1="156.00" x2="1168.0" y2="156.00" stroke="#E4E7EB" stroke-width="1"/>
<text x="82.0" y="160.00" text-anchor="end" font-family="Arial, sans-serif" font-size="11" fill="#66788A">11.28</text>
<line x1="92.0" y1="112.00" x2="1168.0" y2="112.00" stroke="#E4E7EB" stroke-width="1"/>
<text x="82.0" y="116.00" text-anchor="end" font-family="Arial, sans-serif" font-size="11" fill="#66788A">12.46</text>
<rect x="92.0" y="112.0" width="1076.0" height="220.0" fill="none" stroke="#9AA5B1" stroke-width="1"/>
<text x="18" y="480.0" transform="rotate(-90 18 480.0)" font-family="Arial, sans-serif" font-size="13" fill="#3E4C59">total_loss</text>
<line x1="92.0" y1="590.00" x2="1168.0" y2="590.00" stroke="#E4E7EB" stroke-width="1"/>
<text x="82.0" y="594.00" text-anchor="end" font-family="Arial, sans-serif" font-size="11" fill="#66788A">6.569</text>
<line x1="92.0" y1="546.00" x2="1168.0" y2="546.00" stroke="#E4E7EB" stroke-width="1"/>
<text x="82.0" y="550.00" text-anchor="end" font-family="Arial, sans-serif" font-size="11" fill="#66788A">7.746</text>
<line x1="92.0" y1="502.00" x2="1168.0" y2="502.00" stroke="#E4E7EB" stroke-width="1"/>
<text x="82.0" y="506.00" text-anchor="end" font-family="Arial, sans-serif" font-size="11" fill="#66788A">8.924</text>
<line x1="92.0" y1="458.00" x2="1168.0" y2="458.00" stroke="#E4E7EB" stroke-width="1"/>
<text x="82.0" y="462.00" text-anchor="end" font-family="Arial, sans-serif" font-size="11" fill="#66788A">10.1</text>
<line x1="92.0" y1="414.00" x2="1168.0" y2="414.00" stroke="#E4E7EB" stroke-width="1"/>
<text x="82.0" y="418.00" text-anchor="end" font-family="Arial, sans-serif" font-size="11" fill="#66788A">11.28</text>
<line x1="92.0" y1="370.00" x2="1168.0" y2="370.00" stroke="#E4E7EB" stroke-width="1"/>
<text x="82.0" y="374.00" text-anchor="end" font-family="Arial, sans-serif" font-size="11" fill="#66788A">12.46</text>
<rect x="92.0" y="370.0" width="1076.0" height="220.0" fill="none" stroke="#9AA5B1" stroke-width="1"/>
<text x="18" y="738.0" transform="rotate(-90 18 738.0)" font-family="Arial, sans-serif" font-size="13" fill="#3E4C59">total_loss</text>
<line x1="92.0" y1="848.00" x2="1168.0" y2="848.00" stroke="#E4E7EB" stroke-width="1"/>
<text x="82.0" y="852.00" text-anchor="end" font-family="Arial, sans-serif" font-size="11" fill="#66788A">6.569</text>
<line x1="92.0" y1="804.00" x2="1168.0" y2="804.00" stroke="#E4E7EB" stroke-width="1"/>
<text x="82.0" y="808.00" text-anchor="end" font-family="Arial, sans-serif" font-size="11" fill="#66788A">7.746</text>
<line x1="92.0" y1="760.00" x2="1168.0" y2="760.00" stroke="#E4E7EB" stroke-width="1"/>
<text x="82.0" y="764.00" text-anchor="end" font-family="Arial, sans-serif" font-size="11" fill="#66788A">8.924</text>
<line x1="92.0" y1="716.00" x2="1168.0" y2="716.00" stroke="#E4E7EB" stroke-width="1"/>
<text x="82.0" y="720.00" text-anchor="end" font-family="Arial, sans-serif" font-size="11" fill="#66788A">10.1</text>
<line x1="92.0" y1="672.00" x2="1168.0" y2="672.00" stroke="#E4E7EB" stroke-width="1"/>
<text x="82.0" y="676.00" text-anchor="end" font-family="Arial, sans-serif" font-size="11" fill="#66788A">11.28</text>
<line x1="92.0" y1="628.00" x2="1168.0" y2="628.00" stroke="#E4E7EB" stroke-width="1"/>
<text x="82.0" y="632.00" text-anchor="end" font-family="Arial, sans-serif" font-size="11" fill="#66788A">12.46</text>
<rect x="92.0" y="628.0" width="1076.0" height="220.0" fill="none" stroke="#9AA5B1" stroke-width="1"/>
<text x="92.00" y="872.0" text-anchor="middle" font-family="Arial, sans-serif" font-size="11" fill="#66788A">0.000262B</text>
<text x="307.20" y="872.0" text-anchor="middle" font-family="Arial, sans-serif" font-size="11" fill="#66788A">0.0159B</text>
<text x="522.40" y="872.0" text-anchor="middle" font-family="Arial, sans-serif" font-size="11" fill="#66788A">0.0316B</text>
<text x="737.60" y="872.0" text-anchor="middle" font-family="Arial, sans-serif" font-size="11" fill="#66788A">0.0473B</text>
<text x="952.80" y="872.0" text-anchor="middle" font-family="Arial, sans-serif" font-size="11" fill="#66788A">0.063B</text>
<text x="1168.00" y="872.0" text-anchor="middle" font-family="Arial, sans-serif" font-size="11" fill="#66788A">0.0786B</text>
<path d="M92.00,127.27 L95.60,127.19 L99.20,127.27 L102.80,127.34 L106.39,127.35 L109.99,127.38 L113.59,127.49 L117.19,127.59 L120.79,127.73 L124.39,127.92 L127.99,128.14 L131.59,128.38 L135.18,128.56 L138.78,128.67 L142.38,128.90 L145.98,129.10 L149.58,129.33 L153.18,129.67 L156.78,130.13 L160.37,130.52 L163.97,130.94 L167.57,131.28 L171.17,131.91 L174.77,132.40 L178.37,132.97 L181.97,133.59 L185.57,134.36 L189.16,134.82 L192.76,135.59 L196.36,136.46 L199.96,137.18 L203.56,137.71 L207.16,138.44 L210.76,138.84 L214.35,139.30 L217.95,139.87 L221.55,140.92 L225.15,141.65 L228.75,142.75 L232.35,143.66 L235.95,144.70 L239.55,145.50 L243.14,146.84 L246.74,148.04 L250.34,149.35 L253.94,150.42 L257.54,151.70 L261.14,152.91 L264.74,153.47 L268.33,154.57 L271.93,156.07 L275.53,157.27 L279.13,158.39 L282.73,160.17 L286.33,161.34 L289.93,162.48 L293.53,163.93 L297.12,165.04 L300.72,166.09 L304.32,167.35 L307.92,168.82 L311.52,170.35 L315.12,171.78 L318.72,173.74 L322.31,175.53 L325.91,176.80 L329.51,177.67 L333.11,178.97 L336.71,180.10 L340.31,181.21 L343.91,182.29 L347.51,183.97 L351.10,185.45 L354.70,186.65 L358.30,188.10 L361.90,190.12 L365.50,191.47 L369.10,192.95 L372.70,194.09 L376.29,195.28 L379.89,196.13 L383.49,197.09 L387.09,198.48 L390.69,199.75 L394.29,200.68 L397.89,202.18 L401.48,203.94 L405.08,204.98 L408.68,206.37 L412.28,208.65 L415.88,210.30 L419.48,211.61 L423.08,213.07 L426.68,214.69 L430.27,215.28 L433.87,216.13 L437.47,217.89 L441.07,219.19 L444.67,220.11 L448.27,221.69 L451.87,222.66 L455.46,223.08 L459.06,224.28 L462.66,225.38 L466.26,225.72 L469.86,226.55 L473.46,227.42 L477.06,227.20 L480.66,228.76 L484.25,230.46 L487.85,231.35 L491.45,232.95 L495.05,234.74 L498.65,235.57 L502.25,236.52 L505.85,238.59 L509.44,239.37 L513.04,240.94 L516.64,242.08 L520.24,244.19 L523.84,245.27 L527.44,245.56 L531.04,247.32 L534.64,248.36 L538.23,248.06 L541.83,248.29 L545.43,249.93 L549.03,250.08 L552.63,251.41 L556.23,252.56 L559.83,253.98 L563.42,255.42 L567.02,255.36 L570.62,255.46 L574.22,256.09 L577.82,257.16 L581.42,257.38 L585.02,259.86 L588.62,260.88 L592.21,261.24 L595.81,260.96 L599.41,262.45 L603.01,262.00 L606.61,262.87 L610.21,263.89 L613.81,265.46 L617.40,265.39 L621.00,267.07 L624.60,268.29 L628.20,268.84 L631.80,268.60 L635.40,268.99 L639.00,268.75 L642.60,268.46 L646.19,268.82 L649.79,269.85 L653.39,271.21 L656.99,272.47 L660.59,273.24 L664.19,274.61 L667.79,275.76 L671.38,275.52 L674.98,275.20 L678.58,275.20 L682.18,276.77 L685.78,277.07 L689.38,278.09 L692.98,280.17 L696.58,281.25 L700.17,280.71 L703.77,280.24 L707.37,280.61 L710.97,279.90 L714.57,279.86 L718.17,280.01 L721.77,280.33 L725.36,280.01 L728.96,281.09 L732.56,281.33 L736.16,282.78 L739.76,283.45 L743.36,284.88 L746.96,285.30 L750.56,286.55 L754.15,286.41 L757.75,287.66 L761.35,289.27 L764.95,287.22 L768.55,287.25 L772.15,287.93 L775.75,287.90 L779.34,286.34 L782.94,288.07 L786.54,288.02 L790.14,288.21 L793.74,288.04 L797.34,287.86 L800.94,287.98 L804.54,288.92 L808.13,289.59 L811.73,290.43 L815.33,293.59 L818.93,294.03 L822.53,294.22 L826.13,294.31 L829.73,294.74 L833.32,293.15 L836.92,293.87 L840.52,295.04 L844.12,294.84 L847.72,295.68 L851.32,296.00 L854.92,297.16 L858.52,297.42 L862.11,298.03 L865.71,297.39 L869.31,296.72 L872.91,296.25 L876.51,296.64 L880.11,296.97 L883.71,297.65 L887.30,298.42 L890.90,299.32 L894.50,297.69 L898.10,298.05 L901.70,296.60 L905.30,296.98 L908.90,296.55 L912.49,299.19 L916.09,300.41 L919.69,303.08 L923.29,302.93 L926.89,303.12 L930.49,303.24 L934.09,302.91 L937.69,303.60 L941.28,304.82 L944.88,299.51 L948.48,298.44 L952.08,297.30 L955.68,295.66 L959.28,294.11 L962.88,300.47 L966.47,300.54 L970.07,300.83 L973.67,301.15 L977.27,302.45 L980.87,301.52 L984.47,302.74 L988.07,303.26 L991.67,303.38 L995.26,305.24 L998.86,305.65 L1002.46,304.41 L1006.06,304.31 L1009.66,306.13 L1013.26,305.97 L1016.86,306.82 L1020.45,306.63 L1024.05,308.22 L1027.65,307.22 L1031.25,307.15 L1034.85,307.51 L1038.45,309.92 L1042.05,308.22 L1045.65,307.13 L1049.24,305.30 L1052.84,306.00 L1056.44,305.98 L1060.04,307.00 L1063.64,308.12 L1067.24,309.28 L1070.84,308.52 L1074.43,307.07 L1078.03,307.65 L1081.63,308.82 L1085.23,309.08 L1088.83,309.12 L1092.43,309.46 L1096.03,308.95 L1099.63,308.39 L1103.22,309.59 L1106.82,309.14 L1110.42,309.89 L1114.02,311.06 L1117.62,311.86 L1121.22,312.63 L1124.82,313.77 L1128.41,315.31 L1132.01,314.71 L1135.61,315.17 L1139.21,315.81 L1142.81,315.92 L1146.41,315.06 L1150.01,316.10 L1153.61,316.83 L1157.20,314.60 L1160.80,314.21 L1164.40,313.13 L1168.00,311.82" fill="none" stroke="#146C94" stroke-width="4.2" opacity="0.9"/>
<path d="M92.00,127.27 L95.60,127.18 L99.20,127.27 L102.80,127.34 L106.39,127.35 L109.99,127.38 L113.59,127.49 L117.19,127.59 L120.79,127.73 L124.39,127.92 L127.99,128.14 L131.59,128.38 L135.18,128.55 L138.78,128.67 L142.38,128.89 L145.98,129.09 L149.58,129.32 L153.18,129.67 L156.78,130.12 L160.37,130.51 L163.97,130.94 L167.57,131.28 L171.17,131.91 L174.77,132.40 L178.37,132.97 L181.97,133.59 L185.57,134.36 L189.16,134.81 L192.76,135.58 L196.36,136.46 L199.96,137.17 L203.56,137.70 L207.16,138.44 L210.76,138.83 L214.35,139.29 L217.95,139.87 L221.55,140.91 L225.15,141.65 L228.75,142.75 L232.35,143.65 L235.95,144.70 L239.55,145.49 L243.14,146.84 L246.74,148.04 L250.34,149.35 L253.94,150.42 L257.54,151.70 L261.14,152.91 L264.74,153.47 L268.33,154.57 L271.93,156.07 L275.53,157.27 L279.13,158.38 L282.73,160.17 L286.33,161.34 L289.93,162.47 L293.53,163.92 L297.12,165.04 L300.72,166.09 L304.32,167.35 L307.92,168.81 L311.52,170.35 L315.12,171.77 L318.72,173.74 L322.31,175.53 L325.91,176.80 L329.51,177.67 L333.11,178.97 L336.71,180.10 L340.31,181.21 L343.91,182.29 L347.51,183.96 L351.10,185.45 L354.70,186.65 L358.30,188.09 L361.90,190.11 L365.50,191.47 L369.10,192.95 L372.70,194.08 L376.29,195.28 L379.89,196.13 L383.49,197.08 L387.09,198.47 L390.69,199.75 L394.29,200.68 L397.89,202.18 L401.48,203.94 L405.08,204.98 L408.68,206.37 L412.28,208.65 L415.88,210.30 L419.48,211.60 L423.08,213.07 L426.68,214.69 L430.27,215.28 L433.87,216.13 L437.47,217.89 L441.07,219.19 L444.67,220.10 L448.27,221.68 L451.87,222.66 L455.46,223.07 L459.06,224.27 L462.66,225.38 L466.26,225.72 L469.86,226.55 L473.46,227.42 L477.06,227.19 L480.66,228.76 L484.25,230.45 L487.85,231.35 L491.45,232.95 L495.05,234.74 L498.65,235.57 L502.25,236.52 L505.85,238.59 L509.44,239.37 L513.04,240.94 L516.64,242.08 L520.24,244.19 L523.84,245.27 L527.44,245.56 L531.04,247.32 L534.64,248.36 L538.23,248.05 L541.83,248.28 L545.43,249.92 L549.03,250.08 L552.63,251.40 L556.23,252.56 L559.83,253.97 L563.42,255.42 L567.02,255.35 L570.62,255.46 L574.22,256.09 L577.82,257.15 L581.42,257.38 L585.02,259.86 L588.62,260.88 L592.21,261.23 L595.81,260.96 L599.41,262.44 L603.01,262.00 L606.61,262.86 L610.21,263.88 L613.81,265.45 L617.40,265.38 L621.00,267.06 L624.60,268.29 L628.20,268.84 L631.80,268.60 L635.40,268.99 L639.00,268.75 L642.60,268.46 L646.19,268.82 L649.79,269.85 L653.39,271.21 L656.99,272.47 L660.59,273.24 L664.19,274.61 L667.79,275.75 L671.38,275.52 L674.98,275.20 L678.58,275.20 L682.18,276.77 L685.78,277.07 L689.38,278.09 L692.98,280.17 L696.58,281.25 L700.17,280.71 L703.77,280.24 L707.37,280.60 L710.97,279.89 L714.57,279.85 L718.17,280.01 L721.77,280.34 L725.36,280.01 L728.96,281.10 L732.56,281.33 L736.16,282.78 L739.76,283.45 L743.36,284.88 L746.96,285.31 L750.56,286.55 L754.15,286.42 L757.75,287.67 L761.35,289.28 L764.95,287.22 L768.55,287.25 L772.15,287.93 L775.75,287.90 L779.34,286.34 L782.94,288.07 L786.54,288.02 L790.14,288.21 L793.74,288.05 L797.34,287.86 L800.94,287.98 L804.54,288.92 L808.13,289.59 L811.73,290.44 L815.33,293.59 L818.93,294.03 L822.53,294.22 L826.13,294.30 L829.73,294.74 L833.32,293.15 L836.92,293.87 L840.52,295.04 L844.12,294.83 L847.72,295.68 L851.32,296.00 L854.92,297.16 L858.52,297.42 L862.11,298.04 L865.71,297.39 L869.31,296.72 L872.91,296.25 L876.51,296.64 L880.11,296.97 L883.71,297.65 L887.30,298.42 L890.90,299.32 L894.50,297.69 L898.10,298.05 L901.70,296.60 L905.30,296.98 L908.90,296.54 L912.49,299.18 L916.09,300.41 L919.69,303.08 L923.29,302.93 L926.89,303.12 L930.49,303.25 L934.09,302.91 L937.69,303.60 L941.28,304.81 L944.88,299.51 L948.48,298.44 L952.08,297.30 L955.68,295.67 L959.28,294.12 L962.88,300.48 L966.47,300.55 L970.07,300.84 L973.67,301.16 L977.27,302.45 L980.87,301.53 L984.47,302.75 L988.07,303.27 L991.67,303.38 L995.26,305.24 L998.86,305.65 L1002.46,304.41 L1006.06,304.31 L1009.66,306.13 L1013.26,305.97 L1016.86,306.82 L1020.45,306.63 L1024.05,308.23 L1027.65,307.22 L1031.25,307.16 L1034.85,307.52 L1038.45,309.93 L1042.05,308.23 L1045.65,307.14 L1049.24,305.31 L1052.84,306.01 L1056.44,305.99 L1060.04,307.01 L1063.64,308.13 L1067.24,309.28 L1070.84,308.52 L1074.43,307.07 L1078.03,307.65 L1081.63,308.82 L1085.23,309.07 L1088.83,309.12 L1092.43,309.46 L1096.03,308.94 L1099.63,308.39 L1103.22,309.59 L1106.82,309.13 L1110.42,309.88 L1114.02,311.05 L1117.62,311.85 L1121.22,312.62 L1124.82,313.77 L1128.41,315.31 L1132.01,314.70 L1135.61,315.17 L1139.21,315.81 L1142.81,315.92 L1146.41,315.05 L1150.01,316.09 L1153.61,316.82 L1157.20,314.59 L1160.80,314.20 L1164.40,313.13 L1168.00,311.81" fill="none" stroke="#273444" stroke-width="2.0" stroke-dasharray="8 5"/>
<circle cx="178.37" cy="132.97" r="3.0" fill="#ffffff" stroke="#146C94" stroke-width="1.8"/>
<circle cx="268.33" cy="154.57" r="3.0" fill="#ffffff" stroke="#146C94" stroke-width="1.8"/>
<circle cx="358.30" cy="188.10" r="3.0" fill="#ffffff" stroke="#146C94" stroke-width="1.8"/>
<circle cx="448.27" cy="221.69" r="3.0" fill="#ffffff" stroke="#146C94" stroke-width="1.8"/>
<circle cx="538.23" cy="248.06" r="3.0" fill="#ffffff" stroke="#146C94" stroke-width="1.8"/>
<circle cx="628.20" cy="268.84" r="3.0" fill="#ffffff" stroke="#146C94" stroke-width="1.8"/>
<circle cx="718.17" cy="280.01" r="3.0" fill="#ffffff" stroke="#146C94" stroke-width="1.8"/>
<circle cx="808.13" cy="289.59" r="3.0" fill="#ffffff" stroke="#146C94" stroke-width="1.8"/>
<circle cx="898.10" cy="298.05" r="3.0" fill="#ffffff" stroke="#146C94" stroke-width="1.8"/>
<circle cx="988.07" cy="303.26" r="3.0" fill="#ffffff" stroke="#146C94" stroke-width="1.8"/>
<circle cx="1078.03" cy="307.65" r="3.0" fill="#ffffff" stroke="#146C94" stroke-width="1.8"/>
<circle cx="1168.00" cy="311.82" r="3.0" fill="#ffffff" stroke="#146C94" stroke-width="1.8"/>
<rect x="128.59" y="125.38" width="6" height="6" fill="#ffffff" stroke="#273444" stroke-width="1.8"/>
<rect x="218.55" y="137.91" width="6" height="6" fill="#ffffff" stroke="#273444" stroke-width="1.8"/>
<rect x="308.52" y="167.35" width="6" height="6" fill="#ffffff" stroke="#273444" stroke-width="1.8"/>
<rect x="398.48" y="200.94" width="6" height="6" fill="#ffffff" stroke="#273444" stroke-width="1.8"/>
<rect x="488.45" y="229.95" width="6" height="6" fill="#ffffff" stroke="#273444" stroke-width="1.8"/>
<rect x="578.42" y="254.38" width="6" height="6" fill="#ffffff" stroke="#273444" stroke-width="1.8"/>
<rect x="668.38" y="272.52" width="6" height="6" fill="#ffffff" stroke="#273444" stroke-width="1.8"/>
<rect x="758.35" y="286.28" width="6" height="6" fill="#ffffff" stroke="#273444" stroke-width="1.8"/>
<rect x="848.32" y="293.00" width="6" height="6" fill="#ffffff" stroke="#273444" stroke-width="1.8"/>
<rect x="938.28" y="301.81" width="6" height="6" fill="#ffffff" stroke="#273444" stroke-width="1.8"/>
<rect x="1028.25" y="304.16" width="6" height="6" fill="#ffffff" stroke="#273444" stroke-width="1.8"/>
<rect x="1118.22" y="309.62" width="6" height="6" fill="#ffffff" stroke="#273444" stroke-width="1.8"/>
<text x="102.0" y="134.0" font-family="Arial, sans-serif" font-size="14" font-weight="700" fill="#17212B">A: TorchForge vs peer</text>
<line x1="908.0" y1="130.0" x2="932.0" y2="130.0" stroke="#146C94" stroke-width="4.2"/>
<circle cx="920.0" cy="130.0" r="3" fill="#ffffff" stroke="#146C94" stroke-width="1.8"/>
<text x="938.0" y="134.0" font-family="Arial, sans-serif" font-size="12" fill="#323F4B">A TorchForge</text>
<line x1="1048.0" y1="130.0" x2="1072.0" y2="130.0" stroke="#273444" stroke-width="2" stroke-dasharray="8 5"/>
<rect x="1057.0" y="127.0" width="6" height="6" fill="#ffffff" stroke="#273444" stroke-width="1.8"/>
<text x="1078.0" y="134.0" font-family="Arial, sans-serif" font-size="12" fill="#323F4B">A peer</text>
<path d="M92.00,385.27 L95.60,385.18 L99.20,385.24 L102.80,385.29 L106.39,385.28 L109.99,385.25 L113.59,385.29 L117.19,385.31 L120.79,385.34 L124.39,385.39 L127.99,385.48 L131.59,385.54 L135.18,385.54 L138.78,385.47 L142.38,385.47 L145.98,385.45 L149.58,385.42 L153.18,385.50 L156.78,385.68 L160.37,385.72 L163.97,385.81 L167.57,385.87 L171.17,385.97 L174.77,386.04 L178.37,386.14 L181.97,386.25 L185.57,386.40 L189.16,386.42 L192.76,386.55 L196.36,386.75 L199.96,386.83 L203.56,386.92 L207.16,387.09 L210.76,387.13 L214.35,387.16 L217.95,387.32 L221.55,387.42 L225.15,387.47 L228.75,387.57 L232.35,387.64 L235.95,387.71 L239.55,387.92 L243.14,388.12 L246.74,388.26 L250.34,388.48 L253.94,388.62 L257.54,388.78 L261.14,388.93 L264.74,389.01 L268.33,389.12 L271.93,389.38 L275.53,389.45 L279.13,389.62 L282.73,389.92 L286.33,390.15 L289.93,390.29 L293.53,390.54 L297.12,390.67 L300.72,390.74 L304.32,390.97 L307.92,391.16 L311.52,391.35 L315.12,391.75 L318.72,392.14 L322.31,392.34 L325.91,392.59 L329.51,392.80 L333.11,392.92 L336.71,393.08 L340.31,393.31 L343.91,393.54 L347.51,393.82 L351.10,394.12 L354.70,394.45 L358.30,394.80 L361.90,395.16 L365.50,395.53 L369.10,395.84 L372.70,396.06 L376.29,396.31 L379.89,396.61 L383.49,396.82 L387.09,397.18 L390.69,397.35 L394.29,397.64 L397.89,397.98 L401.48,398.48 L405.08,398.80 L408.68,399.37 L412.28,399.85 L415.88,400.27 L419.48,400.65 L423.08,401.01 L426.68,401.44 L430.27,401.83 L433.87,402.20 L437.47,402.72 L441.07,403.27 L444.67,403.59 L448.27,404.12 L451.87,404.46 L455.46,404.64 L459.06,405.08 L462.66,405.59 L466.26,405.85 L469.86,406.32 L473.46,406.93 L477.06,407.07 L480.66,407.76 L484.25,408.42 L487.85,408.92 L491.45,409.54 L495.05,410.34 L498.65,410.79 L502.25,411.36 L505.85,412.21 L509.44,412.70 L513.04,413.49 L516.64,414.22 L520.24,415.19 L523.84,415.85 L527.44,416.33 L531.04,417.33 L534.64,417.95 L538.23,418.33 L541.83,418.88 L545.43,419.84 L549.03,420.31 L552.63,421.16 L556.23,421.94 L559.83,422.94 L563.42,424.12 L567.02,424.56 L570.62,425.26 L574.22,426.09 L577.82,426.94 L581.42,427.49 L585.02,428.79 L588.62,429.63 L592.21,430.14 L595.81,430.54 L599.41,431.74 L603.01,432.17 L606.61,433.19 L610.21,434.35 L613.81,435.55 L617.40,435.96 L621.00,437.40 L624.60,438.61 L628.20,439.55 L631.80,440.28 L635.40,441.17 L639.00,441.88 L642.60,442.48 L646.19,443.27 L649.79,444.56 L653.39,446.00 L656.99,447.04 L660.59,447.98 L664.19,449.43 L667.79,450.73 L671.38,451.54 L674.98,452.23 L678.58,453.28 L682.18,454.87 L685.78,455.75 L689.38,457.02 L692.98,459.14 L696.58,460.43 L700.17,461.08 L703.77,461.84 L707.37,462.91 L710.97,463.45 L714.57,464.26 L718.17,465.17 L721.77,466.24 L725.36,466.76 L728.96,468.05 L732.56,469.13 L736.16,470.74 L739.76,471.74 L743.36,473.39 L746.96,474.67 L750.56,476.39 L754.15,477.34 L757.75,478.98 L761.35,480.87 L764.95,480.73 L768.55,481.68 L772.15,483.13 L775.75,484.12 L779.34,484.49 L782.94,486.36 L786.54,486.93 L790.14,487.76 L793.74,488.58 L797.34,489.09 L800.94,490.15 L804.54,491.62 L808.13,493.00 L811.73,494.55 L815.33,497.26 L818.93,498.32 L822.53,499.58 L826.13,500.60 L829.73,501.59 L833.32,501.78 L836.92,503.17 L840.52,504.76 L844.12,505.40 L847.72,506.97 L851.32,507.91 L854.92,508.97 L858.52,510.01 L862.11,511.16 L865.71,511.25 L869.31,511.50 L872.91,512.41 L876.51,513.07 L880.11,513.97 L883.71,515.13 L887.30,516.17 L890.90,517.24 L894.50,516.65 L898.10,517.59 L901.70,517.07 L905.30,517.95 L908.90,518.12 L912.49,520.57 L916.09,521.74 L919.69,524.08 L923.29,524.28 L926.89,524.97 L930.49,525.69 L934.09,526.02 L937.69,526.83 L941.28,527.91 L944.88,524.03 L948.48,523.37 L952.08,522.70 L955.68,521.75 L959.28,521.07 L962.88,526.33 L966.47,526.77 L970.07,527.13 L973.67,527.69 L977.27,528.90 L980.87,528.25 L984.47,529.34 L988.07,530.03 L991.67,530.10 L995.26,531.66 L998.86,532.04 L1002.46,531.01 L1006.06,530.92 L1009.66,532.56 L1013.26,532.32 L1016.86,533.02 L1020.45,533.02 L1024.05,534.60 L1027.65,533.86 L1031.25,534.13 L1034.85,534.95 L1038.45,537.22 L1042.05,535.83 L1045.65,535.21 L1049.24,533.88 L1052.84,534.39 L1056.44,534.34 L1060.04,535.29 L1063.64,536.32 L1067.24,537.27 L1070.84,536.75 L1074.43,535.85 L1078.03,536.44 L1081.63,537.62 L1085.23,538.09 L1088.83,538.23 L1092.43,538.66 L1096.03,538.60 L1099.63,538.25 L1103.22,539.28 L1106.82,539.09 L1110.42,539.59 L1114.02,540.60 L1117.62,541.24 L1121.22,542.14 L1124.82,543.42 L1128.41,545.12 L1132.01,544.62 L1135.61,545.27 L1139.21,546.13 L1142.81,546.26 L1146.41,545.63 L1150.01,546.86 L1153.61,547.81 L1157.20,545.88 L1160.80,545.72 L1164.40,544.92 L1168.00,543.84" fill="none" stroke="#C44536" stroke-width="4.2" opacity="0.9"/>
<path d="M92.00,385.27 L95.60,385.17 L99.20,385.24 L102.80,385.29 L106.39,385.28 L109.99,385.25 L113.59,385.29 L117.19,385.31 L120.79,385.34 L124.39,385.39 L127.99,385.47 L131.59,385.54 L135.18,385.53 L138.78,385.47 L142.38,385.47 L145.98,385.44 L149.58,385.42 L153.18,385.50 L156.78,385.67 L160.37,385.71 L163.97,385.80 L167.57,385.86 L171.17,385.97 L174.77,386.03 L178.37,386.14 L181.97,386.25 L185.57,386.40 L189.16,386.41 L192.76,386.54 L196.36,386.75 L199.96,386.83 L203.56,386.91 L207.16,387.08 L210.76,387.13 L214.35,387.16 L217.95,387.32 L221.55,387.42 L225.15,387.47 L228.75,387.57 L232.35,387.63 L235.95,387.71 L239.55,387.92 L243.14,388.11 L246.74,388.26 L250.34,388.48 L253.94,388.62 L257.54,388.78 L261.14,388.93 L264.74,389.01 L268.33,389.12 L271.93,389.38 L275.53,389.45 L279.13,389.62 L282.73,389.92 L286.33,390.15 L289.93,390.29 L293.53,390.54 L297.12,390.67 L300.72,390.74 L304.32,390.97 L307.92,391.16 L311.52,391.34 L315.12,391.75 L318.72,392.14 L322.31,392.33 L325.91,392.58 L329.51,392.80 L333.11,392.91 L336.71,393.07 L340.31,393.31 L343.91,393.53 L347.51,393.81 L351.10,394.12 L354.70,394.45 L358.30,394.79 L361.90,395.15 L365.50,395.52 L369.10,395.84 L372.70,396.06 L376.29,396.31 L379.89,396.61 L383.49,396.82 L387.09,397.18 L390.69,397.35 L394.29,397.64 L397.89,397.98 L401.48,398.48 L405.08,398.80 L408.68,399.37 L412.28,399.85 L415.88,400.26 L419.48,400.64 L423.08,401.00 L426.68,401.43 L430.27,401.82 L433.87,402.20 L437.47,402.72 L441.07,403.27 L444.67,403.59 L448.27,404.12 L451.87,404.45 L455.46,404.64 L459.06,405.08 L462.66,405.58 L466.26,405.84 L469.86,406.32 L473.46,406.93 L477.06,407.07 L480.66,407.77 L484.25,408.42 L487.85,408.92 L491.45,409.54 L495.05,410.34 L498.65,410.78 L502.25,411.35 L505.85,412.21 L509.44,412.70 L513.04,413.49 L516.64,414.22 L520.24,415.18 L523.84,415.85 L527.44,416.32 L531.04,417.32 L534.64,417.94 L538.23,418.33 L541.83,418.88 L545.43,419.83 L549.03,420.31 L552.63,421.15 L556.23,421.94 L559.83,422.94 L563.42,424.12 L567.02,424.57 L570.62,425.26 L574.22,426.09 L577.82,426.94 L581.42,427.49 L585.02,428.79 L588.62,429.63 L592.21,430.14 L595.81,430.53 L599.41,431.74 L603.01,432.16 L606.61,433.18 L610.21,434.35 L613.81,435.55 L617.40,435.95 L621.00,437.39 L624.60,438.60 L628.20,439.54 L631.80,440.28 L635.40,441.16 L639.00,441.87 L642.60,442.47 L646.19,443.26 L649.79,444.55 L653.39,445.99 L656.99,447.03 L660.59,447.97 L664.19,449.42 L667.79,450.72 L671.38,451.52 L674.98,452.21 L678.58,453.26 L682.18,454.85 L685.78,455.74 L689.38,457.01 L692.98,459.12 L696.58,460.42 L700.17,461.06 L703.77,461.82 L707.37,462.90 L710.97,463.43 L714.57,464.24 L718.17,465.15 L721.77,466.22 L725.36,466.74 L728.96,468.03 L732.56,469.11 L736.16,470.72 L739.76,471.72 L743.36,473.37 L746.96,474.65 L750.56,476.36 L754.15,477.31 L757.75,478.95 L761.35,480.84 L764.95,480.70 L768.55,481.65 L772.15,483.10 L775.75,484.10 L779.34,484.47 L782.94,486.34 L786.54,486.91 L790.14,487.75 L793.74,488.57 L797.34,489.07 L800.94,490.14 L804.54,491.60 L808.13,492.98 L811.73,494.53 L815.33,497.24 L818.93,498.30 L822.53,499.56 L826.13,500.58 L829.73,501.57 L833.32,501.76 L836.92,503.15 L840.52,504.74 L844.12,505.38 L847.72,506.95 L851.32,507.89 L854.92,508.95 L858.52,509.99 L862.11,511.14 L865.71,511.23 L869.31,511.48 L872.91,512.39 L876.51,513.06 L880.11,513.95 L883.71,515.11 L887.30,516.15 L890.90,517.23 L894.50,516.63 L898.10,517.57 L901.70,517.05 L905.30,517.93 L908.90,518.11 L912.49,520.55 L916.09,521.72 L919.69,524.06 L923.29,524.26 L926.89,524.96 L930.49,525.67 L934.09,526.01 L937.69,526.82 L941.28,527.90 L944.88,524.02 L948.48,523.37 L952.08,522.70 L955.68,521.75 L959.28,521.07 L962.88,526.33 L966.47,526.77 L970.07,527.13 L973.67,527.69 L977.27,528.90 L980.87,528.24 L984.47,529.34 L988.07,530.02 L991.67,530.09 L995.26,531.65 L998.86,532.03 L1002.46,531.01 L1006.06,530.91 L1009.66,532.56 L1013.26,532.32 L1016.86,533.01 L1020.45,533.01 L1024.05,534.59 L1027.65,533.85 L1031.25,534.12 L1034.85,534.94 L1038.45,537.21 L1042.05,535.83 L1045.65,535.21 L1049.24,533.87 L1052.84,534.38 L1056.44,534.33 L1060.04,535.28 L1063.64,536.31 L1067.24,537.26 L1070.84,536.75 L1074.43,535.84 L1078.03,536.43 L1081.63,537.61 L1085.23,538.08 L1088.83,538.22 L1092.43,538.65 L1096.03,538.59 L1099.63,538.25 L1103.22,539.27 L1106.82,539.09 L1110.42,539.59 L1114.02,540.60 L1117.62,541.24 L1121.22,542.14 L1124.82,543.42 L1128.41,545.12 L1132.01,544.62 L1135.61,545.27 L1139.21,546.13 L1142.81,546.26 L1146.41,545.63 L1150.01,546.86 L1153.61,547.81 L1157.20,545.88 L1160.80,545.72 L1164.40,544.92 L1168.00,543.84" fill="none" stroke="#273444" stroke-width="2.0" stroke-dasharray="8 5"/>
<circle cx="178.37" cy="386.14" r="3.0" fill="#ffffff" stroke="#C44536" stroke-width="1.8"/>
<circle cx="268.33" cy="389.12" r="3.0" fill="#ffffff" stroke="#C44536" stroke-width="1.8"/>
<circle cx="358.30" cy="394.80" r="3.0" fill="#ffffff" stroke="#C44536" stroke-width="1.8"/>
<circle cx="448.27" cy="404.12" r="3.0" fill="#ffffff" stroke="#C44536" stroke-width="1.8"/>
<circle cx="538.23" cy="418.33" r="3.0" fill="#ffffff" stroke="#C44536" stroke-width="1.8"/>
<circle cx="628.20" cy="439.55" r="3.0" fill="#ffffff" stroke="#C44536" stroke-width="1.8"/>
<circle cx="718.17" cy="465.17" r="3.0" fill="#ffffff" stroke="#C44536" stroke-width="1.8"/>
<circle cx="808.13" cy="493.00" r="3.0" fill="#ffffff" stroke="#C44536" stroke-width="1.8"/>
<circle cx="898.10" cy="517.59" r="3.0" fill="#ffffff" stroke="#C44536" stroke-width="1.8"/>
<circle cx="988.07" cy="530.03" r="3.0" fill="#ffffff" stroke="#C44536" stroke-width="1.8"/>
<circle cx="1078.03" cy="536.44" r="3.0" fill="#ffffff" stroke="#C44536" stroke-width="1.8"/>
<circle cx="1168.00" cy="543.84" r="3.0" fill="#ffffff" stroke="#C44536" stroke-width="1.8"/>
<rect x="128.59" y="382.54" width="6" height="6" fill="#ffffff" stroke="#273444" stroke-width="1.8"/>
<rect x="218.55" y="384.42" width="6" height="6" fill="#ffffff" stroke="#273444" stroke-width="1.8"/>
<rect x="308.52" y="388.34" width="6" height="6" fill="#ffffff" stroke="#273444" stroke-width="1.8"/>
<rect x="398.48" y="395.48" width="6" height="6" fill="#ffffff" stroke="#273444" stroke-width="1.8"/>
<rect x="488.45" y="406.54" width="6" height="6" fill="#ffffff" stroke="#273444" stroke-width="1.8"/>
<rect x="578.42" y="424.49" width="6" height="6" fill="#ffffff" stroke="#273444" stroke-width="1.8"/>
<rect x="668.38" y="448.52" width="6" height="6" fill="#ffffff" stroke="#273444" stroke-width="1.8"/>
<rect x="758.35" y="477.84" width="6" height="6" fill="#ffffff" stroke="#273444" stroke-width="1.8"/>
<rect x="848.32" y="504.89" width="6" height="6" fill="#ffffff" stroke="#273444" stroke-width="1.8"/>
<rect x="938.28" y="524.90" width="6" height="6" fill="#ffffff" stroke="#273444" stroke-width="1.8"/>
<rect x="1028.25" y="531.12" width="6" height="6" fill="#ffffff" stroke="#273444" stroke-width="1.8"/>
<rect x="1118.22" y="539.14" width="6" height="6" fill="#ffffff" stroke="#273444" stroke-width="1.8"/>
<text x="102.0" y="392.0" font-family="Arial, sans-serif" font-size="14" font-weight="700" fill="#17212B">B: TorchForge vs peer</text>
<line x1="908.0" y1="388.0" x2="932.0" y2="388.0" stroke="#C44536" stroke-width="4.2"/>
<circle cx="920.0" cy="388.0" r="3" fill="#ffffff" stroke="#C44536" stroke-width="1.8"/>
<text x="938.0" y="392.0" font-family="Arial, sans-serif" font-size="12" fill="#323F4B">B TorchForge</text>
<line x1="1048.0" y1="388.0" x2="1072.0" y2="388.0" stroke="#273444" stroke-width="2" stroke-dasharray="8 5"/>
<rect x="1057.0" y="385.0" width="6" height="6" fill="#ffffff" stroke="#273444" stroke-width="1.8"/>
<text x="1078.0" y="392.0" font-family="Arial, sans-serif" font-size="12" fill="#323F4B">B peer</text>
<path d="M92.00,643.27 L95.60,643.18 L99.20,643.25 L102.80,643.30 L106.39,643.28 L109.99,643.25 L113.59,643.29 L117.19,643.31 L120.79,643.34 L124.39,643.39 L127.99,643.48 L131.59,643.54 L135.18,643.54 L138.78,643.47 L142.38,643.47 L145.98,643.45 L149.58,643.42 L153.18,643.50 L156.78,643.68 L160.37,643.72 L163.97,643.81 L167.57,643.87 L171.17,643.97 L174.77,644.04 L178.37,644.14 L181.97,644.25 L185.57,644.40 L189.16,644.42 L192.76,644.54 L196.36,644.75 L199.96,644.83 L203.56,644.92 L207.16,645.08 L210.76,645.13 L214.35,645.16 L217.95,645.32 L221.55,645.42 L225.15,645.47 L228.75,645.57 L232.35,645.64 L235.95,645.71 L239.55,645.92 L243.14,646.12 L246.74,646.26 L250.34,646.48 L253.94,646.62 L257.54,646.78 L261.14,646.93 L264.74,647.01 L268.33,647.11 L271.93,647.38 L275.53,647.45 L279.13,647.61 L282.73,647.92 L286.33,648.14 L289.93,648.29 L293.53,648.54 L297.12,648.66 L300.72,648.74 L304.32,648.97 L307.92,649.16 L311.52,649.34 L315.12,649.75 L318.72,650.14 L322.31,650.33 L325.91,650.58 L329.51,650.80 L333.11,650.91 L336.71,651.07 L340.31,651.31 L343.91,651.53 L347.51,651.81 L351.10,652.12 L354.70,652.45 L358.30,652.79 L361.90,653.15 L365.50,653.52 L369.10,653.83 L372.70,654.05 L376.29,654.30 L379.89,654.60 L383.49,654.81 L387.09,655.17 L390.69,655.34 L394.29,655.63 L397.89,655.97 L401.48,656.47 L405.08,656.79 L408.68,657.36 L412.28,657.84 L415.88,658.26 L419.48,658.63 L423.08,659.00 L426.68,659.42 L430.27,659.81 L433.87,660.19 L437.47,660.71 L441.07,661.25 L444.67,661.57 L448.27,662.11 L451.87,662.44 L455.46,662.63 L459.06,663.06 L462.66,663.57 L466.26,663.83 L469.86,664.30 L473.46,664.91 L477.06,665.05 L480.66,665.74 L484.25,666.39 L487.85,666.90 L491.45,667.52 L495.05,668.32 L498.65,668.76 L502.25,669.33 L505.85,670.19 L509.44,670.67 L513.04,671.47 L516.64,672.20 L520.24,673.16 L523.84,673.82 L527.44,674.30 L531.04,675.29 L534.64,675.91 L538.23,676.30 L541.83,676.84 L545.43,677.80 L549.03,678.27 L552.63,679.12 L556.23,679.90 L559.83,680.90 L563.42,682.07 L567.02,682.52 L570.62,683.22 L574.22,684.05 L577.82,684.90 L581.42,685.45 L585.02,686.75 L588.62,687.59 L592.21,688.09 L595.81,688.49 L599.41,689.69 L603.01,690.12 L606.61,691.14 L610.21,692.30 L613.81,693.50 L617.40,693.91 L621.00,695.34 L624.60,696.55 L628.20,697.49 L631.80,698.22 L635.40,699.11 L639.00,699.82 L642.60,700.42 L646.19,701.21 L649.79,702.49 L653.39,703.93 L656.99,704.97 L660.59,705.92 L664.19,707.37 L667.79,708.66 L671.38,709.46 L674.98,710.15 L678.58,711.20 L682.18,712.79 L685.78,713.67 L689.38,714.94 L692.98,717.05 L696.58,718.35 L700.17,718.99 L703.77,719.75 L707.37,720.82 L710.97,721.36 L714.57,722.17 L718.17,723.08 L721.77,724.15 L725.36,724.67 L728.96,725.95 L732.56,727.03 L736.16,728.63 L739.76,729.63 L743.36,731.28 L746.96,732.56 L750.56,734.28 L754.15,735.22 L757.75,736.86 L761.35,738.76 L764.95,738.61 L768.55,739.56 L772.15,741.01 L775.75,742.01 L779.34,742.37 L782.94,744.24 L786.54,744.81 L790.14,745.65 L793.74,746.47 L797.34,746.98 L800.94,748.04 L804.54,749.50 L808.13,750.88 L811.73,752.43 L815.33,755.13 L818.93,756.19 L822.53,757.45 L826.13,758.47 L829.73,759.46 L833.32,759.66 L836.92,761.04 L840.52,762.64 L844.12,763.27 L847.72,764.84 L851.32,765.78 L854.92,766.84 L858.52,767.87 L862.11,769.02 L865.71,769.12 L869.31,769.37 L872.91,770.27 L876.51,770.94 L880.11,771.84 L883.71,773.00 L887.30,774.04 L890.90,775.12 L894.50,774.52 L898.10,775.46 L901.70,774.94 L905.30,775.82 L908.90,776.00 L912.49,778.44 L916.09,779.61 L919.69,781.95 L923.29,782.15 L926.89,782.85 L930.49,783.56 L934.09,783.90 L937.69,784.70 L941.28,785.79 L944.88,781.91 L948.48,781.25 L952.08,780.58 L955.68,779.63 L959.28,778.95 L962.88,784.21 L966.47,784.65 L970.07,785.01 L973.67,785.57 L977.27,786.78 L980.87,786.12 L984.47,787.21 L988.07,787.90 L991.67,787.97 L995.26,789.52 L998.86,789.90 L1002.46,788.88 L1006.06,788.78 L1009.66,790.42 L1013.26,790.18 L1016.86,790.88 L1020.45,790.87 L1024.05,792.45 L1027.65,791.70 L1031.25,791.97 L1034.85,792.79 L1038.45,795.06 L1042.05,793.67 L1045.65,793.05 L1049.24,791.71 L1052.84,792.22 L1056.44,792.16 L1060.04,793.11 L1063.64,794.14 L1067.24,795.09 L1070.84,794.57 L1074.43,793.66 L1078.03,794.26 L1081.63,795.43 L1085.23,795.89 L1088.83,796.04 L1092.43,796.46 L1096.03,796.40 L1099.63,796.05 L1103.22,797.07 L1106.82,796.88 L1110.42,797.38 L1114.02,798.39 L1117.62,799.02 L1121.22,799.92 L1124.82,801.20 L1128.41,802.89 L1132.01,802.39 L1135.61,803.04 L1139.21,803.89 L1142.81,804.02 L1146.41,803.39 L1150.01,804.62 L1153.61,805.57 L1157.20,803.64 L1160.80,803.48 L1164.40,802.68 L1168.00,801.60" fill="none" stroke="#2A9D55" stroke-width="4.2" opacity="0.9"/>
<path d="M92.00,643.27 L95.60,643.17 L99.20,643.24 L102.80,643.29 L106.39,643.28 L109.99,643.25 L113.59,643.29 L117.19,643.31 L120.79,643.34 L124.39,643.39 L127.99,643.47 L131.59,643.54 L135.18,643.53 L138.78,643.46 L142.38,643.47 L145.98,643.44 L149.58,643.42 L153.18,643.50 L156.78,643.67 L160.37,643.71 L163.97,643.80 L167.57,643.86 L171.17,643.97 L174.77,644.03 L178.37,644.14 L181.97,644.25 L185.57,644.40 L189.16,644.41 L192.76,644.54 L196.36,644.75 L199.96,644.83 L203.56,644.91 L207.16,645.08 L210.76,645.12 L214.35,645.16 L217.95,645.32 L221.55,645.42 L225.15,645.47 L228.75,645.57 L232.35,645.63 L235.95,645.70 L239.55,645.92 L243.14,646.11 L246.74,646.26 L250.34,646.48 L253.94,646.61 L257.54,646.77 L261.14,646.93 L264.74,647.01 L268.33,647.11 L271.93,647.38 L275.53,647.45 L279.13,647.61 L282.73,647.92 L286.33,648.14 L289.93,648.29 L293.53,648.54 L297.12,648.66 L300.72,648.74 L304.32,648.97 L307.92,649.15 L311.52,649.34 L315.12,649.74 L318.72,650.13 L322.31,650.33 L325.91,650.58 L329.51,650.79 L333.11,650.91 L336.71,651.07 L340.31,651.30 L343.91,651.52 L347.51,651.81 L351.10,652.11 L354.70,652.44 L358.30,652.79 L361.90,653.15 L365.50,653.52 L369.10,653.83 L372.70,654.05 L376.29,654.30 L379.89,654.60 L383.49,654.81 L387.09,655.17 L390.69,655.34 L394.29,655.63 L397.89,655.97 L401.48,656.47 L405.08,656.79 L408.68,657.36 L412.28,657.83 L415.88,658.25 L419.48,658.63 L423.08,658.99 L426.68,659.42 L430.27,659.80 L433.87,660.18 L437.47,660.71 L441.07,661.25 L444.67,661.57 L448.27,662.10 L451.87,662.44 L455.46,662.62 L459.06,663.06 L462.66,663.56 L466.26,663.82 L469.86,664.30 L473.46,664.91 L477.06,665.05 L480.66,665.74 L484.25,666.40 L487.85,666.90 L491.45,667.52 L495.05,668.31 L498.65,668.76 L502.25,669.33 L505.85,670.18 L509.44,670.67 L513.04,671.46 L516.64,672.19 L520.24,673.15 L523.84,673.82 L527.44,674.29 L531.04,675.29 L534.64,675.91 L538.23,676.29 L541.83,676.84 L545.43,677.79 L549.03,678.27 L552.63,679.11 L556.23,679.90 L559.83,680.89 L563.42,682.07 L567.02,682.52 L570.62,683.22 L574.22,684.05 L577.82,684.89 L581.42,685.45 L585.02,686.74 L588.62,687.58 L592.21,688.08 L595.81,688.48 L599.41,689.69 L603.01,690.11 L606.61,691.13 L610.21,692.29 L613.81,693.49 L617.40,693.89 L621.00,695.33 L624.60,696.54 L628.20,697.48 L631.80,698.21 L635.40,699.09 L639.00,699.80 L642.60,700.40 L646.19,701.19 L649.79,702.48 L653.39,703.92 L656.99,704.96 L660.59,705.90 L664.19,707.35 L667.79,708.64 L671.38,709.45 L674.98,710.14 L678.58,711.19 L682.18,712.78 L685.78,713.66 L689.38,714.93 L692.98,717.04 L696.58,718.33 L700.17,718.98 L703.77,719.73 L707.37,720.81 L710.97,721.34 L714.57,722.15 L718.17,723.06 L721.77,724.12 L725.36,724.65 L728.96,725.93 L732.56,727.01 L736.16,728.61 L739.76,729.61 L743.36,731.27 L746.96,732.54 L750.56,734.26 L754.15,735.21 L757.75,736.84 L761.35,738.74 L764.95,738.59 L768.55,739.54 L772.15,740.99 L775.75,741.98 L779.34,742.36 L782.94,744.22 L786.54,744.79 L790.14,745.63 L793.74,746.45 L797.34,746.96 L800.94,748.02 L804.54,749.48 L808.13,750.86 L811.73,752.41 L815.33,755.12 L818.93,756.18 L822.53,757.43 L826.13,758.45 L829.73,759.44 L833.32,759.63 L836.92,761.02 L840.52,762.61 L844.12,763.25 L847.72,764.82 L851.32,765.76 L854.92,766.82 L858.52,767.86 L862.11,769.01 L865.71,769.10 L869.31,769.35 L872.91,770.26 L876.51,770.92 L880.11,771.82 L883.71,772.98 L887.30,774.02 L890.90,775.10 L894.50,774.51 L898.10,775.44 L901.70,774.93 L905.30,775.81 L908.90,775.98 L912.49,778.43 L916.09,779.59 L919.69,781.93 L923.29,782.14 L926.89,782.83 L930.49,783.55 L934.09,783.89 L937.69,784.69 L941.28,785.78 L944.88,781.90 L948.48,781.24 L952.08,780.57 L955.68,779.62 L959.28,778.94 L962.88,784.20 L966.47,784.64 L970.07,785.01 L973.67,785.57 L977.27,786.77 L980.87,786.12 L984.47,787.21 L988.07,787.89 L991.67,787.96 L995.26,789.52 L998.86,789.90 L1002.46,788.87 L1006.06,788.77 L1009.66,790.41 L1013.26,790.17 L1016.86,790.86 L1020.45,790.86 L1024.05,792.44 L1027.65,791.69 L1031.25,791.96 L1034.85,792.78 L1038.45,795.05 L1042.05,793.66 L1045.65,793.04 L1049.24,791.70 L1052.84,792.21 L1056.44,792.16 L1060.04,793.11 L1063.64,794.13 L1067.24,795.08 L1070.84,794.56 L1074.43,793.66 L1078.03,794.25 L1081.63,795.42 L1085.23,795.89 L1088.83,796.03 L1092.43,796.45 L1096.03,796.40 L1099.63,796.05 L1103.22,797.07 L1106.82,796.88 L1110.42,797.38 L1114.02,798.38 L1117.62,799.01 L1121.22,799.92 L1124.82,801.19 L1128.41,802.89 L1132.01,802.39 L1135.61,803.04 L1139.21,803.89 L1142.81,804.02 L1146.41,803.39 L1150.01,804.62 L1153.61,805.57 L1157.20,803.63 L1160.80,803.48 L1164.40,802.67 L1168.00,801.60" fill="none" stroke="#273444" stroke-width="2.0" stroke-dasharray="8 5"/>
<circle cx="178.37" cy="644.14" r="3.0" fill="#ffffff" stroke="#2A9D55" stroke-width="1.8"/>
<circle cx="268.33" cy="647.11" r="3.0" fill="#ffffff" stroke="#2A9D55" stroke-width="1.8"/>
<circle cx="358.30" cy="652.79" r="3.0" fill="#ffffff" stroke="#2A9D55" stroke-width="1.8"/>
<circle cx="448.27" cy="662.11" r="3.0" fill="#ffffff" stroke="#2A9D55" stroke-width="1.8"/>
<circle cx="538.23" cy="676.30" r="3.0" fill="#ffffff" stroke="#2A9D55" stroke-width="1.8"/>
<circle cx="628.20" cy="697.49" r="3.0" fill="#ffffff" stroke="#2A9D55" stroke-width="1.8"/>
<circle cx="718.17" cy="723.08" r="3.0" fill="#ffffff" stroke="#2A9D55" stroke-width="1.8"/>
<circle cx="808.13" cy="750.88" r="3.0" fill="#ffffff" stroke="#2A9D55" stroke-width="1.8"/>
<circle cx="898.10" cy="775.46" r="3.0" fill="#ffffff" stroke="#2A9D55" stroke-width="1.8"/>
<circle cx="988.07" cy="787.90" r="3.0" fill="#ffffff" stroke="#2A9D55" stroke-width="1.8"/>
<circle cx="1078.03" cy="794.26" r="3.0" fill="#ffffff" stroke="#2A9D55" stroke-width="1.8"/>
<circle cx="1168.00" cy="801.60" r="3.0" fill="#ffffff" stroke="#2A9D55" stroke-width="1.8"/>
<rect x="128.59" y="640.54" width="6" height="6" fill="#ffffff" stroke="#273444" stroke-width="1.8"/>
<rect x="218.55" y="642.42" width="6" height="6" fill="#ffffff" stroke="#273444" stroke-width="1.8"/>
<rect x="308.52" y="646.34" width="6" height="6" fill="#ffffff" stroke="#273444" stroke-width="1.8"/>
<rect x="398.48" y="653.47" width="6" height="6" fill="#ffffff" stroke="#273444" stroke-width="1.8"/>
<rect x="488.45" y="664.52" width="6" height="6" fill="#ffffff" stroke="#273444" stroke-width="1.8"/>
<rect x="578.42" y="682.45" width="6" height="6" fill="#ffffff" stroke="#273444" stroke-width="1.8"/>
<rect x="668.38" y="706.45" width="6" height="6" fill="#ffffff" stroke="#273444" stroke-width="1.8"/>
<rect x="758.35" y="735.74" width="6" height="6" fill="#ffffff" stroke="#273444" stroke-width="1.8"/>
<rect x="848.32" y="762.76" width="6" height="6" fill="#ffffff" stroke="#273444" stroke-width="1.8"/>
<rect x="938.28" y="782.78" width="6" height="6" fill="#ffffff" stroke="#273444" stroke-width="1.8"/>
<rect x="1028.25" y="788.96" width="6" height="6" fill="#ffffff" stroke="#273444" stroke-width="1.8"/>
<rect x="1118.22" y="796.92" width="6" height="6" fill="#ffffff" stroke="#273444" stroke-width="1.8"/>
<text x="102.0" y="650.0" font-family="Arial, sans-serif" font-size="14" font-weight="700" fill="#17212B">C: TorchForge vs peer</text>
<line x1="908.0" y1="646.0" x2="932.0" y2="646.0" stroke="#2A9D55" stroke-width="4.2"/>
<circle cx="920.0" cy="646.0" r="3" fill="#ffffff" stroke="#2A9D55" stroke-width="1.8"/>
<text x="938.0" y="650.0" font-family="Arial, sans-serif" font-size="12" fill="#323F4B">C TorchForge</text>
<line x1="1048.0" y1="646.0" x2="1072.0" y2="646.0" stroke="#273444" stroke-width="2" stroke-dasharray="8 5"/>
<rect x="1057.0" y="643.0" width="6" height="6" fill="#ffffff" stroke="#273444" stroke-width="1.8"/>
<text x="1078.0" y="650.0" font-family="Arial, sans-serif" font-size="12" fill="#323F4B">C peer</text>
<text x="630.0" y="900" text-anchor="middle" font-family="Arial, sans-serif" font-size="13" fill="#3E4C59">Cumulative tokens (billions)</text>
</svg>