<svg xmlns="http://www.w3.org/2000/svg" width="1200" height="1020" viewBox="0 0 1200 1020">
<rect width="100%" height="100%" fill="#ffffff"/>
<text x="92.0" y="42" font-family="Arial, sans-serif" font-size="24" font-weight="700" fill="#17212B">397M cross-project loss comparison</text>
<text x="92.0" y="70" font-family="Arial, sans-serif" font-size="14" fill="#52606D">Metric: total_loss; trailing smoothing window: 5; x-axis: cumulative training tokens</text>
<line x1="92.00" y1="112.0" x2="92.00" y2="292.0" stroke="#EEF1F4" stroke-width="1"/>
<line x1="307.20" y1="112.0" x2="307.20" y2="292.0" stroke="#EEF1F4" stroke-width="1"/>
<line x1="522.40" y1="112.0" x2="522.40" y2="292.0" stroke="#EEF1F4" stroke-width="1"/>
<line x1="737.60" y1="112.0" x2="737.60" y2="292.0" stroke="#EEF1F4" stroke-width="1"/>
<line x1="952.80" y1="112.0" x2="952.80" y2="292.0" stroke="#EEF1F4" stroke-width="1"/>
<line x1="1168.00" y1="112.0" x2="1168.00" y2="292.0" stroke="#EEF1F4" stroke-width="1"/>
<line x1="92.00" y1="326.0" x2="92.00" y2="506.0" stroke="#EEF1F4" stroke-width="1"/>
<line x1="307.20" y1="326.0" x2="307.20" y2="506.0" stroke="#EEF1F4" stroke-width="1"/>
<line x1="522.40" y1="326.0" x2="522.40" y2="506.0" stroke="#EEF1F4" stroke-width="1"/>
<line x1="737.60" y1="326.0" x2="737.60" y2="506.0" stroke="#EEF1F4" stroke-width="1"/>
<line x1="952.80" y1="326.0" x2="952.80" y2="506.0" stroke="#EEF1F4" stroke-width="1"/>
<line x1="1168.00" y1="326.0" x2="1168.00" y2="506.0" stroke="#EEF1F4" stroke-width="1"/>
<line x1="92.00" y1="540.0" x2="92.00" y2="720.0" stroke="#EEF1F4" stroke-width="1"/>
<line x1="307.20" y1="540.0" x2="307.20" y2="720.0" stroke="#EEF1F4" stroke-width="1"/>
<line x1="522.40" y1="540.0" x2="522.40" y2="720.0" stroke="#EEF1F4" stroke-width="1"/>
<line x1="737.60" y1="540.0" x2="737.60" y2="720.0" stroke="#EEF1F4" stroke-width="1"/>
<line x1="952.80" y1="540.0" x2="952.80" y2="720.0" stroke="#EEF1F4" stroke-width="1"/>
<line x1="1168.00" y1="540.0" x2="1168.00" y2="720.0" stroke="#EEF1F4" stroke-width="1"/>
<line x1="92.00" y1="790.0" x2="92.00" y2="950.0" stroke="#EEF1F4" stroke-width="1"/>
<line x1="307.20" y1="790.0" x2="307.20" y2="950.0" stroke="#EEF1F4" stroke-width="1"/>
<line x1="522.40" y1="790.0" x2="522.40" y2="950.0" stroke="#EEF1F4" stroke-width="1"/>
<line x1="737.60" y1="790.0" x2="737.60" y2="950.0" stroke="#EEF1F4" stroke-width="1"/>
<line x1="952.80" y1="790.0" x2="952.80" y2="950.0" stroke="#EEF1F4" stroke-width="1"/>
<line x1="1168.00" y1="790.0" x2="1168.00" y2="950.0" stroke="#EEF1F4" stroke-width="1"/>
<text x="18" y="202.0" transform="rotate(-90 18 202.0)" font-family="Arial, sans-serif" font-size="13" fill="#3E4C59">total_loss</text>
<line x1="92.0" y1="292.00" x2="1168.0" y2="292.00" stroke="#E4E7EB" stroke-width="1"/>
<text x="82.0" y="296.00" text-anchor="end" font-family="Arial, sans-serif" font-size="11" fill="#66788A">6.569</text>
<line x1="92.0" y1="256.00" x2="1168.0" y2="256.00" stroke="#E4E7EB" stroke-width="1"/>
<text x="82.0" y="260.00" text-anchor="end" font-family="Arial, sans-serif" font-size="11" fill="#66788A">7.746</text>
<line x1="92.0" y1="220.00" x2="1168.0" y2="220.00" stroke="#E4E7EB" stroke-width="1"/>
<text x="82.0" y="224.00" text-anchor="end" font-family="Arial, sans-serif" font-size="11" fill="#66788A">8.924</text>
<line x1="92.0" y1="184.00" x2="1168.0" y2="184.00" stroke="#E4E7EB" stroke-width="1"/>
<text x="82.0" y="188.00" text-anchor="end" font-family="Arial, sans-serif" font-size="11" fill="#66788A">10.1</text>
<line x1="92.0" y1="148.00" x2="1168.0" y2="148.00" stroke="#E4E7EB" stroke-width="1"/>
<text x="82.0" y="152.00" text-anchor="end" font-family="Arial, sans-serif" font-size="11" fill="#66788A">11.28</text>
<line x1="92.0" y1="112.00" x2="1168.0" y2="112.00" stroke="#E4E7EB" stroke-width="1"/>
<text x="82.0" y="116.00" text-anchor="end" font-family="Arial, sans-serif" font-size="11" fill="#66788A">12.46</text>
<rect x="92.0" y="112.0" width="1076.0" height="180.0" fill="none" stroke="#9AA5B1" stroke-width="1"/>
<text x="18" y="416.0" transform="rotate(-90 18 416.0)" font-family="Arial, sans-serif" font-size="13" fill="#3E4C59">total_loss</text>
<line x1="92.0" y1="506.00" x2="1168.0" y2="506.00" stroke="#E4E7EB" stroke-width="1"/>
<text x="82.0" y="510.00" text-anchor="end" font-family="Arial, sans-serif" font-size="11" fill="#66788A">6.569</text>
<line x1="92.0" y1="470.00" x2="1168.0" y2="470.00" stroke="#E4E7EB" stroke-width="1"/>
<text x="82.0" y="474.00" text-anchor="end" font-family="Arial, sans-serif" font-size="11" fill="#66788A">7.746</text>
<line x1="92.0" y1="434.00" x2="1168.0" y2="434.00" stroke="#E4E7EB" stroke-width="1"/>
<text x="82.0" y="438.00" text-anchor="end" font-family="Arial, sans-serif" font-size="11" fill="#66788A">8.924</text>
<line x1="92.0" y1="398.00" x2="1168.0" y2="398.00" stroke="#E4E7EB" stroke-width="1"/>
<text x="82.0" y="402.00" text-anchor="end" font-family="Arial, sans-serif" font-size="11" fill="#66788A">10.1</text>
<line x1="92.0" y1="362.00" x2="1168.0" y2="362.00" stroke="#E4E7EB" stroke-width="1"/>
<text x="82.0" y="366.00" text-anchor="end" font-family="Arial, sans-serif" font-size="11" fill="#66788A">11.28</text>
<line x1="92.0" y1="326.00" x2="1168.0" y2="326.00" stroke="#E4E7EB" stroke-width="1"/>
<text x="82.0" y="330.00" text-anchor="end" font-family="Arial, sans-serif" font-size="11" fill="#66788A">12.46</text>
<rect x="92.0" y="326.0" width="1076.0" height="180.0" fill="none" stroke="#9AA5B1" stroke-width="1"/>
<text x="18" y="630.0" transform="rotate(-90 18 630.0)" font-family="Arial, sans-serif" font-size="13" fill="#3E4C59">total_loss</text>
<line x1="92.0" y1="720.00" x2="1168.0" y2="720.00" stroke="#E4E7EB" stroke-width="1"/>
<text x="82.0" y="724.00" text-anchor="end" font-family="Arial, sans-serif" font-size="11" fill="#66788A">6.569</text>
<line x1="92.0" y1="684.00" x2="1168.0" y2="684.00" stroke="#E4E7EB" stroke-width="1"/>
<text x="82.0" y="688.00" text-anchor="end" font-family="Arial, sans-serif" font-size="11" fill="#66788A">7.746</text>
<line x1="92.0" y1="648.00" x2="1168.0" y2="648.00" stroke="#E4E7EB" stroke-width="1"/>
<text x="82.0" y="652.00" text-anchor="end" font-family="Arial, sans-serif" font-size="11" fill="#66788A">8.924</text>
<line x1="92.0" y1="612.00" x2="1168.0" y2="612.00" stroke="#E4E7EB" stroke-width="1"/>
<text x="82.0" y="616.00" text-anchor="end" font-family="Arial, sans-serif" font-size="11" fill="#66788A">10.1</text>
<line x1="92.0" y1="576.00" x2="1168.0" y2="576.00" stroke="#E4E7EB" stroke-width="1"/>
<text x="82.0" y="580.00" text-anchor="end" font-family="Arial, sans-serif" font-size="11" fill="#66788A">11.28</text>
<line x1="92.0" y1="540.00" x2="1168.0" y2="540.00" stroke="#E4E7EB" stroke-width="1"/>
<text x="82.0" y="544.00" text-anchor="end" font-family="Arial, sans-serif" font-size="11" fill="#66788A">12.46</text>
<rect x="92.0" y="540.0" width="1076.0" height="180.0" fill="none" stroke="#9AA5B1" stroke-width="1"/>
<text x="18" y="870.0" transform="rotate(-90 18 870.0)" font-family="Arial, sans-serif" font-size="13" fill="#3E4C59">absolute difference</text>
<line x1="92.0" y1="950.00" x2="1168.0" y2="950.00" stroke="#E4E7EB" stroke-width="1"/>
<text x="82.0" y="954.00" text-anchor="end" font-family="Arial, sans-serif" font-size="11" fill="#66788A">0</text>
<line x1="92.0" y1="918.00" x2="1168.0" y2="918.00" stroke="#E4E7EB" stroke-width="1"/>
<text x="82.0" y="922.00" text-anchor="end" font-family="Arial, sans-serif" font-size="11" fill="#66788A">0.000161</text>
<line x1="92.0" y1="886.00" x2="1168.0" y2="886.00" stroke="#E4E7EB" stroke-width="1"/>
<text x="82.0" y="890.00" text-anchor="end" font-family="Arial, sans-serif" font-size="11" fill="#66788A">0.000322</text>
<line x1="92.0" y1="854.00" x2="1168.0" y2="854.00" stroke="#E4E7EB" stroke-width="1"/>
<text x="82.0" y="858.00" text-anchor="end" font-family="Arial, sans-serif" font-size="11" fill="#66788A">0.000483</text>
<line x1="92.0" y1="822.00" x2="1168.0" y2="822.00" stroke="#E4E7EB" stroke-width="1"/>
<text x="82.0" y="826.00" text-anchor="end" font-family="Arial, sans-serif" font-size="11" fill="#66788A">0.000644</text>
<line x1="92.0" y1="790.00" x2="1168.0" y2="790.00" stroke="#E4E7EB" stroke-width="1"/>
<text x="82.0" y="794.00" text-anchor="end" font-family="Arial, sans-serif" font-size="11" fill="#66788A">0.000805</text>
<rect x="92.0" y="790.0" width="1076.0" height="160.0" fill="none" stroke="#9AA5B1" stroke-width="1"/>
<text x="92.00" y="974.0" text-anchor="middle" font-family="Arial, sans-serif" font-size="11" fill="#66788A">0.000262B</text>
<text x="307.20" y="974.0" text-anchor="middle" font-family="Arial, sans-serif" font-size="11" fill="#66788A">0.0159B</text>
<text x="522.40" y="974.0" text-anchor="middle" font-family="Arial, sans-serif" font-size="11" fill="#66788A">0.0316B</text>
<text x="737.60" y="974.0" text-anchor="middle" font-family="Arial, sans-serif" font-size="11" fill="#66788A">0.0473B</text>
<text x="952.80" y="974.0" text-anchor="middle" font-family="Arial, sans-serif" font-size="11" fill="#66788A">0.063B</text>
<text x="1168.00" y="974.0" text-anchor="middle" font-family="Arial, sans-serif" font-size="11" fill="#66788A">0.0786B</text>
<path d="M92.00,124.49 L95.60,124.43 L99.20,124.49 L102.80,124.55 L106.39,124.56 L109.99,124.59 L113.59,124.68 L117.19,124.76 L120.79,124.87 L124.39,125.02 L127.99,125.21 L131.59,125.40 L135.18,125.55 L138.78,125.64 L142.38,125.82 L145.98,125.99 L149.58,126.18 L153.18,126.46 L156.78,126.83 L160.37,127.15 L163.97,127.50 L167.57,127.78 L171.17,128.29 L174.77,128.69 L178.37,129.16 L181.97,129.67 L185.57,130.29 L189.16,130.67 L192.76,131.30 L196.36,132.02 L199.96,132.60 L203.56,133.03 L207.16,133.63 L210.76,133.96 L214.35,134.33 L217.95,134.80 L221.55,135.66 L225.15,136.26 L228.75,137.16 L232.35,137.90 L235.95,138.75 L239.55,139.41 L243.14,140.51 L246.74,141.49 L250.34,142.56 L253.94,143.44 L257.54,144.49 L261.14,145.47 L264.74,145.93 L268.33,146.83 L271.93,148.06 L275.53,149.04 L279.13,149.95 L282.73,151.41 L286.33,152.37 L289.93,153.30 L293.53,154.49 L297.12,155.40 L300.72,156.26 L304.32,157.29 L307.92,158.49 L311.52,159.74 L315.12,160.91 L318.72,162.52 L322.31,163.98 L325.91,165.02 L329.51,165.73 L333.11,166.79 L336.71,167.72 L340.31,168.63 L343.91,169.51 L347.51,170.88 L351.10,172.10 L354.70,173.07 L358.30,174.26 L361.90,175.91 L365.50,177.02 L369.10,178.23 L372.70,179.16 L376.29,180.14 L379.89,180.83 L383.49,181.62 L387.09,182.75 L390.69,183.80 L394.29,184.56 L397.89,185.79 L401.48,187.23 L405.08,188.07 L408.68,189.21 L412.28,191.08 L415.88,192.43 L419.48,193.50 L423.08,194.70 L426.68,196.02 L430.27,196.50 L433.87,197.20 L437.47,198.64 L441.07,199.70 L444.67,200.45 L448.27,201.74 L451.87,202.54 L455.46,202.88 L459.06,203.87 L462.66,204.77 L466.26,205.05 L469.86,205.73 L473.46,206.43 L477.06,206.25 L480.66,207.53 L484.25,208.92 L487.85,209.65 L491.45,210.96 L495.05,212.42 L498.65,213.10 L502.25,213.88 L505.85,215.58 L509.44,216.21 L513.04,217.50 L516.64,218.43 L520.24,220.16 L523.84,221.04 L527.44,221.28 L531.04,222.72 L534.64,223.57 L538.23,223.32 L541.83,223.51 L545.43,224.85 L549.03,224.98 L552.63,226.06 L556.23,227.01 L559.83,228.16 L563.42,229.35 L567.02,229.29 L570.62,229.38 L574.22,229.89 L577.82,230.76 L581.42,230.95 L585.02,232.98 L588.62,233.81 L592.21,234.10 L595.81,233.88 L599.41,235.09 L603.01,234.73 L606.61,235.44 L610.21,236.27 L613.81,237.56 L617.40,237.50 L621.00,238.87 L624.60,239.87 L628.20,240.33 L631.80,240.13 L635.40,240.45 L639.00,240.25 L642.60,240.01 L646.19,240.31 L649.79,241.15 L653.39,242.27 L656.99,243.30 L660.59,243.92 L664.19,245.05 L667.79,245.98 L671.38,245.79 L674.98,245.53 L678.58,245.53 L682.18,246.81 L685.78,247.06 L689.38,247.89 L692.98,249.59 L696.58,250.48 L700.17,250.03 L703.77,249.65 L707.37,249.95 L710.97,249.37 L714.57,249.34 L718.17,249.46 L721.77,249.73 L725.36,249.46 L728.96,250.35 L732.56,250.54 L736.16,251.73 L739.76,252.27 L743.36,253.44 L746.96,253.79 L750.56,254.81 L754.15,254.70 L757.75,255.72 L761.35,257.04 L764.95,255.36 L768.55,255.39 L772.15,255.94 L775.75,255.92 L779.34,254.64 L782.94,256.06 L786.54,256.02 L790.14,256.17 L793.74,256.03 L797.34,255.88 L800.94,255.98 L804.54,256.75 L808.13,257.30 L811.73,257.99 L815.33,260.58 L818.93,260.93 L822.53,261.09 L826.13,261.16 L829.73,261.51 L833.32,260.21 L836.92,260.81 L840.52,261.76 L844.12,261.59 L847.72,262.28 L851.32,262.54 L854.92,263.50 L858.52,263.71 L862.11,264.21 L865.71,263.69 L869.31,263.13 L872.91,262.75 L876.51,263.07 L880.11,263.34 L883.71,263.89 L887.30,264.52 L890.90,265.26 L894.50,263.93 L898.10,264.22 L901.70,263.04 L905.30,263.35 L908.90,262.99 L912.49,265.15 L916.09,266.15 L919.69,268.34 L923.29,268.21 L926.89,268.37 L930.49,268.47 L934.09,268.20 L937.69,268.76 L941.28,269.76 L944.88,265.42 L948.48,264.54 L952.08,263.61 L955.68,262.27 L959.28,261.00 L962.88,266.20 L966.47,266.26 L970.07,266.50 L973.67,266.76 L977.27,267.82 L980.87,267.06 L984.47,268.06 L988.07,268.49 L991.67,268.58 L995.26,270.11 L998.86,270.44 L1002.46,269.43 L1006.06,269.34 L1009.66,270.84 L1013.26,270.70 L1016.86,271.40 L1020.45,271.24 L1024.05,272.55 L1027.65,271.72 L1031.25,271.67 L1034.85,271.96 L1038.45,273.93 L1042.05,272.55 L1045.65,271.65 L1049.24,270.16 L1052.84,270.73 L1056.44,270.71 L1060.04,271.55 L1063.64,272.46 L1067.24,273.41 L1070.84,272.79 L1074.43,271.60 L1078.03,272.08 L1081.63,273.04 L1085.23,273.24 L1088.83,273.28 L1092.43,273.56 L1096.03,273.14 L1099.63,272.68 L1103.22,273.66 L1106.82,273.30 L1110.42,273.91 L1114.02,274.87 L1117.62,275.52 L1121.22,276.15 L1124.82,277.08 L1128.41,278.34 L1132.01,277.85 L1135.61,278.23 L1139.21,278.75 L1142.81,278.84 L1146.41,278.14 L1150.01,278.99 L1153.61,279.59 L1157.20,277.76 L1160.80,277.45 L1164.40,276.56 L1168.00,275.49" fill="none" stroke="#146C94" stroke-width="2.8"/>
<path d="M92.00,124.49 L95.60,124.42 L99.20,124.49 L102.80,124.55 L106.39,124.56 L109.99,124.59 L113.59,124.68 L117.19,124.76 L120.79,124.87 L124.39,125.02 L127.99,125.21 L131.59,125.40 L135.18,125.54 L138.78,125.64 L142.38,125.82 L145.98,125.98 L149.58,126.17 L153.18,126.45 L156.78,126.83 L160.37,127.15 L163.97,127.49 L167.57,127.77 L171.17,128.29 L174.77,128.69 L178.37,129.15 L181.97,129.67 L185.57,130.29 L189.16,130.67 L192.76,131.30 L196.36,132.01 L199.96,132.60 L203.56,133.03 L207.16,133.63 L210.76,133.95 L214.35,134.33 L217.95,134.80 L221.55,135.66 L225.15,136.26 L228.75,137.16 L232.35,137.90 L235.95,138.75 L239.55,139.40 L243.14,140.51 L246.74,141.48 L250.34,142.56 L253.94,143.43 L257.54,144.48 L261.14,145.47 L264.74,145.93 L268.33,146.83 L271.93,148.06 L275.53,149.04 L279.13,149.95 L282.73,151.41 L286.33,152.37 L289.93,153.29 L293.53,154.48 L297.12,155.40 L300.72,156.26 L304.32,157.29 L307.92,158.48 L311.52,159.74 L315.12,160.90 L318.72,162.51 L322.31,163.98 L325.91,165.02 L329.51,165.73 L333.11,166.79 L336.71,167.72 L340.31,168.63 L343.91,169.51 L347.51,170.88 L351.10,172.10 L354.70,173.07 L358.30,174.26 L361.90,175.91 L365.50,177.02 L369.10,178.23 L372.70,179.16 L376.29,180.14 L379.89,180.83 L383.49,181.61 L387.09,182.75 L390.69,183.80 L394.29,184.56 L397.89,185.79 L401.48,187.23 L405.08,188.07 L408.68,189.21 L412.28,191.08 L415.88,192.43 L419.48,193.49 L423.08,194.69 L426.68,196.02 L430.27,196.50 L433.87,197.20 L437.47,198.64 L441.07,199.70 L444.67,200.45 L448.27,201.74 L451.87,202.54 L455.46,202.88 L459.06,203.86 L462.66,204.77 L466.26,205.04 L469.86,205.72 L473.46,206.43 L477.06,206.25 L480.66,207.53 L484.25,208.92 L487.85,209.65 L491.45,210.96 L495.05,212.42 L498.65,213.10 L502.25,213.88 L505.85,215.57 L509.44,216.21 L513.04,217.50 L516.64,218.43 L520.24,220.16 L523.84,221.04 L527.44,221.28 L531.04,222.71 L534.64,223.56 L538.23,223.31 L541.83,223.50 L545.43,224.85 L549.03,224.97 L552.63,226.06 L556.23,227.00 L559.83,228.16 L563.42,229.34 L567.02,229.28 L570.62,229.38 L574.22,229.89 L577.82,230.76 L581.42,230.95 L585.02,232.98 L588.62,233.81 L592.21,234.10 L595.81,233.88 L599.41,235.09 L603.01,234.72 L606.61,235.43 L610.21,236.27 L613.81,237.55 L617.40,237.49 L621.00,238.87 L624.60,239.87 L628.20,240.32 L631.80,240.13 L635.40,240.45 L639.00,240.25 L642.60,240.01 L646.19,240.31 L649.79,241.15 L653.39,242.27 L656.99,243.29 L660.59,243.92 L664.19,245.04 L667.79,245.98 L671.38,245.79 L674.98,245.53 L678.58,245.53 L682.18,246.81 L685.78,247.06 L689.38,247.89 L692.98,249.59 L696.58,250.48 L700.17,250.03 L703.77,249.65 L707.37,249.94 L710.97,249.37 L714.57,249.33 L718.17,249.46 L721.77,249.73 L725.36,249.46 L728.96,250.35 L732.56,250.55 L736.16,251.73 L739.76,252.28 L743.36,253.45 L746.96,253.80 L750.56,254.82 L754.15,254.70 L757.75,255.73 L761.35,257.04 L764.95,255.36 L768.55,255.38 L772.15,255.94 L775.75,255.92 L779.34,254.65 L782.94,256.06 L786.54,256.02 L790.14,256.17 L793.74,256.04 L797.34,255.89 L800.94,255.98 L804.54,256.75 L808.13,257.30 L811.73,257.99 L815.33,260.58 L818.93,260.93 L822.53,261.09 L826.13,261.16 L829.73,261.51 L833.32,260.22 L836.92,260.81 L840.52,261.76 L844.12,261.59 L847.72,262.28 L851.32,262.55 L854.92,263.50 L858.52,263.71 L862.11,264.21 L865.71,263.68 L869.31,263.13 L872.91,262.75 L876.51,263.07 L880.11,263.34 L883.71,263.89 L887.30,264.52 L890.90,265.26 L894.50,263.93 L898.10,264.22 L901.70,263.04 L905.30,263.34 L908.90,262.99 L912.49,265.15 L916.09,266.15 L919.69,268.34 L923.29,268.21 L926.89,268.37 L930.49,268.47 L934.09,268.20 L937.69,268.76 L941.28,269.76 L944.88,265.41 L948.48,264.54 L952.08,263.61 L955.68,262.27 L959.28,261.00 L962.88,266.21 L966.47,266.27 L970.07,266.50 L973.67,266.77 L977.27,267.83 L980.87,267.07 L984.47,268.07 L988.07,268.49 L991.67,268.59 L995.26,270.11 L998.86,270.44 L1002.46,269.43 L1006.06,269.34 L1009.66,270.84 L1013.26,270.70 L1016.86,271.40 L1020.45,271.25 L1024.05,272.55 L1027.65,271.73 L1031.25,271.67 L1034.85,271.97 L1038.45,273.94 L1042.05,272.55 L1045.65,271.66 L1049.24,270.16 L1052.84,270.73 L1056.44,270.72 L1060.04,271.55 L1063.64,272.47 L1067.24,273.41 L1070.84,272.79 L1074.43,271.60 L1078.03,272.08 L1081.63,273.03 L1085.23,273.24 L1088.83,273.28 L1092.43,273.56 L1096.03,273.14 L1099.63,272.68 L1103.22,273.66 L1106.82,273.29 L1110.42,273.90 L1114.02,274.86 L1117.62,275.52 L1121.22,276.14 L1124.82,277.08 L1128.41,278.35 L1132.01,277.85 L1135.61,278.23 L1139.21,278.76 L1142.81,278.84 L1146.41,278.13 L1150.01,278.98 L1153.61,279.58 L1157.20,277.75 L1160.80,277.44 L1164.40,276.56 L1168.00,275.48" fill="none" stroke="#273444" stroke-width="2.0" stroke-dasharray="8 5" opacity="0.95"/>
<path d="M92.00,924.22 L95.60,930.24 L99.20,932.44 L102.80,935.14 L106.39,931.65 L109.99,931.90 L113.59,931.97 L117.19,931.73 L120.79,925.70 L124.39,929.51 L127.99,930.00 L131.59,924.24 L135.18,919.64 L138.78,920.34 L142.38,917.99 L145.98,910.20 L149.58,917.42 L153.18,907.50 L156.78,911.16 L160.37,913.23 L163.97,924.66 L167.57,912.19 L171.17,919.41 L174.77,921.72 L178.37,921.51 L181.97,916.22 L185.57,928.43 L189.16,934.31 L192.76,932.85 L196.36,933.81 L199.96,932.26 L203.56,932.39 L207.16,935.31 L210.76,936.88 L214.35,930.44 L217.95,936.50 L221.55,936.32 L225.15,929.55 L228.75,927.05 L232.35,929.98 L235.95,928.83 L239.55,927.25 L243.14,933.49 L246.74,932.60 L250.34,928.64 L253.94,925.72 L257.54,928.01 L261.14,928.35 L264.74,929.70 L268.33,938.91 L271.93,939.08 L275.53,934.72 L279.13,927.24 L282.73,927.27 L286.33,923.12 L289.93,926.69 L293.53,931.79 L297.12,937.49 L300.72,939.20 L304.32,936.86 L307.92,935.18 L311.52,931.10 L315.12,929.19 L318.72,929.95 L322.31,934.34 L325.91,937.45 L329.51,940.26 L333.11,942.93 L336.71,939.31 L340.31,940.11 L343.91,937.89 L347.51,932.94 L351.10,932.30 L354.70,934.08 L358.30,931.20 L361.90,930.84 L365.50,935.46 L369.10,936.47 L372.70,929.53 L376.29,933.72 L379.89,930.82 L383.49,931.88 L387.09,928.85 L390.69,937.11 L394.29,935.58 L397.89,940.64 L401.48,939.23 L405.08,944.01 L408.68,939.03 L412.28,938.38 L415.88,933.74 L419.48,930.97 L423.08,927.96 L426.68,931.61 L430.27,933.04 L433.87,937.07 L437.47,932.28 L441.07,933.81 L444.67,933.74 L448.27,930.97 L451.87,926.21 L455.46,927.24 L459.06,916.81 L462.66,915.67 L466.26,913.70 L469.86,917.40 L473.46,923.84 L477.06,934.17 L480.66,926.84 L484.25,932.03 L487.85,930.63 L491.45,926.31 L495.05,926.00 L498.65,934.14 L502.25,927.94 L505.85,931.29 L509.44,935.22 L513.04,928.62 L516.64,920.51 L520.24,925.51 L523.84,921.15 L527.44,916.64 L531.04,909.12 L534.64,917.38 L538.23,915.79 L541.83,914.39 L545.43,916.02 L549.03,929.57 L552.63,919.73 L556.23,909.87 L559.83,912.89 L563.42,912.51 L567.02,907.50 L570.62,915.47 L574.22,924.66 L577.82,926.06 L581.42,921.30 L585.02,919.90 L588.62,922.14 L592.21,917.42 L595.81,909.70 L599.41,912.83 L603.01,920.81 L606.61,902.44 L610.21,899.54 L613.81,905.44 L617.40,906.12 L621.00,902.24 L624.60,913.89 L628.20,921.83 L631.80,919.92 L635.40,920.89 L639.00,922.40 L642.60,930.69 L646.19,932.13 L649.79,933.24 L653.39,937.96 L656.99,936.81 L660.59,933.91 L664.19,934.00 L667.79,927.39 L671.38,923.77 L674.98,924.68 L678.58,926.16 L682.18,916.59 L685.78,925.77 L689.38,922.18 L692.98,920.52 L696.58,902.25 L700.17,910.58 L703.77,912.08 L707.37,902.51 L710.97,905.83 L714.57,925.21 L718.17,915.63 L721.77,905.61 L725.36,922.38 L728.96,921.27 L732.56,917.80 L736.16,924.04 L739.76,929.97 L743.36,929.69 L746.96,926.95 L750.56,915.61 L754.15,916.82 L757.75,920.45 L761.35,914.63 L764.95,911.22 L768.55,926.46 L772.15,922.44 L775.75,918.06 L779.34,916.74 L782.94,922.16 L786.54,920.60 L790.14,927.99 L793.74,931.08 L797.34,927.15 L800.94,916.12 L804.54,909.41 L808.13,910.13 L811.73,908.22 L815.33,919.67 L818.93,931.86 L822.53,931.52 L826.13,928.07 L829.73,924.12 L833.32,924.92 L836.92,925.96 L840.52,932.46 L844.12,928.13 L847.72,910.73 L851.32,909.96 L854.92,904.20 L858.52,897.61 L862.11,902.31 L865.71,927.58 L869.31,923.89 L872.91,929.43 L876.51,932.35 L880.11,935.93 L883.71,920.79 L887.30,924.77 L890.90,918.08 L894.50,919.51 L898.10,905.24 L901.70,909.73 L905.30,902.60 L908.90,906.84 L912.49,892.65 L916.09,904.08 L919.69,905.55 L923.29,903.01 L926.89,903.39 L930.49,921.30 L934.09,915.84 L937.69,907.94 L941.28,917.07 L944.88,913.65 L948.48,910.81 L952.08,894.18 L955.68,911.38 L959.28,908.74 L962.88,910.42 L966.47,901.65 L970.07,920.25 L973.67,915.67 L977.27,908.62 L980.87,914.44 L984.47,922.80 L988.07,922.54 L991.67,922.19 L995.26,926.15 L998.86,923.63 L1002.46,924.02 L1006.06,920.57 L1009.66,925.47 L1013.26,924.60 L1016.86,927.19 L1020.45,921.66 L1024.05,929.86 L1027.65,919.20 L1031.25,908.40 L1034.85,901.64 L1038.45,898.20 L1042.05,896.47 L1045.65,894.28 L1049.24,903.46 L1052.84,901.79 L1056.44,900.89 L1060.04,898.75 L1063.64,907.96 L1067.24,902.97 L1070.84,890.03 L1074.43,898.80 L1078.03,902.47 L1081.63,885.61 L1085.23,894.56 L1088.83,909.35 L1092.43,904.04 L1096.03,902.62 L1099.63,909.48 L1103.22,890.04 L1106.82,848.34 L1110.42,850.14 L1114.02,833.97 L1117.62,830.86 L1121.22,829.61 L1124.82,871.84 L1128.41,879.52 L1132.01,889.86 L1135.61,898.48 L1139.21,923.89 L1142.81,929.74 L1146.41,887.54 L1150.01,894.17 L1153.61,894.85 L1157.20,872.27 L1160.80,860.94 L1164.40,893.80 L1168.00,866.30" fill="none" stroke="#146C94" stroke-width="1.8"/>
<text x="102.0" y="134.0" font-family="Arial, sans-serif" font-size="14" font-weight="700" fill="#17212B">A total_loss</text>
<line x1="908.0" y1="130.0" x2="932.0" y2="130.0" stroke="#146C94" stroke-width="2.8"/>
<text x="938.0" y="134.0" font-family="Arial, sans-serif" font-size="12" fill="#323F4B">A TorchForge</text>
<line x1="1048.0" y1="130.0" x2="1072.0" y2="130.0" stroke="#273444" stroke-width="2" stroke-dasharray="8 5"/>
<text x="1078.0" y="134.0" font-family="Arial, sans-serif" font-size="12" fill="#323F4B">A peer</text>
<path d="M92.00,338.49 L95.60,338.42 L99.20,338.47 L102.80,338.51 L106.39,338.50 L109.99,338.48 L113.59,338.51 L117.19,338.53 L120.79,338.55 L124.39,338.59 L127.99,338.66 L131.59,338.72 L135.18,338.71 L138.78,338.66 L142.38,338.66 L145.98,338.64 L149.58,338.62 L153.18,338.68 L156.78,338.83 L160.37,338.86 L163.97,338.93 L167.57,338.98 L171.17,339.07 L174.77,339.12 L178.37,339.21 L181.97,339.30 L185.57,339.42 L189.16,339.43 L192.76,339.54 L196.36,339.71 L199.96,339.77 L203.56,339.84 L207.16,339.98 L210.76,340.01 L214.35,340.04 L217.95,340.17 L221.55,340.25 L225.15,340.30 L228.75,340.38 L232.35,340.43 L235.95,340.49 L239.55,340.66 L243.14,340.82 L246.74,340.94 L250.34,341.12 L253.94,341.24 L257.54,341.37 L261.14,341.49 L264.74,341.56 L268.33,341.64 L271.93,341.86 L275.53,341.92 L279.13,342.05 L282.73,342.30 L286.33,342.48 L289.93,342.60 L293.53,342.81 L297.12,342.91 L300.72,342.97 L304.32,343.16 L307.92,343.31 L311.52,343.47 L315.12,343.80 L318.72,344.12 L322.31,344.28 L325.91,344.48 L329.51,344.66 L333.11,344.75 L336.71,344.88 L340.31,345.08 L343.91,345.26 L347.51,345.49 L351.10,345.74 L354.70,346.01 L358.30,346.29 L361.90,346.59 L365.50,346.88 L369.10,347.15 L372.70,347.32 L376.29,347.53 L379.89,347.77 L383.49,347.95 L387.09,348.24 L390.69,348.38 L394.29,348.61 L397.89,348.90 L401.48,349.30 L405.08,349.57 L408.68,350.03 L412.28,350.42 L415.88,350.77 L419.48,351.08 L423.08,351.37 L426.68,351.72 L430.27,352.04 L433.87,352.35 L437.47,352.77 L441.07,353.22 L444.67,353.48 L448.27,353.92 L451.87,354.19 L455.46,354.35 L459.06,354.70 L462.66,355.12 L466.26,355.33 L469.86,355.72 L473.46,356.22 L477.06,356.33 L480.66,356.90 L484.25,357.43 L487.85,357.85 L491.45,358.35 L495.05,359.01 L498.65,359.37 L502.25,359.84 L505.85,360.54 L509.44,360.93 L513.04,361.58 L516.64,362.18 L520.24,362.97 L523.84,363.52 L527.44,363.91 L531.04,364.72 L534.64,365.23 L538.23,365.54 L541.83,365.99 L545.43,366.77 L549.03,367.16 L552.63,367.86 L556.23,368.50 L559.83,369.31 L563.42,370.28 L567.02,370.64 L570.62,371.21 L574.22,371.89 L577.82,372.59 L581.42,373.04 L585.02,374.10 L588.62,374.79 L592.21,375.20 L595.81,375.53 L599.41,376.52 L603.01,376.87 L606.61,377.70 L610.21,378.65 L613.81,379.64 L617.40,379.97 L621.00,381.14 L624.60,382.13 L628.20,382.91 L631.80,383.51 L635.40,384.23 L639.00,384.81 L642.60,385.30 L646.19,385.95 L649.79,387.00 L653.39,388.18 L656.99,389.03 L660.59,389.80 L664.19,390.99 L667.79,392.05 L671.38,392.71 L674.98,393.28 L678.58,394.14 L682.18,395.44 L685.78,396.16 L689.38,397.20 L692.98,398.93 L696.58,399.99 L700.17,400.52 L703.77,401.14 L707.37,402.02 L710.97,402.46 L714.57,403.12 L718.17,403.87 L721.77,404.74 L725.36,405.17 L728.96,406.22 L732.56,407.11 L736.16,408.42 L739.76,409.24 L743.36,410.60 L746.96,411.64 L750.56,413.04 L754.15,413.82 L757.75,415.16 L761.35,416.71 L764.95,416.59 L768.55,417.37 L772.15,418.56 L775.75,419.37 L779.34,419.68 L782.94,421.21 L786.54,421.67 L790.14,422.35 L793.74,423.02 L797.34,423.44 L800.94,424.31 L804.54,425.50 L808.13,426.63 L811.73,427.90 L815.33,430.12 L818.93,430.99 L822.53,432.02 L826.13,432.85 L829.73,433.67 L833.32,433.82 L836.92,434.96 L840.52,436.26 L844.12,436.78 L847.72,438.06 L851.32,438.83 L854.92,439.70 L858.52,440.55 L862.11,441.50 L865.71,441.57 L869.31,441.77 L872.91,442.51 L876.51,443.06 L880.11,443.79 L883.71,444.74 L887.30,445.59 L890.90,446.47 L894.50,445.99 L898.10,446.75 L901.70,446.33 L905.30,447.05 L908.90,447.19 L912.49,449.19 L916.09,450.15 L919.69,452.06 L923.29,452.23 L926.89,452.80 L930.49,453.38 L934.09,453.65 L937.69,454.32 L941.28,455.20 L944.88,452.03 L948.48,451.49 L952.08,450.94 L955.68,450.16 L959.28,449.60 L962.88,453.91 L966.47,454.27 L970.07,454.56 L973.67,455.02 L977.27,456.01 L980.87,455.48 L984.47,456.37 L988.07,456.93 L991.67,456.99 L995.26,458.26 L998.86,458.58 L1002.46,457.74 L1006.06,457.66 L1009.66,459.01 L1013.26,458.81 L1016.86,459.38 L1020.45,459.38 L1024.05,460.68 L1027.65,460.07 L1031.25,460.29 L1034.85,460.96 L1038.45,462.82 L1042.05,461.68 L1045.65,461.17 L1049.24,460.08 L1052.84,460.50 L1056.44,460.46 L1060.04,461.24 L1063.64,462.08 L1067.24,462.86 L1070.84,462.44 L1074.43,461.69 L1078.03,462.18 L1081.63,463.14 L1085.23,463.52 L1088.83,463.64 L1092.43,463.99 L1096.03,463.94 L1099.63,463.66 L1103.22,464.50 L1106.82,464.35 L1110.42,464.75 L1114.02,465.58 L1117.62,466.10 L1121.22,466.84 L1124.82,467.89 L1128.41,469.28 L1132.01,468.87 L1135.61,469.41 L1139.21,470.10 L1142.81,470.21 L1146.41,469.70 L1150.01,470.71 L1153.61,471.48 L1157.20,469.90 L1160.80,469.77 L1164.40,469.12 L1168.00,468.24" fill="none" stroke="#C44536" stroke-width="2.8"/>
<path d="M92.00,338.49 L95.60,338.42 L99.20,338.47 L102.80,338.51 L106.39,338.50 L109.99,338.48 L113.59,338.51 L117.19,338.53 L120.79,338.55 L124.39,338.59 L127.99,338.66 L131.59,338.71 L135.18,338.71 L138.78,338.66 L142.38,338.66 L145.98,338.64 L149.58,338.62 L153.18,338.68 L156.78,338.82 L160.37,338.85 L163.97,338.93 L167.57,338.98 L171.17,339.06 L174.77,339.12 L178.37,339.20 L181.97,339.29 L185.57,339.42 L189.16,339.43 L192.76,339.53 L196.36,339.71 L199.96,339.77 L203.56,339.84 L207.16,339.98 L210.76,340.01 L214.35,340.04 L217.95,340.17 L221.55,340.25 L225.15,340.30 L228.75,340.38 L232.35,340.43 L235.95,340.49 L239.55,340.66 L243.14,340.82 L246.74,340.94 L250.34,341.12 L253.94,341.23 L257.54,341.36 L261.14,341.49 L264.74,341.55 L268.33,341.64 L271.93,341.86 L275.53,341.92 L279.13,342.05 L282.73,342.30 L286.33,342.48 L289.93,342.60 L293.53,342.81 L297.12,342.91 L300.72,342.97 L304.32,343.16 L307.92,343.31 L311.52,343.46 L315.12,343.79 L318.72,344.11 L322.31,344.27 L325.91,344.48 L329.51,344.65 L333.11,344.75 L336.71,344.88 L340.31,345.07 L343.91,345.25 L347.51,345.48 L351.10,345.73 L354.70,346.00 L358.30,346.28 L361.90,346.58 L365.50,346.88 L369.10,347.14 L372.70,347.32 L376.29,347.53 L379.89,347.77 L383.49,347.95 L387.09,348.24 L390.69,348.38 L394.29,348.61 L397.89,348.90 L401.48,349.30 L405.08,349.56 L408.68,350.03 L412.28,350.42 L415.88,350.76 L419.48,351.07 L423.08,351.37 L426.68,351.72 L430.27,352.03 L433.87,352.35 L437.47,352.77 L441.07,353.22 L444.67,353.48 L448.27,353.92 L451.87,354.19 L455.46,354.34 L459.06,354.70 L462.66,355.11 L466.26,355.33 L469.86,355.72 L473.46,356.22 L477.06,356.33 L480.66,356.90 L484.25,357.43 L487.85,357.85 L491.45,358.35 L495.05,359.00 L498.65,359.37 L502.25,359.83 L505.85,360.53 L509.44,360.93 L513.04,361.58 L516.64,362.18 L520.24,362.97 L523.84,363.51 L527.44,363.90 L531.04,364.72 L534.64,365.23 L538.23,365.54 L541.83,365.99 L545.43,366.77 L549.03,367.16 L552.63,367.85 L556.23,368.50 L559.83,369.31 L563.42,370.28 L567.02,370.65 L570.62,371.22 L574.22,371.89 L577.82,372.59 L581.42,373.04 L585.02,374.10 L588.62,374.79 L592.21,375.20 L595.81,375.53 L599.41,376.52 L603.01,376.86 L606.61,377.69 L610.21,378.65 L613.81,379.63 L617.40,379.96 L621.00,381.14 L624.60,382.13 L628.20,382.90 L631.80,383.50 L635.40,384.22 L639.00,384.81 L642.60,385.29 L646.19,385.94 L649.79,386.99 L653.39,388.17 L656.99,389.02 L660.59,389.79 L664.19,390.98 L667.79,392.04 L671.38,392.70 L674.98,393.27 L678.58,394.12 L682.18,395.42 L685.78,396.15 L689.38,397.19 L692.98,398.92 L696.58,399.98 L700.17,400.51 L703.77,401.13 L707.37,402.01 L710.97,402.44 L714.57,403.11 L718.17,403.85 L721.77,404.72 L725.36,405.15 L728.96,406.20 L732.56,407.09 L736.16,408.41 L739.76,409.22 L743.36,410.58 L746.96,411.62 L750.56,413.03 L754.15,413.80 L757.75,415.14 L761.35,416.69 L764.95,416.57 L768.55,417.35 L772.15,418.54 L775.75,419.35 L779.34,419.66 L782.94,421.19 L786.54,421.65 L790.14,422.34 L793.74,423.01 L797.34,423.42 L800.94,424.29 L804.54,425.49 L808.13,426.62 L811.73,427.89 L815.33,430.11 L818.93,430.97 L822.53,432.00 L826.13,432.84 L829.73,433.65 L833.32,433.81 L836.92,434.94 L840.52,436.24 L844.12,436.77 L847.72,438.05 L851.32,438.82 L854.92,439.68 L858.52,440.54 L862.11,441.48 L865.71,441.56 L869.31,441.76 L872.91,442.50 L876.51,443.05 L880.11,443.78 L883.71,444.73 L887.30,445.58 L890.90,446.46 L894.50,445.97 L898.10,446.74 L901.70,446.32 L905.30,447.04 L908.90,447.18 L912.49,449.18 L916.09,450.14 L919.69,452.05 L923.29,452.22 L926.89,452.79 L930.49,453.37 L934.09,453.65 L937.69,454.31 L941.28,455.19 L944.88,452.02 L948.48,451.48 L952.08,450.94 L955.68,450.16 L959.28,449.60 L962.88,453.90 L966.47,454.26 L970.07,454.56 L973.67,455.02 L977.27,456.01 L980.87,455.47 L984.47,456.37 L988.07,456.93 L991.67,456.98 L995.26,458.26 L998.86,458.57 L1002.46,457.73 L1006.06,457.66 L1009.66,459.00 L1013.26,458.80 L1016.86,459.37 L1020.45,459.37 L1024.05,460.67 L1027.65,460.06 L1031.25,460.28 L1034.85,460.95 L1038.45,462.81 L1042.05,461.68 L1045.65,461.17 L1049.24,460.08 L1052.84,460.49 L1056.44,460.45 L1060.04,461.23 L1063.64,462.08 L1067.24,462.85 L1070.84,462.43 L1074.43,461.69 L1078.03,462.17 L1081.63,463.13 L1085.23,463.52 L1088.83,463.64 L1092.43,463.99 L1096.03,463.94 L1099.63,463.66 L1103.22,464.50 L1106.82,464.34 L1110.42,464.75 L1114.02,465.58 L1117.62,466.10 L1121.22,466.84 L1124.82,467.89 L1128.41,469.28 L1132.01,468.87 L1135.61,469.40 L1139.21,470.10 L1142.81,470.21 L1146.41,469.70 L1150.01,470.71 L1153.61,471.48 L1157.20,469.90 L1160.80,469.77 L1164.40,469.12 L1168.00,468.24" fill="none" stroke="#273444" stroke-width="2.0" stroke-dasharray="8 5" opacity="0.95"/>
<path d="M92.00,924.22 L95.60,933.75 L99.20,935.47 L102.80,934.32 L106.39,929.02 L109.99,928.51 L113.59,923.07 L117.19,920.81 L120.79,919.88 L124.39,923.84 L127.99,925.74 L131.59,928.87 L135.18,931.18 L138.78,934.00 L142.38,930.59 L145.98,924.05 L149.58,924.70 L153.18,912.02 L156.78,907.41 L160.37,908.36 L163.97,914.08 L167.57,901.93 L171.17,912.11 L174.77,911.62 L178.37,905.59 L181.97,897.86 L185.57,902.65 L189.16,901.84 L192.76,902.52 L196.36,913.72 L199.96,914.97 L203.56,915.83 L207.16,910.16 L210.76,916.39 L214.35,913.70 L217.95,923.50 L221.55,926.06 L225.15,932.60 L228.75,920.87 L232.35,918.92 L235.95,912.30 L239.55,909.00 L243.14,907.71 L246.74,918.84 L250.34,916.66 L253.94,921.63 L257.54,930.84 L261.14,929.11 L264.74,929.47 L268.33,934.89 L271.93,930.70 L275.53,928.90 L279.13,921.17 L282.73,921.02 L286.33,921.55 L289.93,927.77 L293.53,922.95 L297.12,935.06 L300.72,930.70 L304.32,933.09 L307.92,921.51 L311.52,923.05 L315.12,922.00 L318.72,924.34 L322.31,919.82 L325.91,925.47 L329.51,920.36 L333.11,924.60 L336.71,921.19 L340.31,921.95 L343.91,921.53 L347.51,922.16 L351.10,909.46 L354.70,912.38 L358.30,908.15 L361.90,914.10 L365.50,923.90 L369.10,931.50 L372.70,926.78 L376.29,923.41 L379.89,923.33 L383.49,917.63 L387.09,917.63 L390.69,922.48 L394.29,933.62 L397.89,932.22 L401.48,938.70 L405.08,929.00 L408.68,929.42 L412.28,921.55 L415.88,910.59 L419.48,903.41 L423.08,911.39 L426.68,908.89 L430.27,911.60 L433.87,921.68 L437.47,924.75 L441.07,924.35 L444.67,926.23 L448.27,919.29 L451.87,917.15 L455.46,921.04 L459.06,921.04 L462.66,917.93 L466.26,918.90 L469.86,915.88 L473.46,915.86 L477.06,918.10 L480.66,915.92 L484.25,926.48 L487.85,922.78 L491.45,914.25 L495.05,912.96 L498.65,920.26 L502.25,913.42 L505.85,924.07 L509.44,924.92 L513.04,927.84 L516.64,920.15 L520.24,918.33 L523.84,914.48 L527.44,908.19 L531.04,910.37 L534.64,915.84 L538.23,925.45 L541.83,929.00 L545.43,934.78 L549.03,928.51 L552.63,930.44 L556.23,924.01 L559.83,923.96 L563.42,929.40 L567.02,935.94 L570.62,932.39 L574.22,937.13 L577.82,936.92 L581.42,937.96 L585.02,933.59 L588.62,937.00 L592.21,930.19 L595.81,930.55 L599.41,931.96 L603.01,927.20 L606.61,922.38 L610.21,925.49 L613.81,916.56 L617.40,905.04 L621.00,904.13 L624.60,905.21 L628.20,896.93 L631.80,897.23 L635.40,893.82 L639.00,889.27 L642.60,884.53 L646.19,893.57 L649.79,895.15 L653.39,900.72 L656.99,895.11 L660.59,892.89 L664.19,883.07 L667.79,874.75 L671.38,869.20 L674.98,865.67 L678.58,863.83 L682.18,862.32 L685.78,864.76 L689.38,860.63 L692.98,862.75 L696.58,859.44 L700.17,859.93 L703.77,862.68 L707.37,854.85 L710.97,847.06 L714.57,848.12 L718.17,836.01 L721.77,830.91 L725.36,837.51 L728.96,842.00 L732.56,842.89 L736.16,847.61 L739.76,845.96 L743.36,841.39 L746.96,837.68 L750.56,826.68 L754.15,821.43 L757.75,807.27 L761.35,804.55 L764.95,811.96 L768.55,815.50 L772.15,821.32 L775.75,830.83 L779.34,841.77 L782.94,841.15 L786.54,849.58 L790.14,853.28 L793.74,857.03 L797.34,854.68 L800.94,862.75 L804.54,861.26 L808.13,860.67 L811.73,856.95 L815.33,856.71 L818.93,850.32 L822.53,844.92 L826.13,835.99 L829.73,842.38 L833.32,845.35 L836.92,853.64 L840.52,850.15 L844.12,858.64 L847.72,854.76 L851.32,844.60 L854.92,834.74 L858.52,837.53 L862.11,843.21 L865.71,839.65 L869.31,853.98 L872.91,859.10 L876.51,865.03 L880.11,857.73 L883.71,865.41 L887.30,864.69 L890.90,862.56 L894.50,863.19 L898.10,863.38 L901.70,866.11 L905.30,861.20 L908.90,867.68 L912.49,867.09 L916.09,871.72 L919.69,870.51 L923.29,886.94 L926.89,888.51 L930.49,893.93 L934.09,903.09 L937.69,913.70 L941.28,906.86 L944.88,906.94 L948.48,913.89 L952.08,920.81 L955.68,919.58 L959.28,919.35 L962.88,924.54 L966.47,922.06 L970.07,921.00 L973.67,918.31 L977.27,924.90 L980.87,923.71 L984.47,923.27 L988.07,924.25 L991.67,927.34 L995.26,913.64 L998.86,915.27 L1002.46,914.47 L1006.06,911.01 L1009.66,902.18 L1013.26,906.85 L1016.86,899.72 L1020.45,894.47 L1024.05,888.60 L1027.65,893.03 L1031.25,895.44 L1034.85,901.55 L1038.45,909.49 L1042.05,919.28 L1045.65,919.12 L1049.24,921.67 L1052.84,923.92 L1056.44,918.77 L1060.04,910.76 L1063.64,917.83 L1067.24,917.83 L1070.84,912.54 L1074.43,915.69 L1078.03,902.61 L1081.63,898.60 L1085.23,904.60 L1088.83,904.80 L1092.43,903.79 L1096.03,921.18 L1099.63,921.41 L1103.22,916.64 L1106.82,922.89 L1110.42,925.33 L1114.02,923.97 L1117.62,925.01 L1121.22,926.55 L1124.82,921.75 L1128.41,926.71 L1132.01,928.52 L1135.61,933.05 L1139.21,935.82 L1142.81,940.67 L1146.41,939.36 L1150.01,937.28 L1153.61,937.59 L1157.20,928.41 L1160.80,924.73 L1164.40,915.79 L1168.00,919.01" fill="none" stroke="#C44536" stroke-width="1.8"/>
<text x="102.0" y="348.0" font-family="Arial, sans-serif" font-size="14" font-weight="700" fill="#17212B">B total_loss</text>
<line x1="908.0" y1="344.0" x2="932.0" y2="344.0" stroke="#C44536" stroke-width="2.8"/>
<text x="938.0" y="348.0" font-family="Arial, sans-serif" font-size="12" fill="#323F4B">B TorchForge</text>
<line x1="1048.0" y1="344.0" x2="1072.0" y2="344.0" stroke="#273444" stroke-width="2" stroke-dasharray="8 5"/>
<text x="1078.0" y="348.0" font-family="Arial, sans-serif" font-size="12" fill="#323F4B">B peer</text>
<path d="M92.00,552.49 L95.60,552.42 L99.20,552.47 L102.80,552.51 L106.39,552.50 L109.99,552.48 L113.59,552.51 L117.19,552.53 L120.79,552.55 L124.39,552.59 L127.99,552.66 L131.59,552.71 L135.18,552.71 L138.78,552.66 L142.38,552.66 L145.98,552.64 L149.58,552.62 L153.18,552.68 L156.78,552.83 L160.37,552.86 L163.97,552.93 L167.57,552.98 L171.17,553.07 L174.77,553.12 L178.37,553.21 L181.97,553.30 L185.57,553.42 L189.16,553.43 L192.76,553.54 L196.36,553.71 L199.96,553.77 L203.56,553.84 L207.16,553.98 L210.76,554.01 L214.35,554.04 L217.95,554.17 L221.55,554.25 L225.15,554.30 L228.75,554.38 L232.35,554.43 L235.95,554.49 L239.55,554.66 L243.14,554.82 L246.74,554.94 L250.34,555.12 L253.94,555.23 L257.54,555.36 L261.14,555.49 L264.74,555.55 L268.33,555.64 L271.93,555.85 L275.53,555.91 L279.13,556.05 L282.73,556.30 L286.33,556.48 L289.93,556.60 L293.53,556.81 L297.12,556.91 L300.72,556.97 L304.32,557.15 L307.92,557.31 L311.52,557.46 L315.12,557.79 L318.72,558.11 L322.31,558.27 L325.91,558.47 L329.51,558.65 L333.11,558.74 L336.71,558.88 L340.31,559.07 L343.91,559.25 L347.51,559.48 L351.10,559.73 L354.70,560.00 L358.30,560.28 L361.90,560.58 L365.50,560.88 L369.10,561.14 L372.70,561.32 L376.29,561.52 L379.89,561.77 L383.49,561.94 L387.09,562.23 L390.69,562.37 L394.29,562.60 L397.89,562.89 L401.48,563.29 L405.08,563.56 L408.68,564.02 L412.28,564.41 L415.88,564.75 L419.48,565.06 L423.08,565.36 L426.68,565.71 L430.27,566.03 L433.87,566.33 L437.47,566.76 L441.07,567.21 L444.67,567.47 L448.27,567.90 L451.87,568.18 L455.46,568.33 L459.06,568.69 L462.66,569.10 L466.26,569.32 L469.86,569.70 L473.46,570.20 L477.06,570.31 L480.66,570.88 L484.25,571.41 L487.85,571.83 L491.45,572.33 L495.05,572.99 L498.65,573.35 L502.25,573.82 L505.85,574.52 L509.44,574.91 L513.04,575.56 L516.64,576.16 L520.24,576.95 L523.84,577.49 L527.44,577.88 L531.04,578.70 L534.64,579.20 L538.23,579.51 L541.83,579.96 L545.43,580.74 L549.03,581.13 L552.63,581.82 L556.23,582.47 L559.83,583.28 L563.42,584.24 L567.02,584.61 L570.62,585.18 L574.22,585.86 L577.82,586.55 L581.42,587.01 L585.02,588.07 L588.62,588.75 L592.21,589.17 L595.81,589.49 L599.41,590.48 L603.01,590.83 L606.61,591.66 L610.21,592.61 L613.81,593.59 L617.40,593.93 L621.00,595.10 L624.60,596.09 L628.20,596.86 L631.80,597.46 L635.40,598.18 L639.00,598.76 L642.60,599.25 L646.19,599.90 L649.79,600.95 L653.39,602.13 L656.99,602.98 L660.59,603.75 L664.19,604.94 L667.79,606.00 L671.38,606.65 L674.98,607.22 L678.58,608.07 L682.18,609.37 L685.78,610.10 L689.38,611.13 L692.98,612.86 L696.58,613.92 L700.17,614.45 L703.77,615.07 L707.37,615.95 L710.97,616.38 L714.57,617.05 L718.17,617.79 L721.77,618.67 L725.36,619.09 L728.96,620.14 L732.56,621.02 L736.16,622.34 L739.76,623.15 L743.36,624.51 L746.96,625.55 L750.56,626.95 L754.15,627.73 L757.75,629.07 L761.35,630.62 L764.95,630.50 L768.55,631.28 L772.15,632.46 L775.75,633.28 L779.34,633.58 L782.94,635.11 L786.54,635.57 L790.14,636.26 L793.74,636.93 L797.34,637.34 L800.94,638.21 L804.54,639.41 L808.13,640.54 L811.73,641.80 L815.33,644.02 L818.93,644.89 L822.53,645.92 L826.13,646.75 L829.73,647.56 L833.32,647.72 L836.92,648.85 L840.52,650.16 L844.12,650.68 L847.72,651.96 L851.32,652.73 L854.92,653.59 L858.52,654.44 L862.11,655.38 L865.71,655.46 L869.31,655.66 L872.91,656.41 L876.51,656.95 L880.11,657.69 L883.71,658.64 L887.30,659.49 L890.90,660.37 L894.50,659.88 L898.10,660.65 L901.70,660.23 L905.30,660.95 L908.90,661.09 L912.49,663.09 L916.09,664.05 L919.69,665.96 L923.29,666.12 L926.89,666.69 L930.49,667.28 L934.09,667.55 L937.69,668.21 L941.28,669.10 L944.88,665.92 L948.48,665.38 L952.08,664.84 L955.68,664.06 L959.28,663.50 L962.88,667.81 L966.47,668.17 L970.07,668.46 L973.67,668.92 L977.27,669.91 L980.87,669.37 L984.47,670.27 L988.07,670.83 L991.67,670.88 L995.26,672.16 L998.86,672.47 L1002.46,671.63 L1006.06,671.55 L1009.66,672.89 L1013.26,672.69 L1016.86,673.26 L1020.45,673.26 L1024.05,674.55 L1027.65,673.94 L1031.25,674.16 L1034.85,674.83 L1038.45,676.68 L1042.05,675.55 L1045.65,675.04 L1049.24,673.94 L1052.84,674.36 L1056.44,674.31 L1060.04,675.09 L1063.64,675.93 L1067.24,676.71 L1070.84,676.29 L1074.43,675.54 L1078.03,676.03 L1081.63,676.99 L1085.23,677.37 L1088.83,677.48 L1092.43,677.83 L1096.03,677.78 L1099.63,677.50 L1103.22,678.33 L1106.82,678.18 L1110.42,678.58 L1114.02,679.41 L1117.62,679.92 L1121.22,680.66 L1124.82,681.71 L1128.41,683.09 L1132.01,682.68 L1135.61,683.21 L1139.21,683.91 L1142.81,684.01 L1146.41,683.50 L1150.01,684.51 L1153.61,685.28 L1157.20,683.70 L1160.80,683.58 L1164.40,682.92 L1168.00,682.04" fill="none" stroke="#2A9D55" stroke-width="2.8"/>
<path d="M92.00,552.49 L95.60,552.41 L99.20,552.47 L102.80,552.51 L106.39,552.50 L109.99,552.48 L113.59,552.51 L117.19,552.53 L120.79,552.55 L124.39,552.59 L127.99,552.66 L131.59,552.71 L135.18,552.71 L138.78,552.65 L142.38,552.66 L145.98,552.63 L149.58,552.61 L153.18,552.68 L156.78,552.82 L160.37,552.85 L163.97,552.93 L167.57,552.98 L171.17,553.06 L174.77,553.12 L178.37,553.20 L181.97,553.29 L185.57,553.41 L189.16,553.43 L192.76,553.53 L196.36,553.70 L199.96,553.77 L203.56,553.84 L207.16,553.98 L210.76,554.01 L214.35,554.04 L217.95,554.17 L221.55,554.25 L225.15,554.29 L228.75,554.37 L232.35,554.43 L235.95,554.48 L239.55,554.66 L243.14,554.82 L246.74,554.94 L250.34,555.12 L253.94,555.23 L257.54,555.36 L261.14,555.48 L264.74,555.55 L268.33,555.64 L271.93,555.85 L275.53,555.91 L279.13,556.05 L282.73,556.30 L286.33,556.48 L289.93,556.60 L293.53,556.80 L297.12,556.91 L300.72,556.97 L304.32,557.15 L307.92,557.31 L311.52,557.46 L315.12,557.79 L318.72,558.11 L322.31,558.27 L325.91,558.47 L329.51,558.65 L333.11,558.74 L336.71,558.87 L340.31,559.07 L343.91,559.25 L347.51,559.48 L351.10,559.73 L354.70,560.00 L358.30,560.28 L361.90,560.58 L365.50,560.88 L369.10,561.14 L372.70,561.32 L376.29,561.52 L379.89,561.77 L383.49,561.94 L387.09,562.23 L390.69,562.37 L394.29,562.60 L397.89,562.89 L401.48,563.29 L405.08,563.56 L408.68,564.02 L412.28,564.41 L415.88,564.75 L419.48,565.06 L423.08,565.36 L426.68,565.70 L430.27,566.02 L433.87,566.33 L437.47,566.76 L441.07,567.20 L444.67,567.47 L448.27,567.90 L451.87,568.18 L455.46,568.33 L459.06,568.68 L462.66,569.10 L466.26,569.31 L469.86,569.70 L473.46,570.20 L477.06,570.31 L480.66,570.88 L484.25,571.42 L487.85,571.83 L491.45,572.33 L495.05,572.98 L498.65,573.35 L502.25,573.81 L505.85,574.51 L509.44,574.91 L513.04,575.56 L516.64,576.16 L520.24,576.94 L523.84,577.49 L527.44,577.87 L531.04,578.69 L534.64,579.20 L538.23,579.51 L541.83,579.96 L545.43,580.74 L549.03,581.13 L552.63,581.82 L556.23,582.46 L559.83,583.28 L563.42,584.24 L567.02,584.61 L570.62,585.18 L574.22,585.86 L577.82,586.55 L581.42,587.00 L585.02,588.06 L588.62,588.75 L592.21,589.16 L595.81,589.48 L599.41,590.47 L603.01,590.82 L606.61,591.65 L610.21,592.60 L613.81,593.58 L617.40,593.91 L621.00,595.09 L624.60,596.08 L628.20,596.84 L631.80,597.44 L635.40,598.17 L639.00,598.75 L642.60,599.24 L646.19,599.89 L649.79,600.94 L653.39,602.12 L656.99,602.96 L660.59,603.73 L664.19,604.92 L667.79,605.98 L671.38,606.64 L674.98,607.20 L678.58,608.06 L682.18,609.36 L685.78,610.09 L689.38,611.12 L692.98,612.85 L696.58,613.91 L700.17,614.44 L703.77,615.05 L707.37,615.93 L710.97,616.37 L714.57,617.03 L718.17,617.77 L721.77,618.65 L725.36,619.07 L728.96,620.12 L732.56,621.01 L736.16,622.32 L739.76,623.14 L743.36,624.49 L746.96,625.53 L750.56,626.94 L754.15,627.71 L757.75,629.05 L761.35,630.60 L764.95,630.48 L768.55,631.26 L772.15,632.44 L775.75,633.26 L779.34,633.56 L782.94,635.09 L786.54,635.56 L790.14,636.24 L793.74,636.91 L797.34,637.33 L800.94,638.20 L804.54,639.39 L808.13,640.52 L811.73,641.79 L815.33,644.01 L818.93,644.87 L822.53,645.90 L826.13,646.73 L829.73,647.54 L833.32,647.70 L836.92,648.83 L840.52,650.14 L844.12,650.66 L847.72,651.94 L851.32,652.71 L854.92,653.58 L858.52,654.43 L862.11,655.37 L865.71,655.45 L869.31,655.65 L872.91,656.39 L876.51,656.94 L880.11,657.67 L883.71,658.62 L887.30,659.47 L890.90,660.35 L894.50,659.87 L898.10,660.63 L901.70,660.21 L905.30,660.93 L908.90,661.08 L912.49,663.08 L916.09,664.03 L919.69,665.94 L923.29,666.11 L926.89,666.68 L930.49,667.27 L934.09,667.54 L937.69,668.20 L941.28,669.09 L944.88,665.91 L948.48,665.38 L952.08,664.83 L955.68,664.05 L959.28,663.50 L962.88,667.80 L966.47,668.16 L970.07,668.46 L973.67,668.92 L977.27,669.91 L980.87,669.37 L984.47,670.26 L988.07,670.82 L991.67,670.88 L995.26,672.15 L998.86,672.46 L1002.46,671.62 L1006.06,671.54 L1009.66,672.88 L1013.26,672.68 L1016.86,673.25 L1020.45,673.25 L1024.05,674.54 L1027.65,673.93 L1031.25,674.15 L1034.85,674.82 L1038.45,676.68 L1042.05,675.54 L1045.65,675.04 L1049.24,673.94 L1052.84,674.35 L1056.44,674.31 L1060.04,675.09 L1063.64,675.93 L1067.24,676.70 L1070.84,676.28 L1074.43,675.54 L1078.03,676.02 L1081.63,676.98 L1085.23,677.36 L1088.83,677.48 L1092.43,677.82 L1096.03,677.78 L1099.63,677.49 L1103.22,678.33 L1106.82,678.18 L1110.42,678.58 L1114.02,679.40 L1117.62,679.92 L1121.22,680.66 L1124.82,681.70 L1128.41,683.09 L1132.01,682.68 L1135.61,683.21 L1139.21,683.91 L1142.81,684.01 L1146.41,683.50 L1150.01,684.51 L1153.61,685.28 L1157.20,683.70 L1160.80,683.57 L1164.40,682.92 L1168.00,682.03" fill="none" stroke="#273444" stroke-width="2.0" stroke-dasharray="8 5" opacity="0.95"/>
<path d="M92.00,924.22 L95.60,920.19 L99.20,924.00 L102.80,930.29 L106.39,928.70 L109.99,928.43 L113.59,932.03 L117.19,930.84 L120.79,919.79 L124.39,917.27 L127.99,915.67 L131.59,914.75 L135.18,913.93 L138.78,918.16 L142.38,919.33 L145.98,917.78 L149.58,919.92 L153.18,907.68 L156.78,909.65 L160.37,911.01 L163.97,911.26 L167.57,895.03 L171.17,912.79 L174.77,914.06 L178.37,910.23 L181.97,904.24 L185.57,915.75 L189.16,913.13 L192.76,912.41 L196.36,920.62 L199.96,923.24 L203.56,923.31 L207.16,916.13 L210.76,916.77 L214.35,917.38 L217.95,924.32 L221.55,925.99 L225.15,925.80 L228.75,916.20 L232.35,912.19 L235.95,913.51 L239.55,909.25 L243.14,914.84 L246.74,925.13 L250.34,915.77 L253.94,914.44 L257.54,922.71 L261.14,919.98 L264.74,922.46 L268.33,933.74 L271.93,931.90 L275.53,928.98 L279.13,922.50 L282.73,921.17 L286.33,922.84 L289.93,928.90 L293.53,927.39 L297.12,940.62 L300.72,937.91 L304.32,935.27 L307.92,925.38 L311.52,928.39 L315.12,925.08 L318.72,921.09 L322.31,921.11 L325.91,925.80 L329.51,910.82 L333.11,911.94 L336.71,914.99 L340.31,916.11 L343.91,915.96 L347.51,929.93 L351.10,923.50 L354.70,925.80 L358.30,923.33 L361.90,928.75 L365.50,926.93 L369.10,933.53 L372.70,931.75 L376.29,927.22 L379.89,925.89 L383.49,926.14 L387.09,918.92 L390.69,918.40 L394.29,926.38 L397.89,925.36 L401.48,926.27 L405.08,927.44 L408.68,932.33 L412.28,924.49 L415.88,914.82 L419.48,915.83 L423.08,919.07 L426.68,913.55 L430.27,918.10 L433.87,927.08 L437.47,924.43 L441.07,921.91 L444.67,925.34 L448.27,916.38 L451.87,915.77 L455.46,914.99 L459.06,920.87 L462.66,922.19 L466.26,923.27 L469.86,918.59 L473.46,920.79 L477.06,918.92 L480.66,908.64 L484.25,915.47 L487.85,919.45 L491.45,914.52 L495.05,906.59 L498.65,918.02 L502.25,910.94 L505.85,906.92 L509.44,911.05 L513.04,909.68 L516.64,909.08 L520.24,915.86 L523.84,917.93 L527.44,909.17 L531.04,919.35 L534.64,918.38 L538.23,921.21 L541.83,921.00 L545.43,923.43 L549.03,911.75 L552.63,906.69 L556.23,908.91 L559.83,915.54 L563.42,923.71 L567.02,927.86 L570.62,932.47 L574.22,924.89 L577.82,916.89 L581.42,905.21 L585.02,912.34 L588.62,900.25 L592.21,893.90 L595.81,894.18 L599.41,901.17 L603.01,889.59 L606.61,891.96 L610.21,894.90 L613.81,882.88 L617.40,862.79 L621.00,858.58 L624.60,861.92 L628.20,860.06 L631.80,868.80 L635.40,877.20 L639.00,879.66 L642.60,877.78 L646.19,871.42 L649.79,870.81 L653.39,870.26 L656.99,858.20 L660.59,851.89 L664.19,851.17 L667.79,842.87 L671.38,852.76 L674.98,861.86 L678.58,863.59 L682.18,875.47 L685.78,881.39 L689.38,870.28 L692.98,882.26 L696.58,883.85 L700.17,876.46 L703.77,869.35 L707.37,860.10 L710.97,837.79 L714.57,839.84 L718.17,828.03 L721.77,832.31 L725.36,847.08 L728.96,857.71 L732.56,857.22 L736.16,860.57 L739.76,866.32 L743.36,860.69 L746.96,854.89 L750.56,850.02 L754.15,860.59 L757.75,843.16 L761.35,840.60 L764.95,845.56 L768.55,837.34 L772.15,833.89 L775.75,837.45 L779.34,848.97 L782.94,842.95 L786.54,850.74 L790.14,845.45 L793.74,848.52 L797.34,834.57 L800.94,848.88 L804.54,852.99 L808.13,858.96 L811.73,862.15 L815.33,876.76 L818.93,863.17 L822.53,849.09 L826.13,829.72 L829.73,823.80 L833.32,814.06 L836.92,814.44 L840.52,813.28 L844.12,828.22 L847.72,837.00 L851.32,846.21 L854.92,856.59 L858.52,873.29 L862.11,883.58 L865.71,875.55 L869.31,870.09 L872.91,862.22 L876.51,850.43 L880.11,836.82 L883.71,835.57 L887.30,839.23 L890.90,844.48 L894.50,855.27 L898.10,858.22 L901.70,870.71 L905.30,866.24 L908.90,869.77 L912.49,866.18 L916.09,861.64 L919.69,862.20 L923.29,874.05 L926.89,871.51 L930.49,880.40 L934.09,894.35 L937.69,895.64 L941.28,889.18 L944.88,893.90 L948.48,897.44 L952.08,907.22 L955.68,906.20 L959.28,908.30 L962.88,910.52 L966.47,913.00 L970.07,912.98 L973.67,918.33 L977.27,917.66 L980.87,918.71 L984.47,919.16 L988.07,919.70 L991.67,924.35 L995.26,923.64 L998.86,928.25 L1002.46,920.40 L1006.06,912.85 L1009.66,900.52 L1013.26,903.42 L1016.86,892.67 L1020.45,891.12 L1024.05,896.00 L1027.65,902.04 L1031.25,905.76 L1034.85,915.65 L1038.45,911.99 L1042.05,910.31 L1045.65,911.09 L1049.24,914.19 L1052.84,914.08 L1056.44,922.35 L1060.04,913.66 L1063.64,915.63 L1067.24,907.62 L1070.84,901.08 L1074.43,900.50 L1078.03,897.20 L1081.63,891.76 L1085.23,900.09 L1088.83,894.12 L1092.43,896.49 L1096.03,911.65 L1099.63,920.62 L1103.22,915.92 L1106.82,930.58 L1110.42,932.70 L1114.02,934.37 L1117.62,933.27 L1121.22,939.81 L1124.82,933.01 L1128.41,932.58 L1132.01,928.50 L1135.61,919.30 L1139.21,916.05 L1142.81,921.67 L1146.41,923.43 L1150.01,928.55 L1153.61,934.75 L1157.20,925.31 L1160.80,928.00 L1164.40,923.28 L1168.00,922.42" fill="none" stroke="#2A9D55" stroke-width="1.8"/>
<text x="102.0" y="562.0" font-family="Arial, sans-serif" font-size="14" font-weight="700" fill="#17212B">C total_loss</text>
<line x1="908.0" y1="558.0" x2="932.0" y2="558.0" stroke="#2A9D55" stroke-width="2.8"/>
<text x="938.0" y="562.0" font-family="Arial, sans-serif" font-size="12" fill="#323F4B">C TorchForge</text>
<line x1="1048.0" y1="558.0" x2="1072.0" y2="558.0" stroke="#273444" stroke-width="2" stroke-dasharray="8 5"/>
<text x="1078.0" y="562.0" font-family="Arial, sans-serif" font-size="12" fill="#323F4B">C peer</text>
<text x="92.0" y="762.0" font-family="Arial, sans-serif" font-size="14" font-weight="700" fill="#17212B">Absolute TorchForge-peer difference</text>
<line x1="382.0" y1="757.0" x2="406.0" y2="757.0" stroke="#146C94" stroke-width="2"/>
<text x="412.0" y="761.0" font-family="Arial, sans-serif" font-size="12" fill="#323F4B">A |TorchForge-peer|</text>
<line x1="572.0" y1="757.0" x2="596.0" y2="757.0" stroke="#C44536" stroke-width="2"/>
<text x="602.0" y="761.0" font-family="Arial, sans-serif" font-size="12" fill="#323F4B">B |TorchForge-peer|</text>
<line x1="762.0" y1="757.0" x2="786.0" y2="757.0" stroke="#2A9D55" stroke-width="2"/>
<text x="792.0" y="761.0" font-family="Arial, sans-serif" font-size="12" fill="#323F4B">C |TorchForge-peer|</text>
<text x="630.0" y="1002" text-anchor="middle" font-family="Arial, sans-serif" font-size="13" fill="#3E4C59">Cumulative tokens (billions)</text>
</svg>